<svg xmlns="http://www.w3.org/2000/svg" xmlns:xlink="http://www.w3.org/1999/xlink" width="60" height="60" viewBox="0 0 60 60">
  <defs>
    <linearGradient id="linear-gradient" x1="1" x2="-0.053" y2="1" gradientUnits="objectBoundingBox">
      <stop offset="0" stop-color="#f6bc3f"/>
      <stop offset="0.404" stop-color="#d19223"/>
      <stop offset="0.749" stop-color="#f7bc3c"/>
      <stop offset="1" stop-color="#f4bc45"/>
    </linearGradient>
  </defs>
  <g id="Group_298" data-name="Group 298" transform="translate(-724 -3404)">
    <circle id="Ellipse_6" data-name="Ellipse 6" cx="30" cy="30" r="30" transform="translate(724 3404)" fill="url(#linear-gradient)"/>
    <g id="icons8-circled_chevron_right" transform="translate(732 3412)">
      <path id="Path_8" data-name="Path 8" d="M22,38A16,16,0,1,1,38,22,16.018,16.018,0,0,1,22,38ZM22,7.231A14.769,14.769,0,1,0,36.769,22,14.786,14.786,0,0,0,22,7.231Z" fill="#fff"/>
      <path id="Path_9" data-name="Path 9" d="M23.747,35.467l-.87-.87,8.564-8.564-8.179-8.182.87-.87,8.179,8.179a1.233,1.233,0,0,1,0,1.743Z" transform="translate(-6.491 -4.223)" fill="#fff"/>
      <path id="Path_10" data-name="Path 10" d="M25.918,35.462H20.69a1.23,1.23,0,0,1-.87-2.1l6.7-6.7a.615.615,0,0,0,0-.869l-6.7-6.7a1.23,1.23,0,0,1,.87-2.1h5.228a1.221,1.221,0,0,1,.869.359l7.567,7.567a1.845,1.845,0,0,1,0,2.609L26.788,35.1A1.221,1.221,0,0,1,25.918,35.462Zm0-17.231H20.69l6.7,6.7a1.847,1.847,0,0,1,0,2.609l-6.7,6.7,5.228,0,7.565-7.566a.615.615,0,0,0,0-.869Z" transform="translate(-5.177 -4.231)" fill="#fff"/>
    </g>
  </g>
</svg>
