<svg xmlns="http://www.w3.org/2000/svg" xmlns:xlink="http://www.w3.org/1999/xlink" width="60" height="60" viewBox="0 0 60 60">
  <defs>
    <linearGradient id="linear-gradient" x1="1" x2="-0.053" y2="1" gradientUnits="objectBoundingBox">
      <stop offset="0" stop-color="#f6bc3f"/>
      <stop offset="0.404" stop-color="#d19223"/>
      <stop offset="0.749" stop-color="#f7bc3c"/>
      <stop offset="1" stop-color="#f4bc45"/>
    </linearGradient>
  </defs>
  <g id="Group_300" data-name="Group 300" transform="translate(-231 -3626)">
    <circle id="Ellipse_10" data-name="Ellipse 10" cx="30" cy="30" r="30" transform="translate(231 3626)" fill="url(#linear-gradient)"/>
    <g id="icons8-documents" transform="translate(239 3637)">
      <path id="Path_3" data-name="Path 3" d="M33.9,44.077H23.519A.519.519,0,0,1,23,43.558V42.519A.519.519,0,0,1,23.519,42H33.9a.519.519,0,0,1,.519.519v1.038A.519.519,0,0,1,33.9,44.077Z" transform="translate(-5.769 -17.308)" fill="#fff"/>
      <path id="Path_4" data-name="Path 4" d="M31.25,10.154H30.212V9.635a1.56,1.56,0,0,0-1.558-1.558H22.371a2.6,2.6,0,0,0-5.087,0H12.558A1.56,1.56,0,0,0,11,9.635V28.327a1.56,1.56,0,0,0,1.558,1.558h.519v1.558A1.56,1.56,0,0,0,14.635,33H31.25a1.56,1.56,0,0,0,1.558-1.558V11.712A1.56,1.56,0,0,0,31.25,10.154ZM12.558,28.846a.519.519,0,0,1-.519-.519V9.635a.519.519,0,0,1,.519-.519h4.673v1.038h-2.6a1.56,1.56,0,0,0-1.558,1.558V28.846Zm19.212,2.6a.519.519,0,0,1-.519.519H14.635a.519.519,0,0,1-.519-.519V11.712a.519.519,0,0,1,.519-.519h2.6V12.75a2.6,2.6,0,1,0,5.192,0v-.52a1.558,1.558,0,0,0-3.115,0v1.04h1.038V12.23a.519.519,0,0,1,1.038,0v.52a1.558,1.558,0,0,1-3.115,0V8.6a1.558,1.558,0,0,1,3.115,0v.519h7.269a.519.519,0,0,1,.519.519v.519H23.462v1.038H31.25a.519.519,0,0,1,.519.519Z" transform="translate(0 0)" fill="#fff"/>
      <rect id="Rectangle_31" data-name="Rectangle 31" width="5.192" height="1.038" transform="translate(23.462 12.231)" fill="#fff"/>
      <rect id="Rectangle_32" data-name="Rectangle 32" width="5.192" height="1.038" transform="translate(23.462 14.308)" fill="#fff"/>
      <rect id="Rectangle_33" data-name="Rectangle 33" width="11.423" height="1.038" transform="translate(17.231 18.462)" fill="#fff"/>
      <rect id="Rectangle_34" data-name="Rectangle 34" width="11.423" height="1.038" transform="translate(17.231 20.538)" fill="#fff"/>
      <rect id="Rectangle_35" data-name="Rectangle 35" width="11.423" height="1.038" transform="translate(17.231 22.615)" fill="#fff"/>
    </g>
  </g>
</svg>
