<svg xmlns="http://www.w3.org/2000/svg" width="17.964" height="11.981" viewBox="0 0 17.964 11.981">
  <path id="Icon_ionic-ios-arrow-round-forward" data-name="Icon ionic-ios-arrow-round-forward" d="M19.331,11.481a.815.815,0,0,0-.006,1.148l3.794,3.8H8.68a.811.811,0,0,0,0,1.622H23.112l-3.794,3.8A.821.821,0,0,0,19.324,23a.808.808,0,0,0,1.142-.006l5.141-5.179h0a.911.911,0,0,0,.168-.256.774.774,0,0,0,.062-.312.813.813,0,0,0-.231-.568L20.466,11.5A.8.8,0,0,0,19.331,11.481Z" transform="translate(-7.875 -11.252)" fill="#fff"/>
</svg>
