<svg xmlns="http://www.w3.org/2000/svg" width="420.223" height="98.584" viewBox="0 0 420.223 98.584">
  <g id="Layer_2" data-name="Layer 2" style="isolation: isolate">
    <g id="Layer_1" data-name="Layer 1" transform="translate(0 0)">
      <path id="Path_1782" data-name="Path 1782" d="M420.223,39.293a11.76,11.76,0,0,0-2.631-.411,4.68,4.68,0,0,0-1.913.411c-.718.411-4.066.493,0,.657s0,.739,0,.657H409.46s1.913-.411,2.87-.575-2.87-.821-4.066-.657h-2.153a3.118,3.118,0,0,1,.478,1.4,4.231,4.231,0,0,1-2.392,0s0,0,0-.493-1.435,0-1.913,0h0v-.411a13.7,13.7,0,0,1-1.913,0H398.7c-.239,0,0,0,0-.493a7.771,7.771,0,0,0-3.109,0,1.127,1.127,0,0,1,0-.739h-.718c-1.435-1.068,3.109,0,3.588-.493h0v-.411c0-.411,1.2,0,1.674,0s0,0,0-.575,1.674.575,2.87.739-1.674-.493-1.435-.739,1.2,0,1.435,0,0-.657,1.2-.739h.957l1.435-3.86v-.575c0-.082,2.87,0,3.109,0s-3.588-1.56-4.783-1.15,0,0,0,.657v.739c0,.739,1.674.328-1.435.328l-2.392.575h0l-1.2.493c-1.2,0-1.913.657-3.348,0h0V29.6a2.9,2.9,0,0,1,0-1.971h0v-.411h1.2V24.594c0-.246,0-.493-1.674-.9s-2.631.493-4.544.821,0-.493,1.435-.575h2.153c-.506-.14-.8-.352-.8-.575s.294-.435.8-.575H397.5a28.958,28.958,0,0,1-4.783-.493c-1.674-.493,1.674-.821,1.913-1.478s0-.657,0-1.068-3.827-1.15-4.066-1.642a3.085,3.085,0,0,1,0-1.478V4.885H386.5a50.988,50.988,0,0,0,6.219-.246h2.152a2.155,2.155,0,0,1,0,2.135V6.117a.757.757,0,0,0,0,.985v.985h0v.821c0,.246,0,0,1.435.575l-1.2.657c1.913,0,1.913,0,1.913-.821a4.24,4.24,0,0,1,0-1.725,1.8,1.8,0,0,1,0,1.56,1.6,1.6,0,0,0,0,1.478s0,.821,1.435,0a1.15,1.15,0,0,0,0-1.232V5.788a5.212,5.212,0,0,1,0-2.71c-2.306-.082-4.63-.082-6.936,0H361.387a78.018,78.018,0,0,1,10.763,0c3.9-.082,7.817-.082,11.719,0,3.663.082,7.338.082,11,0h3.109c1.674,0,1.674,0,1.913.493a3.355,3.355,0,0,1,0,1.56V7.349h0v.985c0,.164,1.2,0,1.435,0s0,1.478,0,1.807a4.9,4.9,0,0,1,0,2.628,16.746,16.746,0,0,1,0,4.927V15.807c0-.575,0-.411-1.2,0a1.95,1.95,0,0,0,0,1.971c0,.575,1.2.9,1.435,1.4a7.424,7.424,0,0,1,0,2.3V25a.39.39,0,0,0,0-.657h0V2.257c1.2,0,0,1.642,0,2.053V7.1h0V6.2a2.155,2.155,0,0,0,0-1.232V2.586a2.588,2.588,0,0,0,0-1.889h0q-6.811-.126-13.633,0H357.56c-1.752-.04-3.51-.04-5.262,0H334.839a34.486,34.486,0,0,0-5.023,0c-1.906.079-3.834.079-5.74,0h-12.2a128.293,128.293,0,0,0-13.872.493c-4.544.493-10.284,0-15.068,0h-9.806a26.585,26.585,0,0,0-5.74,0c-2.153,0,0,0-1.435.493s-2.87,0-4.066,0a58.742,58.742,0,0,0,7.653,0c0,.657-3.588.493-5.262.493h0s-3.109,0-2.392.493-2.153,0,0,0-2.631-.9-2.631-1.15h0a.246.246,0,0,0,0-.411c0-1.314,0,0-1.435.493V1.108a1.227,1.227,0,0,1,0,.575h0s0,1.807-2.392.821-1.674,0-1.913.739h0a1.421,1.421,0,0,1,0-.985s1.2,0,0-.411a4.318,4.318,0,0,0-2.392,0c-.239,0,0,.657,0,.985s-2.153,0-3.109,0h0a9.742,9.742,0,0,1-3.109-.9c-.239-.082-5.74-.657-5.74.082-4.538-.119-9.1-.119-13.633,0H213.818a9.883,9.883,0,0,0-3.588,0c-1.2.411,0,0-1.674,0-1.826.08-3.675.08-5.5,0-2.306.081-4.63.081-6.936,0L183.2,1.6l-6.218-.328H173.4a31.126,31.126,0,0,0-3.827,0v.821c0,.411,2.87.493,4.544.493h14.35s0-.493-2.392,0,0,0-1.674,0,0-.493,0-.575H176.03V3.078c0,.164,0,0-1.435,0h-4.305c-.478,0,0,0,0-.493s-2.87.9-2.87.821,0,0-1.674,0H142.306L131.783,3H129.63a6.575,6.575,0,0,1-1.913.821,16.484,16.484,0,0,1-2.87,0V3.325c0-.493-1.2.493-1.435.493s0-.575,0-.575,0,.575-1.674.493,0-.821-1.674-.657,0,.739-2.153.493,0-.739,0-.657h0s-3.827.575-4.783.575h-1.913a45.513,45.513,0,0,0,6.7,0h6.458c.718,0-2.631.9-2.392.985s0-.575,0-.821,0,.493-1.435,0,0-.657-2.87-.411H109.3a27.3,27.3,0,0,1-5.74,0s1.674,0,1.2-.493-1.913,0,0,0,0,.575-1.674.575,0-.575,0-.821h-1.435a1.727,1.727,0,0,0,0,.493H98.3c-3.348,0-2.631.9-2.631.411s-3.588,0-3.348.493,0-.493,0,0,0,.739,2.392.821c2.066-.082,4.153-.082,6.218,0l12.676.575c7.175,0,14.589.493,21.765.575,0,0-5.979,0-4.544.575,1.193.041,2.395.041,3.588,0h2.153a25.432,25.432,0,0,1,4.305,0,36.564,36.564,0,0,1-5.262,0H121.02L119.585,6.2c-2.626-.082-5.267-.082-7.893,0h-2.631s-2.631,0-2.392.493,5.74,0,6.458,0l6.458.328H98.777c1.674,0,0,.493,0,.575a29.722,29.722,0,0,1-3.827,0H92.32c1.2,0-3.827-.575-4.544-.411h0a20.678,20.678,0,0,0-3.109,0s0,.985-2.87.657S79.165,7.1,78.209,7.1s0,0,0,.575,0,0-1.674,0v0c0-.493-4.783.246-4.783.246H84.906c.718,0,0,0,0,.493V8.334H81.557a17.189,17.189,0,0,0-2.87,0v.493c0,.493-2.631,0-3.588,0H72.708c-1.906.079-3.834.079-5.74,0,0,0,1.913-.493,0-.575s-1.435,0,0,0h0a9.077,9.077,0,0,1-2.153-.9c-.478-.411-2.153.739-1.913.739h0a27.511,27.511,0,0,1-4.544,0s4.305,0,1.435-.493-1.674,0-2.392,0h0a20.679,20.679,0,0,0-3.109,0s0,.493-1.2.493,0-.493,0-.411,0,.657,1.674.575c1.672.041,3.351.041,5.023,0,3.743-.082,7.5-.082,11.241,0h36.115v.493c0,.493,0,0-1.674-.411h0s-3.588.821-4.305.821H44.247c-.718,0,0,.985,0,1.314v6.405l-1.2-.575c-1.2-.575,0-.657,0-.9v-.985h0a2.939,2.939,0,0,0,0,2.464,7.116,7.116,0,0,1,0,2.217h.239c-1.435,0,0,0,0-.493s-1.435,0,0,0h0s-2.153-1.971-2.153-2.3h0V15.068c0-.821,0-2.217-1.2-1.971h0V12.6a5.582,5.582,0,0,1-1.435-.657H36.593V19.42s-2.392-.575-1.913,0,0-.657-1.435-1.068,0,0-1.435.575h0v.657a.4.4,0,0,1,0,.493,4.184,4.184,0,0,0,0,1.725v2.381a6.467,6.467,0,0,0,0,2.135V23.937a5.677,5.677,0,0,1,0-1.971s0-.821,0-.985H22a1.9,1.9,0,0,1,0-1.15h0v-1.4a3.818,3.818,0,0,1,0-1.642A2.506,2.506,0,0,1,22,14.9s0,1.314,1.2.9,0-1.068-1.435-1.642a1.629,1.629,0,0,1,0-1.478s0-1.4-1.2-.985,0,0,0,.411h0a1.124,1.124,0,0,0,0,1.232v9.526a1.955,1.955,0,0,0,0,1.15v2.874a1.448,1.448,0,0,0,0,.985,1.9,1.9,0,0,1,0,1.15h0V31a7.436,7.436,0,0,0,0,3.2c0,1.725,0,3.367,0,5.091v1.15c0,.328.957.328.957.328v.575c0,.575-4.544,1.889-5.023,1.725s1.435,0,2.153,0,0,.657,0,.9,1.913,0,2.153-.411h1.435v-.657H23.2c0,.493,0,0,1.435,0s0,1.314,0,1.56v.164c0,.328,0,0,1.435.493s0,.9,0,1.232a1.757,1.757,0,0,0,0-1.068c1.674,0,0,0,1.435.493a1.393,1.393,0,0,1,0,.985v3.2c-1.223-.071-2.424-.181-3.588-.328H25.83a8.566,8.566,0,0,1-1.913-.657v.739c0,.739,2.392,0,1.674.657s-2.87.493,0,.657-2.153.493-2.87.821,0,0,0,.9-2.392,0-2.631,0a12.817,12.817,0,0,0,2.87.657c.718,0-1.674.821-3.109,1.15s0,0-1.435,0-1.435,0-1.913-.493H15.068v.657c0-.164,1.674,0,1.674.411s-1.913.493-2.153.657,0,.411,0,.575,0,0-1.435,0H9.567L4.305,57.2H2.87v.657c0,.657-2.153,0-2.87,0a3.164,3.164,0,0,0,1.89.662,7.569,7.569,0,0,0,2.655-.169c1.674-.411,4.305-.657,0-.9S6.7,57.2,5.979,57.2H11a6.516,6.516,0,0,0-2.631.493c-.718.493,2.631.9,4.066.739s2.153-.575,2.153,0-.957-.657-.718-1.232a2.823,2.823,0,0,1,1.2-.22,2.823,2.823,0,0,1,1.2.22v.493c0,.493,1.2-.493,1.674-.493h0s0,.493,1.2,0,0,0,1.913,0a7.487,7.487,0,0,1,1.674,0s0,0,0,.575a7.771,7.771,0,0,0,3.109,0v.739H27.5c1.435,1.068-2.87,0-3.588.493h0v.411H22c-.478,0,0,0,0,.493s-2.631,2.956-3.827,2.874,1.435.493,1.2.657-1.2,0-1.435.493,0,.575-1.2.739a11.381,11.381,0,0,1-2.392,0l1.2.739H13.394v.575c0,.082-2.631,0-3.109,0s3.588,1.642,5.023,1.15,0,0,0-.575a.864.864,0,0,1,0-.821c-.239-.328-.239-.328,1.674-.328l2.392-.493h0v-.493c1.2,0,2.153-.739,3.348,0h0v4.024a2.9,2.9,0,0,1,0,1.971h1.2v.9a.5.5,0,0,0,0,.739v.821c-2.392.739-1.435.739,0,.739a29.668,29.668,0,0,0,4.544-.821c1.913-.328-1.435.821-2.153.821H23.917c.506.14.8.352.8.575s-.294.435-.8.575H21.525a27,27,0,0,1,4.783.493c1.435.493-2.392,1.15-2.392,1.889v1.068c0,.411,4.066,1.15,4.305,1.56s0,1.068,0,1.56V92.917h4.066c-1.314.126-2.594.291-3.827.493H26.309a2.288,2.288,0,0,1,0-2.135v.739a.6.6,0,0,0,0-.985s0-.493,0-.575v-.411h0a.669.669,0,0,0,0-.9s0,0,0-.493V87.99s-1.913,0-2.153.739a4.724,4.724,0,0,0-.239,1.314,1.117,1.117,0,0,1,0-1.642,1.46,1.46,0,0,0,0-1.4s0-.821-1.435,0a1.15,1.15,0,0,0,0,1.232V91.85a5.211,5.211,0,0,1,0,2.71c2.226.082,4.471.082,6.7,0H59.314a77.31,77.31,0,0,1-10.763,0H25.83a19.267,19.267,0,0,1-3.109,0H20.808c-.478,0,0-1.4,0-1.56h0V90.372c0,1.15,1.2,0,1.2,0v-.9c0-.082,0,0-1.435,0a2.363,2.363,0,0,1,0-1.807V82h0a1.809,1.809,0,0,0,0-1.889,5.926,5.926,0,0,0-1.435-1.4v-2.3c0-.739,0-3.449-1.2-3.531s-.239.739-.239.739h0V95.545c-1.435,0,0-1.725,0-2.135V90.618c0-.985-1.2-.739-1.2,0h0v4.27a2.588,2.588,0,0,0,0,1.889h45.2c1.752.039,3.51.039,5.262,0H90.646c1.784.447,3.463.941,5.023,1.478h12.2l13.872-.411c5.1-.123,10.211-.123,15.307,0,1.033.041,2.076.041,3.109,0h5.979c.478,0,0,0,0-.493a40.751,40.751,0,0,1,5.5,0c0,.411-3.109,0-4.544.411a40.751,40.751,0,0,0,5.5,0c2.153,0,0,0,1.435-.493s3.109,0,4.066,0c-2.459-.121-4.955-.121-7.414,0,0-.657,3.348,0,5.023-.493s0,0,0,.493,3.109,0,2.392-.493,2.392,0,0,0,2.87.821,2.631,1.15h0v.493c0,.493,0,0,1.435-.493v-.082h0s0-1.889,2.153-.821a6.311,6.311,0,0,0,1.913-.739c.239-.328,0,0,0,.411h0a1.537,1.537,0,0,1,0,1.068h2.392c.239,0,0-.657,0-.9s2.153,0,3.348,0h0a7.979,7.979,0,0,1,3.109.9c.239.164,3.109.985,2.392,0q6.843-.083,13.633-.411h5.5c1.353-.04,2.713-.04,4.066,0H213.1c2.306-.081,4.63-.081,6.936,0l13.154.657h9.567a31.121,31.121,0,0,0,3.827,0c.7-.253.7-.65,0-.9,0-.575-3.109-.411-4.783-.493-2.23.045-4.466.045-6.7,0h-5.74c-1.435,0-5.979,0-6.936-.411s3.827,0,3.348,0h8.849c1.2,0,0,.493,2.631,0s0,0,1.435,0,0,.411,0,.575h4.544v-1.15c0-.246,0,0,1.2,0h4.305c.239,0,0,0,0,.411s2.153,0,2.87,0,0,0,1.674.411,3.588,0,5.023,0a49.214,49.214,0,0,0,5.023,0,28.215,28.215,0,0,0,4.544,0v-.493c0-.493-4.066,0-5.023,0h4.305c3.184.082,6.382.082,9.567,0h12.437v.411s0-.739,1.913-.9a14.4,14.4,0,0,1,2.631,0v.575c0,.164,0-.575,1.435-.493s0,.575,0,.575,0-.657,1.674-.493,0,.821,1.674.657,0-.739,2.153-.493,0,.657,0,.657v-.411h0v.411h0v.082c0,.493,3.827-.657,4.783-.575s4.305,0,1.913,0a57.422,57.422,0,0,0-6.7-.493H294.18l2.631-.9V95.3c0,.164,0-.411,1.2,0s1.435.657,2.87,0h10.045a27.3,27.3,0,0,1,5.74,0s-1.913,0-1.435.575,1.913,0,0,0,0-.657,1.913-.575,0,.493,0,.821h4.783c3.348,0,2.153-.493,2.153,0s3.348-.493,3.109-.493h0c0-.821,0-.739-2.392-.821h-5.979q-6.407-.408-12.915-.575c-7.175,0-14.35-.493-21.765-.575,0,0,5.979,0,4.544-.575h-4.066a25.432,25.432,0,0,1-4.305,0H308.53c1.2,0,2.631,0,2.631-.575s-5.979,0-6.7,0h16.024c-.478,0,0-.411,1.2-.575a29.687,29.687,0,0,1,3.827,0c.957,0,4.066,0,2.87-.411a8.889,8.889,0,0,0,2.152.411c.957-.082,0-.411,0-.493v.411a20.677,20.677,0,0,0,3.109,0s0-1.068,2.631-.657,0,.657,1.913.575,0,0,0-.575h1.674v0c0,.411,2.631-.575,2.87-.657q3.346.065,6.7,0H327.664c-.478,0,0,0,0-.493v.082h3.109a19.972,19.972,0,0,0,3.109,0l1.2-.493h5.979a41.449,41.449,0,0,1,5.5,0s-1.674.493,0,.575,1.674,0,0,0h0a12.252,12.252,0,0,1,1.913.821l2.153-.657h2.87a10.9,10.9,0,0,0,2.392,0h3.348c.957,0,0-.411,0-.411l1.2.411c0-.739,0-.657-1.435-.657H306.377V89.3c0-.411,0,0,1.913,0h1.2c1.2,0,3.348-.739,4.066-.739.953-.041,1.917-.041,2.87,0H360.43V86.512a6.411,6.411,0,0,1,0-2.135,9.186,9.186,0,0,1,0-3.613v.575a1.393,1.393,0,0,1,0,.985v1.4h0a4.11,4.11,0,0,0,0-2.381v-2.3h-.239c1.435,0,0,0-1.2.575s1.435,0,1.435,0H359c-1.435,0,2.152,2.053,2.152,2.381v.411a2.9,2.9,0,0,0,0-1.971c1.435.575,0,2.381,0,3.121s0,2.217,1.2,2.053h0V86.1l1.674.575h.717V79.2s2.631.493,1.913,0,0,.739,1.435,1.068,1.435,0,1.435-.493h0V78.711a4.184,4.184,0,0,0,0-1.725V74.6a3.293,3.293,0,0,0,0-2.135v2.381a5.481,5.481,0,0,1,0,1.971v.985h0a2.039,2.039,0,0,1,0,1.15v.9a4.184,4.184,0,0,1,0,1.725v1.889c0,.493,0-1.4-1.2-.9s0,1.068,1.435,1.642a1.46,1.46,0,0,1,0,1.4s0,1.4,1.2,1.068h0a2.154,2.154,0,0,0,0-1.232V74.194a5.72,5.72,0,0,1,0-2.874V66.886a7.268,7.268,0,0,0,0-3.2V56.292a18.128,18.128,0,0,1,4.783-1.807h-2.153c-.718,0,0-.657,0-.821s-1.674,0-1.913,0H370a1.459,1.459,0,0,1,0,.739h-2.392a.946.946,0,0,1,0-1.478v1.314a1.274,1.274,0,0,0,0-1.56c0-.739,0,0-1.435-.411s0-.9,0-1.232a1.455,1.455,0,0,0,0,1.068c-1.435,0,0,0-1.435-.575V47.587q1.6.3,3.109.657h1.913c.717,0,0,0,0-.657s-2.153,0-1.674-.739,2.87,0,0-.657,2.153,0,2.87-.739,0,0,0-.9,2.392,0,2.631,0a10.1,10.1,0,0,0-2.87-.575c-.718.082,1.674-.821,3.348-1.15h0s1.435,0,1.913.493l1.435.411h0v-.657c0,.246-1.674,0-1.674,0s1.913-.493,2.392-.657,0-.493,0-.657h6.219c1.2,0,0,0,0-.493s1.2,0,1.435,0,0,0,0-.575,2.153,0,2.87,0ZM396.306,25.661Zm0-21.68V5.788a.946.946,0,0,1,0,1.478c0-.657,0-1.314,0-2.053a.645.645,0,0,0,0-.9h0Zm-276.72-1.56Zm-18.416,1.56Zm10.763,0h0s.478.411,0,.411Zm7.653-1.642Zm0,1.478V3.735a.607.607,0,0,1,0,.657V3.407C119.585,3.325,120.781,3.571,119.585,3.818Zm0,0h0l1.913.328ZM83.231,7.924ZM59.314,10.387Zm17.22,0Zm11.719-.9h0a.828.828,0,0,1,0,.739V9.484Zm2.153,0h0s0-.493-.239-.411Zm3.588.411h0s.239-.493-.239-.411Zm0,0h0v-.9c0-.164,1.913,0,1.435.575S93.037,9.073,92.8,9.4Zm2.153,0h0l-.478-.411Zm1.913,0c-.359-.172-.359-.4,0-.575a3.6,3.6,0,0,1-1.2.246ZM12.676,58.181h-1.2S12.915,58.017,12.676,58.181ZM23.917,72.223Zm0,21.68a4.831,4.831,0,0,0,0-1.807,1.274,1.274,0,0,1,0-1.56v2.956h0Zm276.959,1.56Zm17.938-1.642Zm-10.763-.411h0a.818.818,0,0,0,.478,0Zm-7.893,2.135h0s.717.164.478,0Zm0-1.56v-.657a.89.89,0,0,0,0,.821V94.4s-.478-.164-.239-.411Zm0,0s-1.2-.246-.957-.246Zm37.071-3.942Zm23.917-2.464Zm-17.22,0Zm-11.48.9h0a.828.828,0,0,0,0-.739s1.435,1.068,0,1.068,0-.821,0-1.15Zm-2.392,0h0s0,.411.239.328Zm-3.588,0h0s-.239-.082.239-.082Zm0,0h0v.985c0,.164-1.913,0-1.435-.575s2.392-.082,2.631-.411Zm-2.153,0h0l1.2-.082Zm-1.674,0v.575c-.177-.313.327-.625,1.2-.739Zm71.751-61.672Zm.239,13.96Zm0-15.274s1.435.493,0,.575a.291.291,0,0,0,0-.411l-.957-.411Zm0-2.628v0c0-.164-.957-.657-.957-.246Zm0-4.27ZM393.2,25.743c-.3-.178-.3-.4,0-.575,0,0-.718.082-1.913.328Zm0,1.232h0s-1.674-.411-1.674-.246ZM390.326,25v-.657H392Zm0,.985v-.821c0-.821-1.435.164-2.392.575Zm0,1.4ZM387.7,23.773h0s-1.435-.246-1.913-.246Zm0,11.743h0l-1.674-.246Zm0-17a22.337,22.337,0,0,1,4.066-2.217c.957-.164,0,.411,0,.657s1.2,0,1.674,0a.757.757,0,0,1,0,.985c-1.435,0-1.2-.657-2.631-.493s-3.827.985-4.783.821Zm0,13.3Zm-.239-15.685v-.9A.948.948,0,0,1,387.456,16.135Zm0,0Zm1.674,5.091c-.257.181-.257.393,0,.575-1.435,0,0-.657,0-1.068a4.255,4.255,0,0,0,.957.246Zm0,2.628v-.493c0-.493.478,0,.239.246Zm0-1.232h0s-.239-.164,0-.246Zm0-4.27Zm0,1.15h0s.478-.328.478-.246Zm0,1.232h1.435c1.435,0-.239-.328-.957-.246ZM387.7,19.256h0s0-.411.478-.246Zm0,1.314v.411c0,.411-1.435-.328-.239-.657Zm0,1.807Zm1.674-1.232a4.735,4.735,0,0,1,1.2,0s0-.246-.478-.246Zm0,1.889Zm0-7.227a.518.518,0,0,1,0,.575c0-.575,0-.575,0-1.068s2.392.082,2.153.246Zm0-6.241h0a7.4,7.4,0,0,0,1.674-.246Zm0,.657a1.693,1.693,0,0,0,0,2.3v2.71a8.09,8.09,0,0,1-2.153,0c-1.435,0,0-.575,0-.9s-1.2,0-2.152,0a.8.8,0,0,1,0-.739c0-.411,0,0,1.435-.493s1.913-.657,1.2-.739l-2.392.575V9.812h0a.607.607,0,0,1,0-.657s0,.575,0,.739,5.023-.246,4.783.082Zm-1.2-2.3Zm0,0V6.938a2.506,2.506,0,0,0,0,1.889c-.145-.322.116-.651.717-.9Zm2.153-3.449h0s.717.164.717,0Zm-21.047,0Zm-8.371.575h3.348a17.107,17.107,0,0,0,3.348,0,37.384,37.384,0,0,1,4.305,0h-.239a48.294,48.294,0,0,1,6.936,0,44.808,44.808,0,0,1,6.7,0s-2.631-.411-2.631-.082,1.435,0,1.674,0,3.109-.575,3.588-.575h2.152a14.314,14.314,0,0,1-2.392.657,22.871,22.871,0,0,1-2.392,0c-2.865.082-5.745.082-8.61,0H354.451c-1.2,0,4.305-.493,4.305-.9v.739c0,.082,3.109-.657,2.87-.164Zm21.765,2.874Zm0-1.807h0v0Zm0,5.5v0Zm0,2.628Zm0,56.334Zm0-55.185c1.674,0,1.435.493,0,.575Zm0-.9h0s1.913-.246,1.435-.164Zm0-2.464h0s0-.411,1.435-.493Zm0-.821h0a6.573,6.573,0,0,1,1.674-.657s.718.328.239.493Zm0-5.091Zm0,2.628v.9a12.8,12.8,0,0,1,2.87-1.068Zm0,0h0s1.913-.821,2.392-.411Zm0,3.038Zm0,1.15v.657s2.87-.9,3.348-1.068Zm0,1.232v.328s2.87-.493,3.588-.739Zm0,60.687Zm-3.588-3.778Zm0,2.956Zm0,.657h0a8.374,8.374,0,0,0-1.435,0Zm0,0Zm0,1.068c1.2,0,1.674,0,1.674.411Zm1.674,0h0ZM373.824,8.088h0s-1.913-.164-1.674.246Zm0,0h0s-1.913-.164-1.674-.164Zm-4.544-.164Zm0,0Zm-6.7,0h0s0,.411-1.435,0Zm0-.575Zm0-.985v0Zm-2.631,0h0l.478.246Zm-1.2,1.56Zm-1.435-1.4Zm-12.437,1.4h1.2c.718,0,0,.575,1.435.493a7.21,7.21,0,0,1-2.631,0S346.08,7.924,344.884,7.924ZM343.21,6.856h-1.674C341.057,5.788,348.471,6.692,343.21,6.856Zm0,1.642h0s-.478-.164.239,0Zm0-.739Zm0-3.285Zm3.109,0c0,.411,2.152,0,3.109,0s0,.821-2.392.9-2.87-.411-1.2-.985Zm0,0h0l-.957-.246Zm1.2,2.546h0a7.366,7.366,0,0,0,2.153,0Zm0-3.285h12.676a31.7,31.7,0,0,1-4.783,0Zm-8.371,3.449a5.635,5.635,0,0,1,2.392-.657s-2.153.246-2.87.411Zm1.913,1.478h0s-1.2-.739-.478-.246ZM354.69,2.75ZM352.3,4.31h0s-.717-.246-.478-.246Zm0,4.188Zm0-3.038s1.435-.9,1.674-1.068a.89.89,0,0,0,0,.821l1.674-.739a5.652,5.652,0,0,1-3.348.739Zm2.153,2.546Zm10.284-5.174Zm20.09,0h0Zm4.066,0h0s.478-.493,0-.493ZM393.675,2.832Zm7.414,1.232h0s.239-.575,0-.493ZM369.518.779Zm-13.633,0h0v0ZM351.581.533Zm-6.219,0h0Zm-5.979,0h0Zm-6.936,0h4.783a15.9,15.9,0,0,1-5.262,0Zm0,.657h31.331c3.348,0,8.371.411,7.414,0h7.414c.478,0,2.392-.493,3.588-.575,1.832-.041,3.669-.041,5.5,0h.717c-2.705.082-5.426.082-8.132,0h-11a92.88,92.88,0,0,0-9.567,0c-2.945.082-5.9.082-8.849,0H340.818c-2.153,0-7.175.411-9.089,0Zm-1.2,1.232h3.588a22.756,22.756,0,0,0,3.348,0h-3.348s-4.783.411-3.588,0Zm2.153,2.3a42.262,42.262,0,0,1,4.544,0,29.237,29.237,0,0,1-4.783.411c-1.435,0-4.066-.493-5.262,0s1.435-.411,2.153,0h0S332.686,4.721,333.4,4.721Zm3.588,3.531h0s-.478-.328,0-.328ZM334.839,7.02Zm-3.827-.493s1.913.575,0,.493S331.251,6.692,331.012,6.527Zm0,.493Zm0,.985h-1.435a3.1,3.1,0,0,1,.478-.082Zm-9.567-2.792V4.721c0-.493,1.913,0,2.87,0h0s0,.575-2.153.575Zm0-2.217h1.435c1.435,0-1.674.082-2.392,0Zm5.979,0h0s-.957.493-.957.411Zm-2.152-.082h6.218C329.421,2.97,327.342,2.97,325.272,2.914Zm3.109,0Zm2.152-1.725c-2.785.082-5.586.082-8.371,0h2.153c1.746-.082,3.516-.082,5.262,0h1.2c1.2,0,.239.328-.239.328ZM316.423,4.639a11.506,11.506,0,0,1,2.87,0s0,.657-2.631.493h0Zm0-1.889h2.87a30.357,30.357,0,0,1-3.588.328Zm0,5.5h0s-.718.164-.239.328ZM331.012.04h0s-.717.575-.239.575Zm-15.546,0h1.913s-3.348,1.068-2.152.657ZM313.553,2.5Zm-2.631,2.874h0Zm0,1.971Zm0-5.831h0s1.435.328,1.2,0ZM309.248.779c1.435.493,3.348,0,5.023,0-1.193.039-2.394.039-3.587,0h-1.435Zm1.674.9Zm-2.392,3.86h1.913C312.357,5.542,309.248,5.624,308.53,5.542ZM308.53,7.513Zm0-4.517Zm-2.392-1.971Zm0,1.971h0s-.478.164-.239,0Zm0,.9Zm-1.2-1.725Zm0,3.285Zm-2.392-4.352Zm-1.674,2.956ZM299.92,1.19h1.2C299.92,1.518,299.681,1.19,299.92,1.19Zm0,.985h-2.631a5.655,5.655,0,0,1,1.674,0Zm0,1.725h0s-.957-.164-.718,0Zm0-2.874h0c0-.493-1.674.164-1.435,0Zm-2.153,0Zm-1.913,0h0a12.586,12.586,0,0,1-1.435.164Zm-2.392,3.121V3.735h3.588v.493c0,.082,0,0-1.674,0h-4.544c-1.435,0,.239.164,1.2.082Zm0-.493Zm-1.674,0Zm0-1.478h0c-4.783.246-3.348,0-3.348,0Zm0,.493Zm0,1.478h-2.153V3.489c0-.164-2.631.164-2.631.657ZM289.4,3.653h0Zm0-.985h1.913c.478,0-5.979.164-6.7,0Zm-1.2,0h0Zm0,1.807Zm0-.411Zm-3.588.493c.413.069.675.212.675.37s-.262.3-.675.37a8.394,8.394,0,0,1-3.026-.119c-.879-.218-1.364-.578-1.279-.949Zm0-1.478h0Zm0,1.56h0a6.161,6.161,0,0,0,1.2,0h-1.2Zm-2.392-2.217Zm-2.392,0h0Zm-4.066,1.314Zm0-.575h0s.478-.164-.478-.246Zm0,.575Zm0,.739Zm0-.575h1.913c1.913,0-.239-.246-.957-.246Zm0,.657c.849.165,1.322.489,1.2.821a8.683,8.683,0,0,1,.717-1.068Zm0-1.4h1.674c.478,0,.957-.246,0-.246Zm0,0h0Zm0-1.314h0s2.631-.575,3.109-.657Zm0,.821Zm0-.821C277.2,1.847,275.764,2.257,275.764,1.847Zm0,.821h1.913c0,.493-7.175.657-7.414,0Zm-3.348,1.4h0s0-.739,0-.657Zm0-.821Zm0,1.725v.739c-.917-.412-.917-.984,0-1.4Zm-1.913,0Zm0-1.314h-1.674c-.478,0,.239-.493,1.2-.328Zm-2.631.821ZM265,3h1.913C267.153,3.9,263.088,4.146,265,3Zm0,.821h-1.913a9.175,9.175,0,0,1,2.152,0Zm0,.821Zm-6.936-2.874c1.2.493,0,.493,0,.985S256.869,2.257,258.065,1.765Zm-1.674,2.874Zm0-1.971h0s-.478-.082-.478,0Zm-2.87,3.038Zm-4.305-2.628Zm-7.893,2.628ZM236.3,2.421h0Zm-12.2.493h16.264c0,.985-1.913,0-2.87,0h-9.089A37.646,37.646,0,0,1,224.1,2.914Zm16.264,2.135h0C239.171,4.228,239.171,5.3,240.366,5.049Zm-1.2.164Zm0,.657Zm0-.9h0a11.392,11.392,0,0,1-1.674,0Zm0,0h0Zm-9.328.821ZM227.451,4.8Zm-16.024.657Zm-2.153,0ZM207.6,6.2h0Zm-2.631,0h0s-.718-.082,0-.164Zm-5.023-2.956Zm-2.631,1.889h0a5.147,5.147,0,0,1-2.153,0Zm-5.979.493c0-.493,1.674,0,0,0Zm0,0h0v0Zm-9.806-1.56Zm-5.5,0c0-.411,1.435,0,2.392,0H176.03Zm-2.153.985h1.2C176.269,5.049,173.4,5.214,173.877,5.049Zm0-.9Zm-2.153.575h1.435C172.92,4.721,171.724,4.967,171.724,4.721Zm0,5.995Zm-2.631-3.942Zm0-.821-1.674-.246S169.333,5.46,169.094,5.953Zm-1.674,1.971Zm0-2.135Zm0,1.232Zm-6.7-2.546h6.7c1.435,0,0,0,0,.575V4.885h-3.827S160.483,4.8,160.723,4.474ZM164.071,7.1h0C167.419,6.692,165.028,7.924,164.071,7.1Zm0,.821Zm0-2.464h1.674A11.393,11.393,0,0,1,164.071,5.46ZM162.636,7.1Zm0-1.314Zm0,0h0l-.957-.246Zm0,1.4h0s-2.392-.164-1.913-.246Zm0-3.613h0a18.073,18.073,0,0,1-2.392-.246Zm0,.985h0s-3.109-.246-3.348-.246Zm-5.262,0h3.348a9.406,9.406,0,0,1-2.631,0h0s-4.305-.411-4.066-.411Zm-1.913,0h0s-2.631-.821-3.348-.493Zm-4.783-.411Zm-22-1.478Zm-5.74,2.053Zm0,0Zm0-.575H121.02c-.239,0,0-.739,1.435-.9s2.392.575,1.913.9Zm0,.493h0a.57.57,0,0,1,0-.575Zm8.132,0H126.76V4.146h6.7c.717,0,.478.328-.239.411Zm3.827.575h0c1.435,0,3.109-.082,2.153-.082Zm3.348,0h-2.392c-.478,0,0,0,0-.493s-1.435,0,0,0-1.435.575-1.913.739,0-.739,0,0v-.9c1.193-.038,2.394-.038,3.588,0h8.849c2.87,0-2.392.9-2.392,0L143.5,4.8h-1.674c-1.674,0-.478.328-1.435.328ZM137.284,7.924Zm-2.87,0Zm-5.979,0a12.883,12.883,0,0,1,3.109,0s0,.411-2.392,0S128.2,7.924,128.435,7.924Zm0,0h0Zm0,.575h0L127,7.924Zm-3.109-.575h0C125.325,7.349,124.847,7.924,125.325,7.924Zm-2.153,0Zm-3.588,0h0Zm0,0Zm-2.153,0Zm2.153.9h2.392s-4.544.493-4.783,0S119.585,8.827,119.585,8.827Zm5.262.821h9.567c-3.8.218-7.632.355-11.48.411a53.3,53.3,0,0,1-6.218,0h0V9.566C118.15,9.4,121.738,9.73,124.847,9.648Zm-10.524-.657h0Zm0,.575Zm0,0Zm-2.392-1.232h0a.4.4,0,0,1,0-.493Zm-1.674,0v.493a1.815,1.815,0,0,1,0-.575Zm0,1.15h3.827c0,.575,0,.575-1.674.657a11.611,11.611,0,0,1-2.392,0v.082h-1.435Zm-5.5.493ZM98.538,7.184Zm0,1.478c0-.493,3.348-.411,5.023-.411h3.348c-.478,0-7.175,1.068-8.61.411Zm5.023,1.56Zm0,0h-1.674c-1.674,0,0,0,0-.493h2.631Zm-59.075,9.69v0Zm0-1.4v0Zm331.73,59.455h0v-.821a1,1,0,0,1,0,.821Zm0,1.4v0ZM44.486,12.6v.411S44.007,12.769,44.486,12.6Zm0,76.782Zm0,1.971H46.4c0,.657-1.913.575-3.348.575ZM42.812,22.869Zm0,0h0s.478.246.239.328Zm0-1.314s-1.435,0-1.674-.411Zm-1.674,0h0Zm0,4.845Zm0-2.874Zm0-3.2a1.69,1.69,0,0,1,1.2-1.889c1.2-.411,0,1.068,0,.985a4.607,4.607,0,0,0,0,1.807h0c-.7-.079-1.116-.327-.957-.575Zm0,2.135Zm0,4.681ZM41.137,89.386Zm0-68.734Zm0,1.068h0s-4.305.328-3.109.328Zm0,.657Zm0,1.642h0a30.751,30.751,0,0,0-3.109.328Zm0,2.053h0s-3.827.328-3.348.328Zm-2.87,58.8v-.575a23.948,23.948,0,0,0-3.348.9Zm0-1.15v-.739s-3.109.9-4.066,1.068Zm0,2.3Zm0,5.584Zm0-2.628V87.99A13.647,13.647,0,0,1,34.919,89.3Zm0,0h0s-2.392,1.068-2.87.575Zm0-2.381h0a2.5,2.5,0,0,1,1.674-.657Zm1.674-3.367Zm0-1.232v0Zm0,.9h0a35.31,35.31,0,0,1-3.588.575Zm0,2.546h0l-1.435.493Zm0,5.913Zm0-1.807Zm0-3.778h0l-2.87.575Zm0-58.88ZM36.593,36.912Zm0,37.611h0s-.478.082.239,0Zm-.478-41.963Zm0,46.808v.821a.936.936,0,0,1,0,.739c0,.411,0,1.314-1.674.657h0s2.392-1.314,1.674-1.889l-1.2.657c0-.575,1.674-.821,1.2-1.232s1.2.493.957.575Zm-5.023,2.464h0v-.657c0-.164-1.435,0-1.913,0a.757.757,0,0,1,0-.985c1.2,0,1.435.493,2.153.575s1.674-.739,2.87-.9,0,0,0,.657a16.883,16.883,0,0,1-3.109,1.314Zm2.153.493v.493s-.478-.575,0-.985Zm0,0h0s-1.435-.493-1.2-.493Zm-2.392-5.009h-1.2c-1.2,0-.478-.246,0-.328Zm0-1.971Zm2.153-1.889v.164H31.331Zm0-1.068v.9c0,.411-1.2-.821-.239-1.232Zm0-1.314Zm0,6.816V77.4c0-.493,1.2-.164.239.164Zm0,1.232Zm-1.435-3.038h0s.718-.411.478-.328Zm-1.435,1.068a.6.6,0,0,0,0-.575c1.674,0,1.2.739,0,1.068-.147-.285.024-.578.478-.821Zm0-2.628V75.1c0,.575.718-.657.957-.9Zm0,1.314h0s1.435-.411,1.2-.328Zm0,2.956Zm0-1.068H28.461c-1.674,0,1.674-.246,2.631-.328Zm0,2.3Zm3.588-5.42h0a1.985,1.985,0,0,1,.957-.328Zm0-11.661h0l.718-.328Zm0,3.7Zm0-18.641h0a15.023,15.023,0,0,1,1.913-.328Zm0-19.462v.821c0,.164.957-1.15,1.2-1.15Zm0-.575Zm0,1.478V30.1c-.793-.113-1.167-.426-.837-.7a3.166,3.166,0,0,1,2.033-.287Zm0-9.2h0v-1.15a2.182,2.182,0,0,1,0,1.232h0a6.874,6.874,0,0,0,1.2-.411Zm0,1.642h0s1.435-.493,1.2-.328Zm0,0Zm0-1.478Zm0,1.807h0a6.215,6.215,0,0,1,1.2-.164Zm0,4.106v-.657a.971.971,0,0,1,0,.821s.957-.246,1.2-.328Zm0,35.558v.493c0,.493.239-.739.957-.657Zm-1.674,1.4h0s1.435-.082.957-.164Zm-3.588,2.135V63.354c2.392,0,0,.493,1.913.657s1.2,0,1.435.575-.957.821-1.2.821h0v.411h0s0,.739-1.913.493A1.15,1.15,0,0,0,28.461,65.407Zm1.2-17Zm0,0Zm0,1.232h-1.2l1.674-.657Zm0,.821h0v0Zm0,12.893h0s.239-.739,0-.493Zm0-13.221Zm2.392-1.15h0l-1.435.493h0v-.985Zm0-5.666h0s-.478-.164-.239-.164Zm0,0h0a4.56,4.56,0,0,0-.718-.411Zm0,1.478Zm-2.631-6.652h1.435s-.957-.493-1.2-.411Zm0,3.449-1.674-.821h0v-.985h-1.2l1.435.575h0Zm-2.392-.821Zm0-13.96s1.674-.493,0-.575a4.231,4.231,0,0,1,2.392,0V27.55c0,.246-1.2,0-1.674,0s0,.411,0,.493-.718-1.232-.239-1.15Zm2.392-5.174c0-.411,0-.575-1.435-.821H29.9V22.13s.478-.082,0-.411Zm0-1.642ZM27.265,36.419v-.246c0-.082,0,.082.239.164Zm0-8.212H28.7a2.957,2.957,0,0,1,1.116.11c.292.1.413.245.319.383,0,.575-2.153,0-2.631,0s-.478-.328-.478-.411Zm0,5.995Zm0,2.956Zm1.674-4.6h0a.9.9,0,0,1,0-1.068h0Zm1.913,0h0l-1.435-.493Zm-2.392.493v0Zm0,5.42h0c-2.392-.411-.478-.246-.957,0Zm0,0c1.674,0,0,.411,0,0a1.658,1.658,0,0,0-.957.411Zm0-.9Zm3.109-3.285v.493c0,.493-1.435,0-1.913-.575s.718.657,1.435.493ZM31.571,33.709ZM33.723,28.7h0s-2.153.411-1.435.411Zm0,.985v.739c0,.164-1.674-.082-1.674-.328Zm0,5.091Zm0,1.56h0s-2.153.164-1.435.411Zm-1.674-1.15h0s-3.109,0,0-.493-1.674.821-1.435.9Zm-1.674.739Zm1.674,1.725Zm0,3.2Zm0-2.135Zm0-.657h0Zm.478-13.714Zm0,0Zm0,0h0s.239-.985-.239-.821Zm0-1.15h0s0-.739-.478-.821Zm0,0Zm0-.821Zm0-2.135Zm0,18.395h0s-.239-.9.239-1.068Zm0,1.725h0s-.718-1.15,0-1.068Zm.239,25.047Zm0-3.285h0c1.2-.575-.478-.328-.478-.328Zm0-10.183h0a3.044,3.044,0,0,1-1.674,0l.718-.328Zm-1.435-4.681ZM29.179,67.3c0-.411,1.2,0,1.2,0S28.7,67.46,29.179,67.3Zm1.2.575Zm0,0h3.109s-3.348.411-2.87.328ZM34.2,57.2h-.718c-.309-.094-.486-.228-.486-.37s.177-.276.486-.37Zm-2.153-44.18s0,1.068,1.674,0,0,.411,0,.493V14C31.092,14.411,32.049,13.426,32.049,13.015Zm0,1.725Zm0,0h0v.575c0,.082-.239,0,0-.246Zm0,1.068h0a.574.574,0,0,1,0,.985v1.725c0-.246-.239-1.807-.239-2.381Zm0,8.212Zm0,9.772c0-1.068-2.87,0-3.109,0s0-1.56,2.153-1.15.478,1.15.718,1.56Zm0-2.464v.411c0,.411-1.674.246-.957,0Zm0-2.792v2.628c-.257-.181-.257-.393,0-.575-1.674,0-1.913.657-2.631,0a5.988,5.988,0,0,1,0-2.053,2.379,2.379,0,0,0,1.2.411ZM27.5,19.5v-.575l2.87.411h0v.493H27.5a.278.278,0,0,1,0-.328Zm0,4.681V22.869a5.481,5.481,0,0,0,0-1.971c1.674,0,1.913.821,2.631,1.232s0,0,0,.821v1.232h0v.657c0,.246-1.435.657-2.631.493h0v-.575c0-.575-1.913-.411-.957-.411Zm0,16.424v.657s-2.153-.493-1.913-.493ZM23.917,26.975c1.2,0,0,.821,0,1.15ZM22,20.406h0s-.239.164.239,0Zm0,2.3Zm0,.657h0s-.478.082-.239,0Zm0,2.053h0c-.256-.152-.256-.34,0-.493.48.1.68.31.478.493Zm0-1.56s.478.493,0,.493-.478,0,0-.493Zm0,2.053h0a.268.268,0,0,1,0,.411c.239.9-.239,0-.239-.411Zm0,1.232Zm0,15.439ZM22,31.41V29.521a2.182,2.182,0,0,0,0,1.232s1.913,1.068.239.657Zm0,1.642c1.913-.493-.478-.493,1.913-1.4a2.192,2.192,0,0,1,0,.9c0,.821,0,0-1.435.493Zm1.913,1.725h0v0Zm0,.985Zm0,.411h-1.2C21.525,36.173,23.917,36.008,23.917,36.173Zm0-2.217Zm0,8.212h0a.232.232,0,0,1,0,.164Zm0-4.927Zm0-6.405a2.282,2.282,0,0,1,0-1.807c0-.575,0-.739,1.2-.9a7.963,7.963,0,0,1,0,2.381s0,1.314-1.2.493Zm0,1.725Zm0,0Zm0,12.729V41.839c0-1.15,0,1.642,1.2,2.053a2.858,2.858,0,0,0,0,1.4Zm1.2-3.449h0v-.493c0-.493,0,0,1.2.575h2.87s-4.544,0-4.066.493,1.2,0,1.674,0H23.678c0,.493,3.109-.411,2.87-.575Zm0,2.956h-.239a3.833,3.833,0,0,0,2.87,0Zm0,0h0s2.392-.082,2.631-.411Zm0-.739h2.153c.718,0,.718.164,1.2-.411Zm2.153.575h0s3.109-.411,3.348-.411Zm0,0Zm-3.588,0Zm0,2.874V46.438h4.783a14,14,0,0,0-2.392.739h0s.957-.328,1.674-.493ZM22,53.911v-.493c0-.493,4.783-.411,4.066-.328Zm0-2.135h0s0,.575-1.913.493,6.458-1.314,6.936-1.314Zm0,2.3ZM23.917,52.6Zm0,.821h0Zm0-1.232ZM21.765,57.2H19.612a6.454,6.454,0,0,1,1.674-.739h2.631a.882.882,0,0,0,0,.739Zm2.153,1.4Zm0-1.478V56.046c0-.082,3.348,1.15,1.674,1.15Zm0,0Zm0,13.878Zm1.435,1.4s-1.435,0,0-.493h0Zm0,2.628a.519.519,0,0,1,0-.739,1,1,0,0,1,0,.821s1.435.575,1.674.082Zm0,4.27Zm0-9.28H27.5V68.939c0-.328,0-2.464,1.435-1.4h0s3.588,0,3.827.821,0,.493,0,.657H30.853v-.575c0-.575-1.913,0-3.588.493s2.392,1.4,1.435,1.232Zm1.2.985Zm0,1.15V72.8c0,.657,1.435-.164,2.631-.493Zm0,10.019v0Zm0,6.241h0s3.109-.082,2.87.164Zm0-.739v-4.27a.8.8,0,0,1,0-.739H28.7c1.674,0,0,.657,0,.985s1.435,0,2.392,0a.659.659,0,0,1,0,.657c0,.493,0,0-1.435.575s-1.913.575-1.2.657l2.631-.575v3.2h0a.48.48,0,0,1,0,.657V87.99c0-.246-.957.164-.718-.164Zm1.913,2.053h0l3.827.328Zm0,0s0,.657-1.2.985a2.639,2.639,0,0,0,1.2-1.889,6.336,6.336,0,0,1,2.685.279c.664.263.829.633.424.952Zm-2.153,3.367Zm21.047,0Zm8.371-.657H52.618a22.053,22.053,0,0,0-3.348,0,25.433,25.433,0,0,1-4.305,0H49.03a48.294,48.294,0,0,1-6.936,0,61.659,61.659,0,0,1-6.7,0s2.631,0,3.109-.575-1.435,0-1.674,0-3.109.575-3.588.575H30.135l2.392-.657H60.271c1.826-.083,3.675-.083,5.5,0a14.379,14.379,0,0,0-4.544.985c-.957.411,0-.657,0-.739s-2.392,1.56-2.392,1.068Zm-7.893-2.874Zm0,0Zm2.87,0Zm1.435,0Zm5.74.493Zm0,.575Zm0,.985Zm2.87,0h0c.038-.155-.139-.307-.478-.411Zm1.2-1.56Zm1.435,1.232Zm12.2-1.232H73.186c-.718,0,0-.575,0-.575a11.611,11.611,0,0,1,2.392,0S74.382,90.043,75.578,90.043Zm1.674,1.068h1.674c1.674,0-7.175,0-1.674-.164Zm0-1.56h0s.478-.082,0-.164Zm0,.739Zm0,3.285Zm-2.87,0c0-.411-2.153,0-3.348,0s0-.739,2.392-.821,3.109.164,1.435.739Zm0,0h0s.718,0,.718.082Zm-1.2-2.546h0l-2.153-.493Zm0,3.285H88.732c0,.493-6.458,0-7.893.411H68.881c-1.913,0-6.936.411-8.132,0a34.484,34.484,0,0,1,5.023,0q3.8-.231,7.653-.328Zm8.371-3.531a15.284,15.284,0,0,1-2.392.739,21.965,21.965,0,0,1,2.631-.657ZM79.644,89.3h0s.957.739.239.082ZM66.011,95.3ZM68.4,93.657h0l.239.082Zm0-4.106Zm0,2.956a6.754,6.754,0,0,1-1.674,1.15v-.821l-1.674.739c.718-.657,1.2-.9,3.348-.985Zm-2.392-2.464ZM55.966,95.217Zm-20.09,0a6.052,6.052,0,0,1,1.674,0H35.876Zm-4.305,0h0s-.478.246,0,.246Zm-4.544,0Zm-7.414-1.15h0s-.478.328,0,.246Zm31.571,2.792Zm13.394,0h0s.239.246,0,.328Zm4.305,0h0a4.373,4.373,0,0,1,2.153,0Zm6.458,0H71.512a13.349,13.349,0,0,1,4.066,0Zm5.979,0H78.687a7.115,7.115,0,0,1,2.87,0Zm6.7,0H83.231a14.419,14.419,0,0,1,5.262,0Zm0-.657H56.683c-3.348,0-8.132-.411-7.175,0a15.686,15.686,0,0,1-3.348,0H41.855c-.478,0-2.153.493-3.588.575-1.832.039-3.669.039-5.5,0h-5.74c-1.911-.044-3.829-.044-5.74,0h1.2c3.025.082,6.064.082,9.088,0,2.705-.082,5.426-.082,8.132,0h11c3.184.082,6.382.082,9.567,0a88.7,88.7,0,0,1,9.328,0H88.732Zm0-1.232a9.406,9.406,0,0,1-2.631,0H78.448c-1.433.041-2.872.041-4.305,0H66.729a38.082,38.082,0,0,1,4.305,0H85.623s5.023.082,3.588.411ZM86.1,92.753H81.318a21.94,21.94,0,0,1,4.783-.493c1.435,0,4.066.575,5.262,0s-1.2.493-1.913.411h0ZM82.514,89.14h0s1.435.9,1.2.411Zm1.435,1.314Zm4.544.493s-2.153-.657,0-.493.718.657,1.2.9Zm0-.493h0a4.961,4.961,0,0,0,1.674.411Zm0-.985h0s2.392.575,2.153.575Zm8.61,2.792v.493c0,.493-2.153,0-3.109,0H92.559c-1.435,0,0-.575,2.153-.575Zm0,2.217H95.668l4.305.411Zm-5.74-.411h0a21.7,21.7,0,0,1,2.87.411Zm1.2.411H86.58a90.147,90.147,0,0,1,9.088.411Zm-3.348,0ZM87.3,96.284h8.132c2.224-.09,4.472-.09,6.7,0,0,.493-7.414.411-8.61.411-1.752.041-3.51.041-5.262,0h-1.2s2.631-.328,3.109-.328Zm13.872-3.531a7.115,7.115,0,0,1-2.87,0s0-.575,2.631-.493h0Zm0,1.971s-4.544.411-3.109,0Zm0-5.5H99.734s5.262.246,4.783.082ZM86.341,97.434h0s3.827-.164,3.348-.164Zm15.546,0h-1.674s6.218-.657,5.023-.246ZM103.8,94.97Zm1.435-2.217h0s3.109-.328,3.348-.246Zm0-1.971Zm0,5.748h0s2.87-.575,3.109-.246Zm2.87.821c-1.435-.493-3.348,0-5.023,0a28.349,28.349,0,0,1,3.588,0h1.674c.239,0,2.87-.246,2.87-.246Zm-1.674-.9Zm2.392-3.86h-1.913c-1.913,0,4.305-.328,5.023-.246ZM108.823,90.618Zm0,4.517Zm2.631,1.889h0l2.87-.246Zm0-1.889h0a22.334,22.334,0,0,1,3.109-.246Zm0-.985Zm1.435,1.807h0a14.263,14.263,0,0,0,2.631-.246Zm0-3.367h0s2.392-.164,1.913-.246Zm2.631,4.434Zm4.066-3.285Zm1.674,2.874h-1.674c1.2-.246,1.2,0,1.2,0Zm0-.985h3.109s-2.631.246-2.87,0Zm0-1.725Zm0,2.874v-.411c0,.082.957.328.718.411Zm2.153,0Zm2.153,0h0l.718-.164Zm2.153-3.038v.411h-3.348v-.411H125.8c1.512-.045,3.032-.045,4.544,0,.957.082-.957-.246-1.913-.164Zm0,.411Zm1.674,0Zm0,1.56h0c4.544-.246,2.87,0,2.87,0Zm0-.493h0s3.827-.082,3.348,0Zm0-1.478h2.153v.575c0,.575,1.913-.082,1.435-.575Zm2.153.493Zm0,.9a5.244,5.244,0,0,1-1.913,0s5.74-.082,6.218,0Zm1.2.411h0Zm0-1.889Zm0,.493h0Zm3.348-.575s-1.2-.493,0-.657,4.544.493,4.066.657Zm0,1.56h0Zm0-1.56Zm0,1.889Zm2.153,0h0Zm4.305-1.314Zm0,.575h0s.957.082,2.631.246Zm0-.575Zm0-.739Zm0,.575h-1.913c-1.913,0,2.87.246,2.87.246Zm0-.657c-.942-.14-1.519-.47-1.435-.821,0,0,2.392.821,2.392,1.068Zm0,1.314h-1.913c-.478,0,2.87.246,2.87.246Zm0,.493Zm0,1.314h0a7.087,7.087,0,0,1-.957.246Zm0-.821Zm1.435.821C142.306,96.449,143.981,96.038,143.981,96.449Zm0-.821H143.5c0-.493,6.936-.657,7.175,0Zm3.109-1.4h0l.957.246Zm0,.739Zm0-1.725c-.342-.2-.342-.454,0-.657,0,0,1.435.739.957.9Zm1.913,0h0a6.368,6.368,0,0,1,.957-.082Zm0,1.4h1.435c.239,0,1.2.082.239-.082Zm2.392-.9Zm2.392,1.232h-1.913c.239,0,4.544-1.232,3.588-.082Zm0-.9h1.674s.478.082-.239-.082Zm0-.739Zm6.7,2.792v-.9c0-.493,3.348.411,1.913.821Zm1.674-2.874Zm0,2.053h0v0Zm5.262-3.121Zm3.827,2.628Zm7.893-2.71Zm5.023,3.367h0Zm12.2-.493H183.2a25.649,25.649,0,0,1,2.631,0h2.631S196.6,94.724,196.359,94.97ZM180.1,92.753h0s.239-.164,0,0Zm1.674,0h0s.239,0,0-.082Zm1.2-.739h0s.239-.164,0-.082Zm0,.9Zm0,0h0Zm8.371-.9Zm2.392.985Zm16.264-.657Zm2.153,0Zm1.435-.739h0Zm2.87,0h0s0,.082-1.2.164Zm4.783,2.874h0c-.239-.411-.239.246-.718.164Zm2.87-1.971h0a4.49,4.49,0,0,1,1.913,0Zm5.262-.411c0,.493-1.435,0,0,0h0s-.718.082-.718.164Zm0,0h0s.239.164.239.328Zm9.328,1.4Zm5.5,0h1.674c.957,0-1.2.164-1.435.328Zm2.153-.985h0s.717.082.239.328Zm0,.9Zm1.2-.575s-1.435,0-1.2-.411a4.065,4.065,0,0,1,2.272-.041c.66.2.714.553.12.78Zm0-5.995h0s2.631.328,2.392.328Zm1.435,3.86Zm0,.9h1.674s.478.739.957.328Zm2.631-1.971h0Zm0,2.135Zm0-1.314ZM258.065,93h-7.893v-.575c0-.575,1.913,0,2.631,0h2.631s4.544.575,4.544.9Zm-3.588-2.546h0c-1.2.739.957-.411,1.913.328Zm0-.9Zm0,2.464h0Zm1.435-1.642h0s2.631.246,2.152.328Zm0,1.314Zm0,0h0c-1.435,0,2.87.657,2.87.657Zm0-1.478Zm0,3.613Zm0-.985h0l5.262.657Zm5.262,0h0Zm2.153,0v-.411c0-.411,4.3,1.725,5.262,1.4Zm1.435,0Zm21.765,1.478Zm5.74-2.053h0s5.023.9,5.262.9Zm0,0h0l4.544.9Zm0,.493h1.913s0,.739-1.2.821,2.631.493,3.348.082Zm0,0h0c.215.156.215.337,0,.493Zm-8.132,0h6.218a.331.331,0,0,1,0,.493h-6.218a25.867,25.867,0,0,0,2.87.082Zm-3.588-.657h0c-1.435,0,1.913.657,3.109.575Zm-3.588,0h2.631c.478,0,0,0,0,.411s1.435,0,0,0,1.674-.493,2.152-.739,0,.821,0,0v.9h-8.371c-3.109,0,2.631-.9,2.631-.411h1.674c1.674,0,1.674.493,2.392.411Zm3.109-2.3Zm2.87,0h-1.2a3.933,3.933,0,0,1,1.435,0Zm5.979,0a19.971,19.971,0,0,1-3.109,0,5.033,5.033,0,0,1,2.392,0s4.3.246,3.827.246Zm0,0h0Zm0-.657h0l4.544.9Zm1.913,0h0c0,.575,5.023.9,4.544.9Zm1.913,0h0s5.262.9,4.544.9Zm3.109,0H294.18c-.239,0,5.979.9,6.218.9Zm0,0h0l5.74.9Zm1.435,0h0l5.74.9Zm-2.153-.9h2.392c.239,0,4.3.821,3.348.821Zm-5.262-.9h-9.567c3.794-.245,7.628-.41,11.48-.493,1.435,0,4.783-.411,6.218,0s0,0,1.2,0,0,0,0,.493-.478.821-3.588.821Zm10.523.739h-.239c.239,0,6.458.821,5.979.821Zm0-.575Zm0,0Zm2.392,1.232v0Zm1.674,0a.4.4,0,0,0,0-.493A.429.429,0,0,1,304.464,88.729Zm0-1.15h-3.588c0-.575,0-.493,1.435-.657a13.494,13.494,0,0,1,2.631,0c.717,0,0,.493,0,0v-.575s0,.575,1.2.575,0-.493,0-.493h1.435Zm5.5-.575Zm5.74,3.121h0s6.7.493,6.218.575Zm0-1.478h-4.783c0-.493,2.392,0,2.631,0s7.175-.082,8.849.575ZM310.443,87Zm0,0h1.674c1.674,0,0,0,0,.493h-2.392l8.371.164Zm57.879-2.381v-.411s8.132.9,7.653,1.068Zm0-76.782h0l8.61.657Zm0-1.971h-1.913c0-.575,1.913-.575,3.348-.493-.1.559.779,1.086,2.24,1.336a10.753,10.753,0,0,0,4.457-.187Zm2.631,70.623v-.164h0c-2.153,0,8.61.493,8.132.821Zm0-2.053Zm0-4.681Zm0-62.247h0s10.284.411,10.045.411ZM382.673,76.9Zm0-1.068v0Zm0-2.217Zm0-2.135h0v0Zm0-10.511Zm0-37.529h0a8.863,8.863,0,0,1,1.2-.082Zm0,41.553h0l1.674-.082Zm0-46.726V16.71c0-.493,0-1.4,1.674-.657h0c0,.575-2.392,1.232-1.674,1.807.657-.11,1.107-.326,1.2-.575,0,.493-1.674.739-1.2,1.15Zm1.674,31.945h0a6.011,6.011,0,0,0,.718-.082Zm0,19.462v-.739c0-.082,1.674.657,1.2.657Zm0,.575Zm0-1.478V68.2c0-.082,1.674.328,1.2.493Zm0,9.2h0v1.15a.984.984,0,0,1,0-1.15h0a7.111,7.111,0,0,1,1.435-.082Zm0-1.56h0a7.149,7.149,0,0,0,1.2-.082Zm0,0Zm0,1.56Zm0-1.889Zm0-4.024v-.411c0-.246,1.435-.082,1.435.082Zm0-35.64v-.493c0-.493,2.392.328,1.674.164Zm1.435-1.314h0a3.74,3.74,0,0,1,1.674-.328ZM392,32.559V34.53c-2.392,0,0-.493-1.913-.739s-1.2,0-1.2-.575,0,0,1.2-.575h0v-.411h0s0-.739,1.913-.493A1.052,1.052,0,0,0,392,32.559Zm0,17Zm0,0Zm0-1.232h0s-1.674.657-1.435.657Zm0-.821h0s-1.2.328-.957.328Zm0-12.811h0s-1.2.575-1.2.328Zm0,13.221Zm-3.348,1.068a3.933,3.933,0,0,0-1.435,0c0-.657,0,0,1.674-.575h0c1.674,0,0,.575,0,.985Zm0,5.666h0s.239.082.239,0Zm0,0h0s.478.164.478.246Zm0-1.4Zm2.87,6.652h-1.2c.239,0,.239.328.717.246Zm0-3.531h1.435V57.2h0v.411c0,.411,0,.575-1.2.493h1.2l-1.435-.493h0Zm2.392,0h0l-.239.821Zm0,13.96s-1.435.493,0,.657a4.9,4.9,0,0,1-2.631,0V69.678c0-.246,1.2,0,1.913,0h0s.239,1.4-.239,1.232Zm-2.392,5.256s0,.575,1.674.739h-1.913v-.657s-.957.164-.717.493Zm0,1.56Zm2.152-16.424v-.493c0-.493,1.435.739,0,.821s-.478.493-.718.411Zm0,8.212H392.24a3.126,3.126,0,0,1-1.11-.172c-.277-.111-.4-.259-.325-.4,0-.493,2.153,0,2.87,0Zm0-6.077Zm0-2.874Zm-2.152,5.42h0a1.01,1.01,0,0,1,0,1.15c-1.2,0,0,0,0,0Zm-1.913,0v-.493c0-.493,1.2,0,1.435.493ZM392,64.915v.493s-.239-.493,0-.575Zm1.2-5.5h0c1.2.411-.478.246,0-.082Zm0,0Zm0,.9Zm-3.109,3.367v-.575c0-.575,1.674,0,1.913.657s-1.913-.739-2.631-.575Zm0,.575Zm-2.153,4.927h0s.957-.493.239-.493Zm0-.9v-.739a4.74,4.74,0,0,1,.478.246Zm0-5.091Zm0-1.56h1.2s0-.328-.957-.493Zm1.674,1.15c1.2,0,3.109,0,0,.493s.718-.9.239-.985Zm1.674-.821Zm-1.435-1.725h0a2.767,2.767,0,0,0,.239-.493Zm0-3.121h0c-.2-.182,0-.388.478-.493Zm0,2.053Zm0,.739h0Zm0,14.453Zm0,0Zm0,0h0s-2.153.164-1.674,0Zm0,1.15Zm0,0Zm0,.821h0a8.747,8.747,0,0,0-1.435.246Zm0,2.135Zm0-18.477s-1.674.164-1.913.246Zm0-1.642h0a8.8,8.8,0,0,1-1.913.246Zm0-25.786v-.411c0-.411-1.435.411-2.153.411Zm0,3.285s1.2-.575,1.2,0-2.87.164-2.87.246Zm0,10.183h0a3.044,3.044,0,0,1,1.674,0,1.856,1.856,0,0,1-1.219.42,4.046,4.046,0,0,1-1.651-.173Zm1.435,4.6Zm1.435-20.366c-1.2.493-1.435,0-1.435,0s.478.082.239.246Zm-1.2-.493Zm0,0a12.883,12.883,0,0,0-3.109,0,15.256,15.256,0,0,1,1.674-.082Zm-5.262,11v-.657c.56.24.56.581,0,.821Zm2.153,43.934s0-1.15-1.435-.493,0,0,0-.411v-.328c2.392-.082,1.435.9,1.435,1.4Zm0-1.725Zm0,0h-1.2v-.493a3.208,3.208,0,0,1,.921.059.784.784,0,0,1,.514.269Zm0-1.068h0a.574.574,0,0,1,0-.985V79.286c0,.246.239,1.889.239,2.546Zm0-8.212Zm0-9.772c0,1.068,2.631,0,2.87,0s0,1.478-2.152,1.15-.239-.985-.239-1.4Zm0,2.381V65.9s1.674,0,.957.164Zm0,2.792a2.857,2.857,0,0,0,0-1.4v-1.15c.359.172.359.4,0,.575,1.674,0,1.913-.739,2.631,0a2.9,2.9,0,0,1,0,2.053,3.59,3.59,0,0,0-1.2-.328Zm3.109,9.444V79.2a29.023,29.023,0,0,0-3.109-.411h3.827s1.435-.575.717-.493Zm2.631-4.927c-1.435,0,0,0,0,.657a.57.57,0,0,1,0,.575,5.256,5.256,0,0,0,0,1.971c-1.674,0-1.674-.821-2.631-1.15a.513.513,0,0,1,0-.821,2.464,2.464,0,0,1,0-1.314h0V72.47a6.192,6.192,0,0,1,2.87-.493h0v.493C394.392,72.962,394.871,73.619,394.153,73.619Zm0-16.424v-.657a1.65,1.65,0,0,1,.718.657Zm1.435,13.8c-1.2,0,0-.821,0-1.068s1.913.739.717.9Zm1.913,6.652h0s1.2-.328.718-.164Zm0-2.3h0a7.51,7.51,0,0,0,.957-.164Zm0-.657h0s1.435-.328,1.2-.164Zm0-2.053h0a.329.329,0,0,1,0,.575c-.393-.1-.581-.263-.476-.424a1.373,1.373,0,0,1,.954-.315Zm0,1.478v-.657c0-.164,1.435.164.957.164Zm0-2.053h0s1.2-.575,1.2-.164Zm0-1.15Zm0-15.439h0c-1.435,0,.718-.164.957-.164Zm0,11.168v.493s-.478-1.068.718-.657Zm0-1.725c-1.2,0,0,.985,0,1.4a1.681,1.681,0,0,1,0-1.15c-.239-.739-.239.246.478-.411Zm-1.435-1.642s1.2.575,0,.739.239-.9.478-.9Zm0-1.068h0l.239-.164Zm0,0h1.2c1.2,0-1.435-.328-1.2-.493Zm0,2.217h0a1.123,1.123,0,0,0,.718-.493Zm0-8.212h0a6.482,6.482,0,0,1,.957-.657Zm0,4.927Zm0,6.405a2.281,2.281,0,0,1,0,1.807c0,.575,0,.739,0,.9a8.017,8.017,0,0,1,0-2.381c-.957-1.068-.478-1.889-.239-.985Zm0-1.314h0v0Zm0,0h0s-.957-.821-.717-.821Zm0-12.646v1.4a3.114,3.114,0,0,1,0-1.478Zm-1.2,3.367h0v.411c-.1-.256-.688-.458-1.435-.493a20.74,20.74,0,0,0-2.631,0s4.544,0,3.827-.493-1.2,0-1.674,0h3.109v.411h0s-2.392-.985-2.153-.821Zm0-2.874h.239c.478,0-2.392-1.15-2.392-.985Zm0,0s-1.913-.9-2.153-.575Zm0,.657h-2.392c-.957,0,0-1.15-.239-.575Zm-2.153-.493h0s-2.631-.657-2.631-.575Zm0,0Zm3.827,0Zm0-2.874v1.068c0,.082-3.348,0-5.023,0a14.317,14.317,0,0,0,2.392-.657h0a1.248,1.248,0,0,0-1.2-.575Zm0-20.941h-1.2a7.77,7.77,0,0,1-1.435-.739h-1.435c-1.435,0-1.913,0-1.913-.493v-.657c0-.164,1.435,0,1.674,0s0,0,0,.575,1.913-.493,3.588-.493,0,0,0,.411h0c-4.544-.985-2.392.575-3.109,1.232Zm0,14.7h.239a29.834,29.834,0,0,1-3.827-.164Zm0,1.971h0s0-.657,1.674-.493-4.066.328-4.783.328Zm1.2-2.3Zm0-3.121c0,.985-2.152-.821,0-.739s-2.152.328-2.392.575Zm0-1.889v-.411c0-.411-1.674.164-2.152.246Zm1.2,5.666Zm0-.9Zm0,1.232Zm3.109-4.927-1.435.575H397.98v-.821c0-.328,2.631-.493,4.544,0Zm7.414-.985h0s-1.674,0-1.435-.164Z" transform="translate(0 -0.04)" fill="#e9bc20"/>
    </g>
  </g>
</svg>
