<svg xmlns="http://www.w3.org/2000/svg" width="71.658" height="70.574" viewBox="0 0 71.658 70.574">
  <g id="Layer_2" data-name="Layer 2" transform="translate(0.004)" style="isolation: isolate">
    <g id="Layer_1" data-name="Layer 1" transform="translate(-0.004)">
      <path id="Path_2388" data-name="Path 2388" d="M1.39,3.29Z" transform="translate(5.51 12.998)" fill="#e9bc20"/>
      <path id="Path_2389" data-name="Path 2389" d="M3.27,3.16Z" transform="translate(12.938 12.485)" fill="#e9bc20"/>
      <path id="Path_2390" data-name="Path 2390" d="M1.89,9.63Z" transform="translate(7.486 38.047)" fill="#e9bc20"/>
      <path id="Path_2391" data-name="Path 2391" d="M3,10.63Z" transform="translate(11.871 41.998)" fill="#e9bc20"/>
      <path id="Path_2392" data-name="Path 2392" d="M7,13.81Z" transform="translate(27.675 54.562)" fill="#e9bc20"/>
      <path id="Path_2393" data-name="Path 2393" d="M5.91,12.25Z" transform="translate(23.368 48.398)" fill="#e9bc20"/>
      <path id="Path_2394" data-name="Path 2394" d="M12.2,10.21Z" transform="translate(48.219 40.339)" fill="#e9bc20"/>
      <path id="Path_2395" data-name="Path 2395" d="M12.49,8.71Z" transform="translate(49.365 34.412)" fill="#e9bc20"/>
      <path id="Path_2396" data-name="Path 2396" d="M70.614,42.578a.693.693,0,0,1,0,.3v-.594a3.169,3.169,0,0,0-.3.792,6.03,6.03,0,0,1-.743,1.98l.3-.99a4.951,4.951,0,0,0-.5,1.436,7.031,7.031,0,0,1-.4.891s0-.446,0-.5,0,.644-.347.891h0a5.446,5.446,0,0,1-.446.693s0,.644-.446.743c.545-1.436,1.139-2.872,1.584-4.307a13.07,13.07,0,0,1,1.238-3.268s0,.842,0,1.089a11.336,11.336,0,0,1-.347,1.386,3.417,3.417,0,0,0,.248-.644V41.389a8.923,8.923,0,0,1,.248-2.228,37.826,37.826,0,0,0,0-4.951,37.876,37.876,0,0,0-.5-4.951,9.391,9.391,0,0,0-.5-2.277c-.2-.743,0-1.139-.347-1.139a23.12,23.12,0,0,1,.347,3.961,13.268,13.268,0,0,1,0,3.416v-.594a3.12,3.12,0,0,0,0-.792v1.287a4.951,4.951,0,0,1,0,1.238v.891h0v.941a2.922,2.922,0,0,1,0,.693,10.693,10.693,0,0,0,0,1.337s0,.693-.248.743v-.594h0v-.545a4.95,4.95,0,0,1,0,.842,20.842,20.842,0,0,1-.545,2.971,19.8,19.8,0,0,1-.842,2.921,5.088,5.088,0,0,1-.693,1.733,8.268,8.268,0,0,1-.4.99,3.962,3.962,0,0,0-.4.792h0a4.687,4.687,0,0,1-.446.842c-.1.05,0-.347,0-.4a1.733,1.733,0,0,1,0,.4c0,.347-.347.743-.545,1.089s-.842,1.337-1.287,1.98-1.139,1.436-1.733,2.129S61.6,55.5,61.406,55.45h0a5.49,5.49,0,0,0-.545.545l-.842.842c.347-.347.743-.891,1.089-1.287a8.565,8.565,0,0,0-1.188,1.139c-.5.5-.99.99-1.535,1.436a18.714,18.714,0,0,1-3.02,2.178h0l-.5.347a2.969,2.969,0,0,1,.4-.4,4.109,4.109,0,0,0-.743.545,13.321,13.321,0,0,1-1.436.792,29.706,29.706,0,0,0,3.317-2.772l1.436-1.485.693-.594a4.455,4.455,0,0,1,.446-.5s-.4.3-.5.4a7.674,7.674,0,0,1,1.337-1.188l.842-.842s.594-.5.594-.594-.693.792-.842.941a7.229,7.229,0,0,0-.792.941,20.5,20.5,0,0,0,2.723-3.119,19.8,19.8,0,0,0,2.376-3.713c-.347-.149-.347.446-.347.446v0L63.485,50.8a23.37,23.37,0,0,1-2.03,2.376l2.475-3.565a4.95,4.95,0,0,0-.5.842,3.169,3.169,0,0,0-.5.891c0-.347.545-.743.743-1.139a2.97,2.97,0,0,0,.2-.693,1.238,1.238,0,0,1,0,.446c0-.248.4-.644.594-.941a7.03,7.03,0,0,0,.4-.891s0-.743.446-.941a2.178,2.178,0,0,0-.248.743c0-.248.3-.644.4-.941a6.881,6.881,0,0,1,.3-.941A30.844,30.844,0,0,1,50.563,60.5a33.517,33.517,0,0,1-5.3,1.832,13.07,13.07,0,0,0,1.881-.891L48.83,60.8l1.881-.842.891-.5h.446a12.523,12.523,0,0,0,1.089-.644h0a11.635,11.635,0,0,1,1.634-1.089h0l.792-.594s.594-.347.644-.5l-.3.347s.941-.99,1.139-.941h0a22.428,22.428,0,0,0,3.367-3.119h0c.4-.644,1.089-1.139,1.535-1.782a4.951,4.951,0,0,0,.941-1.535c0,.347-.693.792-.941,1.089l-1.287,1.485a13.913,13.913,0,0,1-1.931,1.881c.842-1.089,1.782-1.98,2.624-2.971a6.337,6.337,0,0,0,.743-1.238,19.208,19.208,0,0,1,1.139-1.634c-.4.545-.594,1.287-.99,1.832.693-.891,1.089-1.931,1.683-2.872S64.673,45.7,65.119,45a11.885,11.885,0,0,0,.545-1.139s.446-.743.4-.842a5.028,5.028,0,0,0-.446,1.188,4.109,4.109,0,0,0-.4,1.089A13.961,13.961,0,0,0,66.6,41.587a18.319,18.319,0,0,0,.99-4.258v.99a2.377,2.377,0,0,0,0-.594h0s0-1.683.3-1.782h0V34.557h0a1.238,1.238,0,0,0,0-.594v-4.01a2.772,2.772,0,0,1,0-1.089.941.941,0,0,0,0,.594s0-2.228-.3-2.277.347,1.139.4,1.436a7.329,7.329,0,0,1,0,1.04v2.376a34.654,34.654,0,0,1-.446,3.961,15.6,15.6,0,0,1-.446,2.079,5.4,5.4,0,0,1,0,1.238,25,25,0,0,0,1.337-7.872,21.932,21.932,0,0,0,0-3.119c0-.4,0-.842,0-1.287v-.941h0a2.921,2.921,0,0,1,0-1.139c0-.347,0-.792,0-1.188a6.685,6.685,0,0,0-.446-1.436,14.853,14.853,0,0,1-.5-1.584,21.734,21.734,0,0,0-1.04-3.02,39.606,39.606,0,0,0-2.872-6.04,38.765,38.765,0,0,0-4.159-5.347,8.714,8.714,0,0,0-1.535-1.485l-2.426.1a4.951,4.951,0,0,1-.99-.693c0,.248.545.446.743.644l.842.693,1.436,1.337c.594.545,1.04,1.139,1.584,1.733a1.584,1.584,0,0,1,.5.5s0,.3,0,.446l1.386,1.733A29.706,29.706,0,0,1,63.436,15.5q-.234-.332-.5-.644a13.267,13.267,0,0,0-.891-1.386l-1.04-1.535-.594-.743s-1.98-1.683-1.881-1.881.347,0,.4,0-.99-.891-.891-.941.4.248.446,0-2.228-1.584-2.129-1.832l.941.594s-.644-.545-.842-.693l-.347-.3A6.436,6.436,0,0,0,55.019,5.2l.5.248L52.049,3.515a12.822,12.822,0,0,0,1.535.941l1.188.792h-.347l.941.693h0l1.04,1.04a8.416,8.416,0,0,1,.941.941A75.848,75.848,0,0,0,48.533,2.03a6.387,6.387,0,0,0,.99.3l1.287.594-1.98-.99h0s-1.634-.644-1.782-.693A30.151,30.151,0,0,0,42.84.4,37.28,37.28,0,0,0,38.731,0h-.792l2.673.5a17.972,17.972,0,0,1,3.317.743,10.6,10.6,0,0,0-1.337.05c0,.3,1.188.347,1.436.446a5.3,5.3,0,0,1,1.337.347,3.832,3.832,0,0,0,.792.347h0c0,.248,1.436.5,1.634.644l1.188.644a1.979,1.979,0,0,1,1.089.693c.1.248-.545-.248-.842-.248h0l-.792-.347H47.89a4.357,4.357,0,0,0,1.089.5l.545.149a29.706,29.706,0,0,1,3.02,1.683A25.151,25.151,0,0,1,55.168,8.02l1.584,1.436.792.743s.347.5.545.545h0s.644.743.693.792l-1.139-.99A4.96,4.96,0,0,0,56.9,9.9c-.1,0,1.683,2.079,1.881,2.327a2.971,2.971,0,0,1,.3.545s.5.5.5.693h0s2.03,3.812,2.228,4.159-.347-.4-.5-.644l-.644-1.139-.5-.693V14.8c0,.05-.743-.693-.743-.644h0L57.99,12.476s.347.4.5.347-.545-.693-.545-.644a1.672,1.672,0,0,0,.545.347c0-.05-.693-.743-.792-.842s-.693-.5-.743-.693a3.317,3.317,0,0,0,.941.693c-.644-.347-.891-1.139-1.436-1.535s.5.4.545.347-2.673-1.931-2.971-2.129c.5.644,1.436.891,1.931,1.584h-.446a2.624,2.624,0,0,0,.693.594h0l.5.693s.5.4.5.594c-1.832-1.782-4.01-3.119-5.842-4.951a4.951,4.951,0,0,0,.891.4l1.04.693-.644-.545s-.644-.446-.693-.4h.3s-1.584-.842-1.733-.891A27.724,27.724,0,0,0,47.1,4.951a14.852,14.852,0,0,1-2.971-1.04s-1.98-.891-1.98-.941h.5s-.891,0-.891-.3h0a6.089,6.089,0,0,0-1.436-.3,2.475,2.475,0,0,1,1.04,0,10.942,10.942,0,0,0-1.238,0s-.5-.347-.5-.3a2.761,2.761,0,0,0,.644,0,8.268,8.268,0,0,1-.891,0h-.99L36.4,1.238H33.78a4.813,4.813,0,0,1,.891.05c0,.05,0,0,.3,0h-.3a12.08,12.08,0,0,1-1.337,0h.248a8.417,8.417,0,0,0-1.931,0,11.647,11.647,0,0,0-3.218.3l-3.268.693-1.436.347a4.109,4.109,0,0,1-1.337.347,5.673,5.673,0,0,0,1.139-.5h-.1a3.02,3.02,0,0,1,.842-.4c-1.386.347-2.673,1.188-4.06,1.683,0,0,.792-.693,1.089-.644s-.941.446-1.139.545a4.505,4.505,0,0,0-.693.347,8.417,8.417,0,0,0,1.188-.693s-1.683.941-1.881.99,1.04-.693,1.04-.644-.446,0-.594,0l-1.089.842s-.99.446-.99.594.4-.149.446-.149a3.07,3.07,0,0,0,.842-.792,2.735,2.735,0,0,0-.941.792,5.941,5.941,0,0,1-1.188.743,4.357,4.357,0,0,0,.842-.743c-.545,0-.842.743-1.337.941h0l.891-.941a22.081,22.081,0,0,1-2.475,1.733l-1.485,1.04s-.842.5-.891.792.693-.446.842-.545l1.238-.743L16.5,5.694A10.4,10.4,0,0,0,14.867,7.08a5.6,5.6,0,0,0-1.337,1.089,7.624,7.624,0,0,1,.941-.842l.4-.5a4.307,4.307,0,0,0-.545.446,3.436,3.436,0,0,1-.594.5c-.149.05,0-.347.3-.347h0s-1.634,1.337-1.584,1.238l-1.04.842c-.347.3-.594.644-.941.941L11.4,9.9a4.951,4.951,0,0,1-.5.545l-.99.693s-.941.693-.99.891.5-.594.644-.792.693-.644.792-.941l-.446.693v-.3a13.665,13.665,0,0,1-1.139,1.337s-.4.693-.693.792.5-.693.644-.842l.891-1.188c-1.04,1.238-1.98,2.525-3.02,3.664,0,0,.4-.545.594-.792a10.6,10.6,0,0,1,.644-.941A5.545,5.545,0,0,0,7,13.763a3.515,3.515,0,0,0-.5.693,2.03,2.03,0,0,1,.347-.545,9.06,9.06,0,0,0-.644.941l-.594.941s-.644.4-.644.693a2.525,2.525,0,0,1,.446-.891c-.5.5-.644,1.386-1.04,1.98.4-.644.891-1.238,1.337-1.881a13.071,13.071,0,0,1,1.535-1.832c.891-.891,1.733-1.832,2.723-2.673a43.454,43.454,0,0,1,3.515-2.723,35.943,35.943,0,0,1,12.625-5.4,56.539,56.539,0,0,1,7.08-.941,4.159,4.159,0,0,0-.891,0,4.208,4.208,0,0,1,.792,0h.891a3.469,3.469,0,0,1,.693.149,3.763,3.763,0,0,1,.743,0h2.079l-.347.4h.693a6.288,6.288,0,0,1,1.386,0,7.525,7.525,0,0,0,1.04,0h.792a2.624,2.624,0,0,0-1.436.347h.594l1.436.4H40.265l1.089.3,2.178.743a6.981,6.981,0,0,1,2.228.743,4.159,4.159,0,0,0-1.188-.248s.792.248.842.248a7.129,7.129,0,0,1,1.782.743h0c.644.4,1.386.644,1.98,1.04l-.743-.3a10.248,10.248,0,0,1,1.238.743l-.842-.4a2.921,2.921,0,0,1-.792-.347,3.02,3.02,0,0,0,.792.446l.693.3a8.367,8.367,0,0,1,1.436.842s.842.347.842.545h0a6.949,6.949,0,0,0,.891.594h-.3a6.783,6.783,0,0,1,1.188.891A12.921,12.921,0,0,0,52.2,9.456a17.477,17.477,0,0,0-1.584-1.04l-1.386-.891-1.139-.594s-.792-.347-.842-.5h.693l-.693-.3-1.04-.347-1.634-.2-2.525-.941h.891c.149,0-.99-.248-1.287-.347a6.341,6.341,0,0,1-1.683-.3h.644a8.12,8.12,0,0,1-1.881,0,10.149,10.149,0,0,1-1.683-.5,3.02,3.02,0,0,0,.941,0,4.951,4.951,0,0,1,1.139.248,2.872,2.872,0,0,0,.941,0h.891a6.873,6.873,0,0,1-1.337-.05l-.941-.3L37.344,3.07H36.107l-1.436.1h-.545a5.6,5.6,0,0,1-1.287,0h.743a8.367,8.367,0,0,1-1.139,0H30.76a10.892,10.892,0,0,1,1.832-.248H30.809a3.664,3.664,0,0,0-1.089.248,6.139,6.139,0,0,0-1.337,0l.891-.1a.99.99,0,0,1,.446-.1s-.5.248-.644,0a9.06,9.06,0,0,0,1.683-.149H29.374c-.347,0,.347.05.347-.05l-.99.149h0s-1.832.446-1.98.446h-.792a3.862,3.862,0,0,0-1.188.446h0a4.951,4.951,0,0,1,1.04-.446,12.224,12.224,0,0,1-1.436.5,8.713,8.713,0,0,1,.99-.446s-1.436.545-1.634.594a4.951,4.951,0,0,1-1.04.347,25.2,25.2,0,0,0-2.872,1.089l-2.079.99a16.14,16.14,0,0,0-1.98,1.188,6.406,6.406,0,0,0-.891.792c0,.1.3-.347.347-.4a3.466,3.466,0,0,1-.941.743v-.3a2.871,2.871,0,0,1-.594.5,3.466,3.466,0,0,0-.792.644V9.357A5.6,5.6,0,0,1,11.6,10.5a5.492,5.492,0,0,1,.792-.594,4.357,4.357,0,0,0-.99.891h0s-.545.5-.743.644a5.644,5.644,0,0,0-.743.594,11.487,11.487,0,0,0-1.089,1.04v-.3c-.545.594-1.04,1.089-1.535,1.733l-.05.347a5.842,5.842,0,0,1-.545.941l.891-.941s1.139-1.139,1.089-1.287h0c.3,0,.594-.644.842-.842a8.466,8.466,0,0,1,.99-.891C11.3,11.288,12,10.545,12.788,10a4.951,4.951,0,0,0-.891.891L10.461,12.13a18.961,18.961,0,0,0-1.436,1.386c-.545.594-1.188,1.188-1.683,1.832S6.3,17.031,5.758,17.823l.545-.941c0-.3.347-.693.545-.99a11.536,11.536,0,0,0-.842,1.287l-.347.743-.347.545a3.07,3.07,0,0,1,.5-1.188s0,.446-.347.545a1.535,1.535,0,0,0,.3-.644s0,.347,0,.446a5.644,5.644,0,0,0-.5.941,3.367,3.367,0,0,1-.594,1.386,4.951,4.951,0,0,0-.4.693,5.594,5.594,0,0,0-.594,1.04,4.951,4.951,0,0,1,.594-1.238q.064-.319.1-.644A8.417,8.417,0,0,0,3.282,22.13v-.3s-.248.594-.347.842a4.555,4.555,0,0,1-.446,1.139s0-.693,0-.743a3.268,3.268,0,0,0-.248.743L1.8,25.4v-.842a3.317,3.317,0,0,1-.3.594,2.872,2.872,0,0,0,0,.693l-.693,3.02a8.862,8.862,0,0,1,0-1.188c-.3,0,0,1.139-.3,1.485s0,1.584,0,1.584v-.99a7.278,7.278,0,0,0,0,2.079,3.664,3.664,0,0,1,0-1.04,12.278,12.278,0,0,0,0,1.881c0,.842,0,1.634,0,2.475v3.515a2.525,2.525,0,0,1-.5.941,11.189,11.189,0,0,0,0-1.485,12.971,12.971,0,0,1,0-1.386V33.914a21.98,21.98,0,0,1,.4-3.02c.149-.99,0-.99.347-1.535A1.777,1.777,0,0,0,1.1,28.071c-.1-.1,0,.743,0,.99v1.089a5.5,5.5,0,0,0,0,.941s0,.842,0,1.04a4.555,4.555,0,0,0,0-.792,4.951,4.951,0,0,1,0-.842s0,.594,0,.743v.743h0V33.27a16.734,16.734,0,0,0,0,2.228c0,.594,0,1.139,0,1.733v1.683a12.971,12.971,0,0,0,0-1.436s0,.792,0,.99v3.713a6.486,6.486,0,0,1,0,1.337A16.239,16.239,0,0,1,.559,41.29a4.307,4.307,0,0,1,0,1.089v-.248L1.1,44.31c.05.2,0,1.04.347,1.238a4.159,4.159,0,0,1-.149-.99L.856,43.37a21.486,21.486,0,0,0,.99,3.169,10.347,10.347,0,0,1,.4,1.139,1.537,1.537,0,0,0,.347,1.139c.347.4,0,.743.3.891s-.4-1.683-.99-2.327a1.881,1.881,0,0,1,0,.743,7.229,7.229,0,0,0,.347.941A5.545,5.545,0,0,1,2.787,50.3v-.4c0-.05.4.99.594,1.436a9.9,9.9,0,0,0,.693,1.238s.644.792.594.99l-.5-.594.594.891a7.08,7.08,0,0,0,.693.99,4.109,4.109,0,0,1-.5-.792c0-.347-.347-.743-.545-1.139L3.332,50.549a27.378,27.378,0,0,1-1.386-4.456,35.2,35.2,0,0,1-.792-12.476A34.112,34.112,0,0,1,12.64,11.635a32.081,32.081,0,0,1,5.941-4.01A31.093,31.093,0,0,1,21.5,6.288c.842-.347,1.683-.842,2.574-1.139l-.5.347,1.188-.545h0a4.951,4.951,0,0,1,2.277-.4c.842-.05,1.683-.3,2.673-.347h1.04a6.981,6.981,0,0,0,1.089,0h1.188a9.9,9.9,0,0,1,1.634-.05,5.6,5.6,0,0,1,1.287,0h-.4l2.921.792a19.457,19.457,0,0,1,3.317.941,20.15,20.15,0,0,0-3.466-.5,32.923,32.923,0,0,0-3.664-.446,21.437,21.437,0,0,0-3.565,0H28.136a2.426,2.426,0,0,0,1.089,0h.248a9.9,9.9,0,0,1-1.733,0,5.248,5.248,0,0,1-.941.3,7.177,7.177,0,0,1,.941-.3,3.218,3.218,0,0,0-.99.248,7.971,7.971,0,0,1-1.436.446,2.376,2.376,0,0,0,.792-.4,5.892,5.892,0,0,1-.99.4,2.277,2.277,0,0,0-.693.248,3.02,3.02,0,0,1,.792-.446,2.03,2.03,0,0,0-.743.347s-.891.5-.99.4a2.773,2.773,0,0,0,.743-.4,3.218,3.218,0,0,1-1.04.248,19.507,19.507,0,0,0-1.881.693h0s-.842.4-1.139.5l-.347.1a5.4,5.4,0,0,0-1.634.941,39.163,39.163,0,0,0-3.317,2.178l.545-.545a17.328,17.328,0,0,1-1.485,1.188,5.941,5.941,0,0,1,.545-.594,9.209,9.209,0,0,0-1.782,1.634c-.4.446-.891.792-1.337,1.238a37.331,37.331,0,0,0-2.872,3.317,25.2,25.2,0,0,0-2.574,3.763c-.5.891-.941,1.832-1.386,2.773l-.594,1.535a5.743,5.743,0,0,1-.3.743h0a6.783,6.783,0,0,0-.347,1.188s0,.644,0,.4a2.772,2.772,0,0,1,0,.594s0,.5,0,.743,0,1.238-.3,1.287h0q.03.594,0,1.188a4.06,4.06,0,0,0,0,1.287v-.5a5.5,5.5,0,0,0,0,1.832v4.9a6.337,6.337,0,0,0,0,.941,6.09,6.09,0,0,1,0,1.287h0a5.248,5.248,0,0,1,0,1.535,10.446,10.446,0,0,0,0,1.733,5.793,5.793,0,0,0,0,.99c0,.4.446.891.446,1.238v-.5a4.575,4.575,0,0,0-.3-1.733c-.3-.594,0-2.228-.4-3.317a19.328,19.328,0,0,0,.594,3.713,48.49,48.49,0,0,0,.99,4.951c.5,1.584.792,2.772,1.238,4.109A5.793,5.793,0,0,0,6.5,54.856l.743.99a3.406,3.406,0,0,0,.644.792c.248.149-.4-.842-.5-1.04A12.524,12.524,0,0,0,6.8,54.46s0,0,0-.347-.347-.644-.347-.743.594,1.04.743,1.238l.693,1.04a19.212,19.212,0,0,0,1.139,1.634s-.5-.446-.5-.545a9.549,9.549,0,0,1,.891,1.089c.2.248.941,1.287,1.436,1.881a15.794,15.794,0,0,0,2.178,2.277c-.3-.4-.743-.644-.99-1.04s.446.248.446.4-.446-.545-.545-.644-.891-1.089-1.337-1.634l.693.693c0-.4-.693-.792-.99-1.089l-.545-.792a.339.339,0,0,1,.347.347,2.178,2.178,0,0,0-.594-.743h0a4.951,4.951,0,0,1-.347-.743s-.446-.545-.446-.743c.941,1.188,1.931,2.376,2.921,3.515a14.209,14.209,0,0,1,2.228,2.673s-.693-.5-.891-.644a9.357,9.357,0,0,1-.99-.99,1.535,1.535,0,0,0,.446.545s.545.4.644.644-.4,0-.446-.3.5.446.644.545l1.782,1.337a34.656,34.656,0,0,0,4.06,2.525,33.071,33.071,0,0,0,4.307,1.832c.693.3,1.436.5,2.178.743s1.04.4,1.089.248a12.377,12.377,0,0,1-2.327-1.139L21.6,66c.5.3,1.386.545,1.931.792a9.16,9.16,0,0,0,1.634.594,11.934,11.934,0,0,1-1.238-.4l-.693-.248a3.713,3.713,0,0,0,.644.3h.3s1.98.792,1.881.792a8.415,8.415,0,0,1,1.188.446l1.386.347-.891-.248h.743l1.337.446s1.04.5,1.238.4-.743,0-1.04,0-.842-.3-1.139,0a3.961,3.961,0,0,1,.891,0H28.086a7.475,7.475,0,0,1,1.733.3H28.383a25.291,25.291,0,0,1,4.654.743H32a8.908,8.908,0,0,1-1.089,0,5.793,5.793,0,0,0,1.337.248,4.556,4.556,0,0,0,.792,0h1.634a3.317,3.317,0,0,0,.99,0,3.416,3.416,0,0,1-.99,0,8.516,8.516,0,0,0,2.228,0H34.621a12.031,12.031,0,0,1-2.475-1.188c-1.238-.347-2.475-.594-3.713-1.04a42.134,42.134,0,0,1-4.109-1.683,34.656,34.656,0,0,1-10.941-8.268,61.044,61.044,0,0,1-4.357-5.644s.545.743.644.693l-.446-.644h0a5.3,5.3,0,0,1-.792-1.238.446.446,0,0,0,0,.248c-.3,0-.5-.99-.644-1.238l-.743-1.832h0a2.327,2.327,0,0,0-.248-.5,8.368,8.368,0,0,1-.5-1.337c.594,1.337,1.238,2.624,1.881,3.911l-.5-.842a3.317,3.317,0,0,0-.05-.4,7.179,7.179,0,0,1,.594,1.238,3.223,3.223,0,0,0,.446.743,1.188,1.188,0,0,1-.3-.4,6.337,6.337,0,0,0,.545.99l.545.792a2.625,2.625,0,0,1,.594.842c.05.3-.4-.5-.5-.594a4.969,4.969,0,0,0,.594.792l.693.743a25.794,25.794,0,0,1-3.02-5.793,9.9,9.9,0,0,1,.792,1.386s0-.3-.248-.347.594.891.941,1.386a5.4,5.4,0,0,1-.4-.743l.99.941s.693.99.644,1.139l-.644-.594a4.951,4.951,0,0,1,.594.99c.3.4.545.842.792,1.238L9.917,52.826s-.4-.693-.545-.693.347.545.446.644l.446.545a2.575,2.575,0,0,0,.5.545l.5.644h-.3s.594.941.693,1.04l.792,1.089-.743-.792a1.971,1.971,0,0,1-.347-.446c-.05-.149.446.3.545.5s-.842-.792-1.139-1.188.4.941.792,1.139,0-.248-.3-.248a4.109,4.109,0,0,1,.594.792h0a18.465,18.465,0,0,0,1.386,1.535l.5.594a3.565,3.565,0,0,0,.891.842h.248s-.792-.446-.891-.693.891.743.891.743a9.518,9.518,0,0,1-.842-.644c0-.05,1.188.99,1.386,1.139a5.3,5.3,0,0,1,.792.693,15.348,15.348,0,0,0,2.277,1.733c.594.5,1.238.891,1.881,1.337a15.743,15.743,0,0,0,1.98,1.139,8.218,8.218,0,0,0,1.337.644h-.545a4.357,4.357,0,0,1,1.089.5h-.3l.792.3s.743.4.891.347h-.3a6.337,6.337,0,0,1,1.634.545h-.693a4.01,4.01,0,0,0,1.238.4h0a4.406,4.406,0,0,1,.941.347l1.089.3a6.337,6.337,0,0,0,1.436.4h-.347a16.09,16.09,0,0,0,2.228.4h.5a8.366,8.366,0,0,1,1.139,0l-1.287-.347a6.732,6.732,0,0,0-1.634-.3h0s-.842,0-1.139-.3l-1.238-.4c-.891-.4-1.832-.644-2.723-1.04a8.316,8.316,0,0,0,1.188.3l1.782.644,1.931.545a21.079,21.079,0,0,1,2.426.5h.5a8.517,8.517,0,0,0,1.584,0h1.436a3.416,3.416,0,0,1-1.238,0h-.1a6.634,6.634,0,0,1,.99,0h1.238a26.932,26.932,0,0,1,2.822,0,3.961,3.961,0,0,1-1.337,0h-.99a7.377,7.377,0,0,0,2.525,0h3.862a32.477,32.477,0,0,0,4.357-.941,8.218,8.218,0,0,0,1.733-.891l2.129-1.089c.891-.446,1.782-.891,2.624-1.386l1.139-.693c.248,0,.545-.5.792-.545a4.654,4.654,0,0,0-1.089.594l-1.238.693c-.842.4-1.683.842-2.574,1.188a19.21,19.21,0,0,1-2.772,1.139l-1.535.5a8.071,8.071,0,0,0-1.287.347s.99-.4,1.188-.5a15.891,15.891,0,0,1,1.634-.594s-.446.3-.5.248.5,0,.594-.248l.792-.347h0l-.347.248s.5,0,.644-.248L52.2,65.7c.693-.3,1.287-.743,1.931-1.089l1.584-.842c.5-.3.941-.693,1.436-1.04a8.96,8.96,0,0,0-1.238.792s.644-.5.792-.594l1.584-1.04,1.436-1.04a6.783,6.783,0,0,1,1.188-.891,17.378,17.378,0,0,1-1.683,1.634s.545-.693.842-.743h0L61.6,59.262c.248,0,.842-.644.941-.891s-.5.594-.693.842l-.792.99c.743-.792,1.535-1.584,2.228-2.475l.792-.891.792-.842a3.569,3.569,0,0,0,.644-.743c-.248.792-1.287,1.238-1.535,2.03a2.574,2.574,0,0,1,.5-.545l.644-.792a8.763,8.763,0,0,1,.792-1.089v.4a11.633,11.633,0,0,0,.941-1.238c.3-.4.5-.792.743-1.188s.4-.941.594-1.04a7.724,7.724,0,0,0-.3.743l.5-.99a5.545,5.545,0,0,0,.5-1.089,6.485,6.485,0,0,1-.842,1.386l-1.089,1.485a30.993,30.993,0,0,1-2.228,2.822,33.37,33.37,0,0,1-6.981,5.941c.99-.842,1.881-1.733,2.822-2.624l.792-.743c.3-.248.545-.842.891-1.04a11.437,11.437,0,0,0-1.188.99,37.381,37.381,0,0,1,2.921-2.673c.743-.693,1.485-1.535,2.178-2.327a9.159,9.159,0,0,0,1.584-1.832c.3-.545.545-1.188.842-1.782a4.208,4.208,0,0,0,.5-1.386s-.545.792-.644.99a12.448,12.448,0,0,1-.693,1.04v.3a3.814,3.814,0,0,1-.446.644A4.951,4.951,0,0,0,67.99,50.4a8.069,8.069,0,0,0,.545-1.139,14.455,14.455,0,0,0,.842-1.782,2.823,2.823,0,0,1,0,.693c.248,0,.4-1.04.5-1.287s.644-1.485.891-2.228a13.169,13.169,0,0,0,.891-3.02,8.912,8.912,0,0,0-1.04.941Zm0-11.734v.347a1.584,1.584,0,0,1,.149-.347Zm0,.644a.94.94,0,0,1,0,.4v-.4Zm0,0a1.881,1.881,0,0,1,0,.743,3.764,3.764,0,0,0,.05-.545Zm0,1.386a3.663,3.663,0,0,1,0,1.04,3.466,3.466,0,0,0,0-1.238s-.1.347-.1.4Zm0,2.624a3.764,3.764,0,0,1,0,.743,3.763,3.763,0,0,1-.3-.545Zm0,1.238h0v0Zm0,0Zm0,1.04Zm-.248,1.139a14.41,14.41,0,0,0,0-1.535c0,.644,0,1.287,0,1.881s-.594,0-.594-.149Zm-.446,0Zm0,2.277v-1.98a8.416,8.416,0,0,0,0,1.287,7.377,7.377,0,0,0,0,.891ZM60.762,53.915a.568.568,0,0,1,.446-.545,5.248,5.248,0,0,0-1.089.792Zm1.931-2.475v-.3a1.733,1.733,0,0,1-.248.4s-.4.2-.4.149Zm-.3.347a.644.644,0,0,1,0-.347,3.862,3.862,0,0,0-.545.891,8.119,8.119,0,0,1-.99,1.287,3.74,3.74,0,0,1,.891-1.584Zm-1.188,1.287s.4-.594.545-.594-.446.693-.545.792a5.544,5.544,0,0,1-.842,1.04q.117-.491.2-.99Zm-1.881,1.832a18.96,18.96,0,0,0,1.436-1.386l-1.535,1.535Zm-.545,1.238Zm-.545,0,.4-.446a2.129,2.129,0,0,1-.446.5Zm-2.129,1.584s-.4.347-.446.4Zm-1.089.743Zm0,0Zm-.5.3ZM67.693,27.725h0v0ZM40.018,0Zm.99,0h-.545s.594.4.545.446Zm.4,0Zm2.624.792a7.555,7.555,0,0,0-1.188.347c-.1.1,1.188.248,1.188.248Zm2.277.891h0Zm.941.446h0Zm.347,0Zm.842.248Zm1.089,1.436-1.386-.644.842.3.941.446Zm.4.743ZM51.8,5.1a5.792,5.792,0,0,1-1.485-.693,1.287,1.287,0,0,1-.3-.3,10.549,10.549,0,0,1,1.04.446,4.06,4.06,0,0,1,.99.594s-.05.05-.149-.2ZM7.986,12.922v-.3l-.3.4A2.064,2.064,0,0,1,7.986,12.922ZM11.9,9.357l-.446.545.545-.5-.1-.05Zm10.4-6.436h.4a1.337,1.337,0,0,1-.545,0ZM18.68,4.208h0a1.634,1.634,0,0,1-.5.3Zm0,0h.347a4.951,4.951,0,0,1-.842.5ZM15.115,6.882Zm.446-.3-1.188.941L16.105,6.09c.3,0,.693-.594,1.04-.644s-.693.5-.792.594-1.287.99-1.881,1.485c.545-.5,1.139-.941,1.733-1.386Zm.743-.446-.4.347ZM14.867,7.327Zm.99-.545.743-.594Zm-.248,0h0ZM16.7,6.139l-.644.5,1.337-.99Zm.545-.5L16.6,6.09h0l-.594.4-.891.693a14.853,14.853,0,0,1,3.02-2.228,9.9,9.9,0,0,0-.891.792Zm.842,0Zm.693-.693h0l-.743.347a12.526,12.526,0,0,1,3.812-1.683,7.327,7.327,0,0,1-1.733.941,2.971,2.971,0,0,1,.644-.446C20.214,4.505,19.274,4.555,18.779,4.951Zm2.277-.545h-.545a3.162,3.162,0,0,1,.594-.3,2.674,2.674,0,0,0,.545-.05A2.327,2.327,0,0,1,21.056,4.406Zm-.545,0h0ZM28.878,1.98a7.426,7.426,0,0,1-1.436.3,9.11,9.11,0,0,0-1.485.4h.5a5.248,5.248,0,0,0-.941.3h-.4l-1.04.248-2.525.99.842-.446h.446a4.4,4.4,0,0,1-.743.3l-1.832.594L21.4,4.01l.446-.248s-.446,0-.594.248l-1.436.941a18.566,18.566,0,0,1,2.327-1.386,17.775,17.775,0,0,1,1.733-.594,21.189,21.189,0,0,1,2.673-.594l2.525-.446ZM36.6,1.634ZM29.72,1.98h.594A2.349,2.349,0,0,0,29.72,1.98Zm0,0,1.287-.248Zm3.367,0h0Zm0,0h0Zm3.317.4a6.337,6.337,0,0,0-1.485,0H33.433a13.912,13.912,0,0,0,1.436,0h3.169c-.1-.149-.792.149-1.238-.1Zm1.634.3a2.03,2.03,0,0,0-.743,0h-.5a4.951,4.951,0,0,1,1.188,0,7.426,7.426,0,0,1,1.634,0,6.288,6.288,0,0,0-1.188-.1Zm1.584,0Zm.842,0H38.731a2.277,2.277,0,0,1,1.386,0Zm1.089.4Zm0-.5a3.961,3.961,0,0,1-.743,0h.743ZM47.2,5.545Zm2.624,1.733Zm.347-.347h0ZM51.95,8.07a5.842,5.842,0,0,1-.941-.545,12.522,12.522,0,0,1,1.089.644Zm-21.982-5.1ZM.708,36.785v-.347C.708,36.785.757,36.884.708,36.785ZM1.8,46.142V45.7S1.847,46.192,1.8,46.142Zm0-20.249v-.4a6.04,6.04,0,0,1,0,.842Zm0,.3h0v.594a.941.941,0,0,0-.2-.594Zm-.446,3.515Zm.347-.743Zm0-1.089v-.2c0-.842.347-.792.3-.99a4.951,4.951,0,0,1-.3,1.287Zm0-.545v0Zm0,.743a11.387,11.387,0,0,1,0-1.931c0-.3,0-.545,0-.792a4.159,4.159,0,0,0,.446-1.139s0,.545,0,.743a7.228,7.228,0,0,0-.248.99h0A9.258,9.258,0,0,0,2,28.171Zm0-.842v-.4a1.188,1.188,0,0,1,.5.5Zm0-.792v.3a4.357,4.357,0,0,1,0-.792ZM2.045,25.3v.792a14.06,14.06,0,0,1,.891-1.337Zm2.921-6.09v0Zm-.743,3.218h0s-.05-.1-.1,0Zm1.436-3.119h0A24.754,24.754,0,0,0,4.223,22.13a2.03,2.03,0,0,1,0,.446,3.169,3.169,0,0,0-.446,1.04,5.822,5.822,0,0,1,.5-1.485l.693-1.881c.545-.891,1.188-1.683,1.782-2.574,0,.3-.693,1.733-1.04,1.782Zm.347,0a14.258,14.258,0,0,1,.842-1.733s-.891,1.436-.941,1.584ZM6.8,18.12h0v0Zm1.04-1.386L7,17.972a6.387,6.387,0,0,1,.446-.792s.248-.743.3-.594ZM6.8,17.972l-.347.644.644-1.287h0l.792-1.139ZM9.917,14.16c-.3.4-.644.743-.99,1.139s-.743,1.089-.842,1.04.4-.941.5-.941-.3.594-.545.594v-.347l.545-.792.842-.792c.446-.4.792-1.188,1.386-1.436a8.813,8.813,0,0,0-.891,1.535Zm1.832-2.03Zm3.119-3.02c-.545.5-1.139.842-1.733,1.287.644-.5,1.287-1.04,1.98-1.485Zm.545-.347Zm1.634-1.436c-.693.545-1.535.941-2.277,1.485l-2.327,1.733a8.02,8.02,0,0,1,1.04-.644h0a40.25,40.25,0,0,1,3.862-2.574Zm.3,0Zm.248,0,.5-.3a2.624,2.624,0,0,1-.446,0Zm.644,0Zm1.188-1.04h0Zm0,.5.545-.347Zm.99-.941.743-.4Zm.842,0h-.446l.545-.3Zm1.287-.891h0Zm5.941-1.832h.347a9.9,9.9,0,0,1-1.287.3Zm-1.337,0ZM24.769,4.951Zm.3,0Zm2.673-.5h0Zm6.931-.941h.347a2.673,2.673,0,0,1-.891,0Zm-5.941.5Zm.99,0h0c.347-.248,1.089,0,1.485,0C30.809,3.713,30.215,4.01,29.72,4.01Zm2.921,0H30.314a9.209,9.209,0,0,1,1.535-.3,13.912,13.912,0,0,1,2.03,0,6.238,6.238,0,0,0-1.337.2Zm1.089,0Zm.941-.05H33.532a6.139,6.139,0,0,0,.891,0h.248Zm2.971-.5h0a8.763,8.763,0,0,0-1.139,0,3.763,3.763,0,0,1,1.337,0Zm-1.436,0h-.5a3.664,3.664,0,0,0,1.04,0Zm0,0Zm-.594,0h.743a3.664,3.664,0,0,1-1.04,0Zm.693.941a3.317,3.317,0,0,0-.99,0A2.393,2.393,0,0,1,36.7,4.159Zm1.139-.594h-.3S37.691,3.763,37.443,3.812ZM1.7,37.082v.743h0a1.98,1.98,0,0,1,0-.743Zm0,2.525Zm0-.842v-.941c0-.446.1.792.1.792ZM31.007,69.312Zm-4.951-1.584h0ZM11.2,55.153Zm51.291,3.218s.3-.248.3-.347Zm4.951-10.347a12.827,12.827,0,0,0,.693-1.436c-.05-.05-.446,1.337-.545,1.535a5.545,5.545,0,0,1-.644,1.188L66.159,50.9a14.853,14.853,0,0,1,1.337-3.07Zm-.3,1.782a7.08,7.08,0,0,1-.743,1.337A11.88,11.88,0,0,1,66.951,50l.248-.446Zm-.743,0a3.515,3.515,0,0,0,.644-1.287,3.218,3.218,0,0,1-.446,1.139,16.682,16.682,0,0,1-.941,1.584s.644-1.683.792-1.584,0-.149,0-.149Zm-6.981,6.981ZM57,59.015h0a2.831,2.831,0,0,1-.4.4Zm-1.287.842h.3a2.822,2.822,0,0,1-.792.545Zm-.743.5Zm-1.584.842-1.139.545Zm-.594-1.782.4-.3a5.594,5.594,0,0,1-.891.594Zm-.644.3h0Zm-.743.4.594-.4-.842.545ZM49.524,62.53a19.258,19.258,0,0,1,2.178-.792,3.268,3.268,0,0,1-.743,0,10.6,10.6,0,0,1-1.089.5h0l-1.238.446Zm-2.277-.446,1.386-.5h-.4Zm-.545,0h.347s-.446.3-.347.2Zm0-.347h0Zm-.446,0h0s-.2.347-.149.347Zm-1.683,3.07h-.792l.99-.3h.594C45.513,64.51,44.573,64.758,44.573,64.807Zm.743,0Zm-5.2,2.129H38.582a5.693,5.693,0,0,0-1.287,0,1.832,1.832,0,0,1,.891,0h2.228s1.238-.3,1.337,0h0a4.6,4.6,0,0,1,1.139,0l1.683-.743H43.83l-1.337.248Zm1.535,0a2.278,2.278,0,0,1-.99,0s.891-.05.99.1Zm-2.03-2.574a15.4,15.4,0,0,1-2.624,0H41.4a8.169,8.169,0,0,1,1.535,0h-.3a3.515,3.515,0,0,1,.842,0,15.446,15.446,0,0,1-3.862,0h0Zm-.644.891h-.545s.545-.149.594-.1Zm-.99,0Zm-2.03-2.277h0a5.989,5.989,0,0,1,.941,0,2.178,2.178,0,0,0-.891-.05Zm-2.079,2.475H32.394a14.852,14.852,0,0,1-2.129-.5,25.7,25.7,0,0,1-4.258-1.535l1.584.446a6.386,6.386,0,0,0-.941,0l.644.248a13.515,13.515,0,0,0,1.98.545h-.347c.3.3,1.139,0,1.485.248l-1.089-.545s-1.188,0-1.287-.4h0l1.683.4a10.148,10.148,0,0,0,1.683.347l1.782.4,2.03.4a4.654,4.654,0,0,1-1.287-.1Zm-11.09-2.079h0s2.574,1.139,2.723,1.188a9.9,9.9,0,0,1-2.673-1.238Zm.5-.3,1.139.594a5.4,5.4,0,0,1-1.238-.5,2.475,2.475,0,0,0,.644,0s-.842,0-.941-.4Zm0-.99Zm-.545.792h0Zm2.03-.347Zm.693,1.535a1.188,1.188,0,0,1,.446,0l-1.139-.2Zm-1.139.941.941.4a8.615,8.615,0,0,1-1.238-.545Zm.446-.644a16.437,16.437,0,0,0,1.584.594A10.88,10.88,0,0,0,24.769,64.361Zm1.584.347h0s-.594-.347-.644-.347a2.426,2.426,0,0,1,.99,0l1.436.5Zm-.3-.347Zm3.664,0Zm-1.881-2.129-1.782-.842c.842.248,1.584.693,2.426.99l1.238.5-2.03-.644h.149ZM23.779,60.3a6.832,6.832,0,0,1-1.634-.99,9.505,9.505,0,0,1-1.04-.792,1.535,1.535,0,0,1-.446-.347,4.95,4.95,0,0,0,.891.5,7.376,7.376,0,0,1,.99.743,11.186,11.186,0,0,0,.99.644,4.7,4.7,0,0,1,1.04.446h0s1.089.3,1.089.545L24.324,60.5a2.426,2.426,0,0,0,.545,0,7.032,7.032,0,0,1-1.337-.1Zm-4.6-3.911-.446-.4h0a.743.743,0,0,1-.3-.248h0a1.386,1.386,0,0,1-.5-.446l.891.594a4.257,4.257,0,0,1-.693-.644,17.278,17.278,0,0,1,1.733,1.584l1.04.891s.594.3.644.446H21.5q-1.327-.779-2.574-1.683Zm.3,1.683v-.248l.446.347Zm0,.594Zm-.644.743s-.545-.3-.594-.446S18.729,59.411,18.828,59.411ZM16.6,58.47l-1.337-1.436a5.186,5.186,0,0,1-.4-.545,4.06,4.06,0,0,1,1.287,1.139s-.5-.446-.594-.4.99.842,1.139.99a2.03,2.03,0,0,1-.545-.347s.3.248.347.3l.743.594h-.3a7.971,7.971,0,0,0,1.139,1.089A6.832,6.832,0,0,1,16.6,58.618Zm.644.941a2.179,2.179,0,0,1-.5-.4S17.343,59.411,17.244,59.411Zm-2.971-3.565s-.3-.248,0-.347l.941.842h0Zm-2.129-5.3a2.773,2.773,0,0,1-.248-.4l.446.594-.248-.3a12.525,12.525,0,0,0,.891,1.337,8.466,8.466,0,0,0-.545-.693,2.746,2.746,0,0,1-.3-.4Zm-1.634-.3a8.565,8.565,0,0,0-.594-1.386h0a7.624,7.624,0,0,0-.4-.941,7.407,7.407,0,0,0-.545-1.683,28.319,28.319,0,0,0,2.921,6.04,9.062,9.062,0,0,1-.644-.792c0-.3-.594-.693-.644-.99h0ZM8.629,26.883v.743s.248-.941,0-.99a2.128,2.128,0,0,0,0,.248Zm0,15.892Zm-.2-15.447a.941.941,0,0,1,0,.446v-.446Zm0,13.318v.5a4.06,4.06,0,0,1-.1-.5Zm0,3.961.3.941s-.248-.99-.347-.99ZM8.679,25.15a4.456,4.456,0,0,0-.545,1.337c0,.347-.3.644-.4.99a12.427,12.427,0,0,1,.842-3.02c.446-.891.891-1.782,1.386-2.624a25.546,25.546,0,0,1,3.367-4.6,25.943,25.943,0,0,1,2.624-2.376l1.386-1.04a3.664,3.664,0,0,1,.644-.594c.248,0,.693-.594.891-.594s-.545.446-.693.5l-.4.347c.594-.4,1.188-.693,1.733-1.089a7.148,7.148,0,0,1,1.04-.743A20.1,20.1,0,0,1,23.73,9.9,20.546,20.546,0,0,1,31.4,8.416l-2.129.347H28.73a4.159,4.159,0,0,1-.594,0h1.683a12.377,12.377,0,0,1-2.872.99s.545.149.594.149H25.908a7.129,7.129,0,0,0-1.535.644l.4-.1a11.437,11.437,0,0,0-1.733.891l-1.238.545h-.4a3.961,3.961,0,0,1,1.584-.941,7.822,7.822,0,0,0,1.782-.594,3.763,3.763,0,0,0-1.04.4,14.11,14.11,0,0,1-1.535.594,9.06,9.06,0,0,0-1.584.693c-.545.3-.941.792-1.485,1.04h0l-.941.891.743-.5-.743.693s-.644.4-.644.545c-.3.3-.743.5-.99.792h0s-.5.5-.545.446h0l-.644.545s-.5.4-.5.644v-.446l.743-.891s.594-.941.792-.941-.941,1.04-1.089,1.238-.743,1.238-.941,1.287v-.3l-.545.693a1.337,1.337,0,0,0-.347.4h0a3.381,3.381,0,0,0-.594.842c-.05.248,0-.4.3-.594s-.644.693-.842.99A9.9,9.9,0,0,1,11.2,21.239a4.951,4.951,0,0,1,.347-.743h0a14.258,14.258,0,0,1,1.089-1.881,6.387,6.387,0,0,0-.5,1.188s1.238-1.584,1.287-1.733,0,0,0,.4.644-1.04.743-1.139a4.01,4.01,0,0,1-.5.446s-.545.842-.693.842h0c-.248,0-.347.545-.545.792l-.545-.1a9.506,9.506,0,0,0-.891,1.535c-.248.347-.545.693-.743,1.04a7.822,7.822,0,0,0-.347,1.139,4.654,4.654,0,0,0,0-.792,7.285,7.285,0,0,0-.594,1.386,1.287,1.287,0,0,1,0-.743,4.208,4.208,0,0,0-.545,1.287,1.237,1.237,0,0,1-.149.99Zm-.545,2.178v-.644a4.192,4.192,0,0,1-.05.644Zm0,.792a2.5,2.5,0,0,1-.347,1.535C7.936,29.161,7.936,28.616,8.134,28.121Zm1.485-6.733.3-.545Zm.99-1.584Zm.347-.4Zm.842-2.574Zm-.792.248c.4-.446.743-.891,1.188-1.337C11.847,16.189,11.4,16.635,11.006,17.081Zm.891,1.04Zm.5-2.921h0s-.1.2,0,0Zm0,2.228ZM17,13.664s-.3.347-.446.347Zm0-.347h.3a.782.782,0,0,1-.347,0Zm1.436-.99h0l-.4.347-.891.545Zm0-.594Zm2.327-.644h0Zm0,0,.545-.4a7.655,7.655,0,0,1-.743.2Zm-.3.347a12.675,12.675,0,0,1-1.733,1.089c.347-.644,1.089-.891,1.535-1.287Zm-1.634.446.4-.3s.3-.3.446-.3a2.921,2.921,0,0,0-1.04.4Zm3.02-.941.594-.3a1.782,1.782,0,0,0-.5.347s-.2-.3-.3-.248Zm.941-.4ZM27.74,8.367a5.08,5.08,0,0,0-.842.347,2.525,2.525,0,0,1,.842-.545Zm-.545,0Zm1.832,0s-.842,0-.99.347.743-.3,1.04-.4h0Zm-1.337.347h-.4c-.4,0,.693,0,.792-.347s-.3-.05-.4,0Zm0,.3,1.535-.3a11.535,11.535,0,0,1-2.525.545Zm2.624-.3-.594-.248a1.436,1.436,0,0,1,.5,0Zm.5,0Zm2.772,0h-.446a3.02,3.02,0,0,0-.693,0h.594a2.426,2.426,0,0,0,.5-.2Zm0-.5h.5a1.452,1.452,0,0,0-.4-.2Zm4.951,52.331a12.922,12.922,0,0,0,3.367-.3,13.862,13.862,0,0,1-2.872.446,13.467,13.467,0,0,1-3.169,0ZM37.691,8.565Zm.743,0h.743a3.763,3.763,0,0,1-.743.149Zm1.188.4Zm1.386-.4h-.693a2.872,2.872,0,0,1,.693,0s.248.05.1,0ZM42.3,9.11l.99.5-1.337-.644Zm-.2-.743ZM41.5,62.827l1.337-.3a2.277,2.277,0,0,1,.99,0,23.121,23.121,0,0,1-2.574.4Zm0-1.04h0Zm.347,0a1.089,1.089,0,0,1,.545,0Zm-2.228,1.584a2.822,2.822,0,0,0,.644,0A1.251,1.251,0,0,1,39.622,63.371Zm.5,0Zm-.5-.446H38.186l1.436-.2h1.04Zm-2.079-.545Zm.5.347h0ZM34.671,61.49a1.832,1.832,0,0,0-.891,0,2.03,2.03,0,0,1,.941,0h-.446a25.3,25.3,0,0,1,2.723,0,18.269,18.269,0,0,0-2.327,0Zm0,.5Zm-1.089,0Zm.347,0Zm-.693-.644a1.98,1.98,0,0,1-.941,0s1.139-.1,1.287-.1Zm-.3,0h1.089a3.862,3.862,0,0,1-.743-.248ZM34.225,8.763Zm-.5,52.578Zm2.872,0a7.327,7.327,0,0,1,1.04,0c-.3-.3-.693-.149-1.04-.2Zm.693,1.139h0a2.822,2.822,0,0,1-.644,0Zm-.446,0Zm1.386.446H39.77A3.317,3.317,0,0,1,38.236,62.926Zm.4-1.634h0s.1-.1,0-.149Zm.347,0Zm0,1.139h0Zm0,0h1.188a3.465,3.465,0,0,1-.693,0h0q-.123-.03-.248-.05Zm-.743,1.139h-.2a5.5,5.5,0,0,1,.842,0ZM37,60.054a4.951,4.951,0,0,1-1.188,0,4.357,4.357,0,0,1,1.386,0Zm-.99.248h0a1.238,1.238,0,0,1-.594,0ZM35.315,8.664Zm0,51.539Zm.644.792h.5a3.912,3.912,0,0,1-1.089,0,2.178,2.178,0,0,0-.743,0h1.337Zm-3.565,0h-.5a1.683,1.683,0,0,1,.347-.1Zm-.347.347c.594.248,1.287.248,1.881.446A26.339,26.339,0,0,1,28.086,60.1l-2.673-1.287-1.337-.792a6.337,6.337,0,0,0-1.04-.693,3.268,3.268,0,0,1,1.04.4c-.347-.3-1.04-.3-1.337-.644s.644,0,.644,0-.941-.545-1.139-.693-.4,0-.446-.347h0s-.792-.347-.792-.5l.891.5.792.446s-.644-.3-.693,0,.792.446.446.3a14.457,14.457,0,0,1,1.584,1.04c.5.347.99.594,1.485.99h0s1.337.644,1.485.743l1.98.792c.743.248,1.931.5,2.921.891ZM28.136,60.8A11.338,11.338,0,0,1,26.3,60.2a6.163,6.163,0,0,0-1.188-.792,1.733,1.733,0,0,1,.842.3,3.02,3.02,0,0,1,.891.446,2.871,2.871,0,0,0,.842.3h.693a3.714,3.714,0,0,0-.792-.248h-.347a2.921,2.921,0,0,1-.693-.3.792.792,0,0,0-.3,0h.3a3.416,3.416,0,0,1-.743-.5l.99.3s.594.3.743,0h0c.347,0,.792.347,1.188.446h.644l.743.3c.248,0,1.089.4,1.287.3s-.693,0-.891,0H29.027L27.542,60.4Zm-1.089.446Zm-2.277-1.188-1.337-.644a5.5,5.5,0,0,0,.941.446l.842.5Zm0,.693Zm-1.535-.891a8.911,8.911,0,0,1-2.129-1.535l.941.5.4.4L23.829,60s-.545-.2-.545-.149Zm.3,0Zm-3.713-3.565h0a4.951,4.951,0,0,1,.941.792l-.545-.347Zm0-.347a17.08,17.08,0,0,1-1.337-1.485l1.436,1.386S19.818,55.8,19.818,55.945Zm-2.772,0h0s.5.4.644.545Zm0,2.178-.3-.248ZM16.749,55a2.277,2.277,0,0,1-.3-.545,9.9,9.9,0,0,0,1.089.941Zm-.792,0h0l-.248-.545Zm-.3-.545-.347-.4.446.446Zm-.4-1.139-.693-.891-.347-.644s.743,1.04.891,1.238a17.576,17.576,0,0,0,1.139,1.535ZM15.264,56.193Zm0-.99-.4-.743a3.317,3.317,0,0,1,.693.743Zm-2.376-5.694a4.619,4.619,0,0,0-.347-.743,7.843,7.843,0,0,0,.594.99,6.733,6.733,0,0,0,.644,1.188,5.892,5.892,0,0,1-.891-1.436Zm0,2.723Zm-.1-32.923a27.577,27.577,0,0,1,4.357-4.456,30.6,30.6,0,0,1,2.673-1.634l1.337-.792a4.951,4.951,0,0,0,1.238-.594,5.446,5.446,0,0,1-.891.693c.446,0,.743-.743,1.238-.842a4.01,4.01,0,0,0-.5.446h.4l.743-.5h.594s.693-.5.792-.4h0l1.04-.347a7.822,7.822,0,0,1-1.733.792h.347s-1.782.743-1.782.792.3,0,.3-.248a7.872,7.872,0,0,1-.891.4l-1.089.594a11.734,11.734,0,0,0-1.733.941,19.358,19.358,0,0,0-2.03,1.485l-.644.644s-.3.446-.446.5h0s-.545.446-.644.545l-1.139,1.139a14.11,14.11,0,0,0-1.139,1.287,2.3,2.3,0,0,1-.941,1.139,13.317,13.317,0,0,1,.545-1.584Zm-.644.743a.792.792,0,0,1,0-.347s0,.1,0,.347Zm.5-.693Zm7.723-6.981a7.426,7.426,0,0,0-.545.545A5.49,5.49,0,0,1,20.363,12.377Zm-.5,0Zm.545,0h.347s-.545.446-.644.545Zm1.238-.693s-.743.4-.792.594.594-.5.792-.644h0Zm1.188,0h.4A1.029,1.029,0,0,1,22.838,11.684Zm-3.02,2.129ZM18.482,15.6h0c-.149-.1-.149-.1-.2,0ZM17.145,54.46l-.3-.3s.545.446.693.545Zm.594.545h-.248l-.446-.545a2.426,2.426,0,0,1,.693.446ZM15.61,53.47a9.9,9.9,0,0,1-.743-1.485l.594.594a2.079,2.079,0,0,1,.545.743l-.594-.594c.347.3.693,1.188,1.139,1.337a2.178,2.178,0,0,1-.693-.644h0Zm.842.941s.347.5.446.5-.743-.743-.891-.99Zm.347-.4-.644-.644h0c.248,0,.545.644.792.693Zm-.446-.594a14.853,14.853,0,0,1-1.931-2.673c.446.545.891,1.04,1.287,1.584h0l.743,1.04.3.347Zm-.644-36.637-.842,1.04h0s-.545.693-.693.891a8.664,8.664,0,0,1,1.881-2.129Zm.347-.347c0-.3.594-.545.842-.842l-1.089,1.139ZM15.363,50.6Zm-.5-.4v-.3l.3.347Zm0-.693Zm0,1.238h0c0-.248-.4-.4-.545-.693Zm1.287-32.874a7.426,7.426,0,0,1,1.733-1.782Zm1.881,34.656a.5.5,0,0,1,0-.248Zm-4.654-3.02a4.951,4.951,0,0,1-.5-.842l1.238,1.98a3.215,3.215,0,0,1-.446-.545Zm0-.594v.248s-.2.05-.2-.05Zm0-29.705s0,.347-.248.347.941-1.436,1.04-1.337-.792.99-.891,1.089Zm0,2.079-.3.446a.891.891,0,0,1,.248-.347Zm.3,27.527a1.733,1.733,0,0,1,0,.4Zm-.842-26.784-.3.5Zm-.446,23.517v0Zm0-24.754s0,.4-.347.446,0-.4.347-.5Zm-.5,23.764.3.594a.873.873,0,0,0-.4-.693Zm.792,2.228c.3.693.545,1.386.891,2.03s-.5-.792-.545-.792l.4.792v-.347h0a2.673,2.673,0,0,1-.347-.644h0s-.3-.693-.347-.743a2.228,2.228,0,0,1,0-.545c0-.4-.347-.743-.446-1.139Zm-.248,1.535v-.248s0-.05,0,0Zm0-.248v.594A5.891,5.891,0,0,1,12,47.925Zm0,.347ZM13.679,50.9h0s.5.594.644.743l.5.693a9.209,9.209,0,0,1-1.089-1.683Zm0,.545v.3s.2-.545.3-.545Zm0,4.456h0l-.3-.3Zm0-.446h.248l.5.5a1.782,1.782,0,0,1-.1-.743Zm1.98,0,.446.446-.594-.545Zm1.238,0,.4.4Zm0-.842-.99-1.188a4.258,4.258,0,0,1,.644.693l1.04,1.238Zm.248-.446.693.743a2.466,2.466,0,0,0-.1-1.139Zm.594-.347.5.5Zm.446.5h0a6.182,6.182,0,0,1,.594-.4Zm1.931,2.178-.3-1.04.891.545-.446-.248A13.367,13.367,0,0,0,21.9,56.836l1.089.842h.4A3.267,3.267,0,0,1,22,56.886s.446.3.545.248-.891-.5-.99-.594a4.951,4.951,0,0,0-.842-.446Zm1.436.545h0ZM25.116,60c.248-.594-.05-.594-.347-.594a4.455,4.455,0,0,1,1.04.4s-.2-.4-.1-.4Zm-.347-.891h.347l-.743-.3Zm0,0v0Zm.446,0-.644-.3h0a5.763,5.763,0,0,0,.743.3Zm-.594-.4h-.347s.644.248.743.3Zm-.446-.3-.792-.4h0c.248,0,.693.446.891.4Zm-1.535.644a3.713,3.713,0,0,1,.594.347ZM22.1,57.232a1.881,1.881,0,0,1,.693.545Zm.792,1.634.792.5ZM21.6,57.628l.545.4Zm.693.743h0Zm1.782,1.881.842.446a3.862,3.862,0,0,1-1.04-.446ZM26.2,58.717h0s-.3-.149-.248-.149Zm.446-48.42h.4s-.446,0-.5.248Zm1.782,48.717Zm0,.891Zm.3,0ZM31.453,8.367H30.76a4.159,4.159,0,0,0,.693,0Zm-20.942,40.8s.347.644.5.941-.4-.693-.5-.891h0ZM9.917,46.39a2.455,2.455,0,0,0,.4.99A7.925,7.925,0,0,0,9.917,46.39Zm.347,2.426a3.515,3.515,0,0,1-.347-.743,5.4,5.4,0,0,1,.5.743ZM9.917,23.269v.644a9.06,9.06,0,0,1,0-1.238A2.773,2.773,0,0,1,9.917,23.269Zm0,22.477v0Zm0-1.832Zm0-4.951a10.447,10.447,0,0,1,0,1.238,10.446,10.446,0,0,1-.4-1.386ZM9.471,26.091a1.832,1.832,0,0,1,0-.693,2.822,2.822,0,0,0-.4.545Zm0,4.6a1.683,1.683,0,0,1,0,.5,1.683,1.683,0,0,1-.4-.644Zm0-5.248a4.59,4.59,0,0,1,.446-1.485h0a2.97,2.97,0,0,0,0-.545A7.426,7.426,0,0,1,8.976,25.3Zm.594,10.446h0a.644.644,0,0,1,0-.3Zm0,1.782a4.951,4.951,0,0,0,0-.941c0,.545,0,1.139,0,1.683a1.342,1.342,0,0,1-.644-.891Zm0-1.188Zm0-1.337V35.5c-.5-.446-.5-.446-.446-.5Zm0-11.09-.446-.149Zm1.04-2.129v-.347s0,.743-.347.891a5.892,5.892,0,0,1-.842.594,3.317,3.317,0,0,0,.3-.743,2.525,2.525,0,0,0,.347-.743,1.782,1.782,0,0,1,0,.545Zm.248-.4a.446.446,0,0,1,0,.3Zm0,21.883v-.248a3.169,3.169,0,0,0,0,.347Zm0,4.654h0a.446.446,0,0,1,0-.347Zm0,.743h0a2.624,2.624,0,0,1-.4-.842Zm-1.04-11.238h0v0Zm0,8.516a1.782,1.782,0,0,1,0-.446A1.782,1.782,0,0,1,10.313,46.093Zm-.4-19.061a.792.792,0,0,1,0-.446v.446Zm.5-.3a2.376,2.376,0,0,1,0-.891A5.991,5.991,0,0,1,10.412,26.735Zm.347-4.951a7.115,7.115,0,0,1,.446-1.04,2.673,2.673,0,0,1,.347-.644c0,.347-.347.693-.5,1.089s-.347.792-.3.842Zm.4-1.436Zm.446,0Zm0,23.269a.99.99,0,0,1,0-.4Zm0,1.634Zm0,.5a2.772,2.772,0,0,1,0-.594,2.773,2.773,0,0,1-.05.594Zm0-.545Zm0-.347v0Zm0-.792Zm0-.248v-.347a1.04,1.04,0,0,1-.347.347Zm0,.3Zm0,4.406v.446l-.3-.594Zm0,2.079v.347l-.347-.545Zm0,.4a6.29,6.29,0,0,0,.347.594,6.288,6.288,0,0,1-.5-.594Zm0-1.485v0Zm0-.347h0l.446.594a1.9,1.9,0,0,1-.693-.594Zm0-2.872a.693.693,0,0,1,0-.347,1.238,1.238,0,0,1,0,.446Zm0-.4h0v0Zm0-24.754v.3a2.674,2.674,0,0,0,0-.545s.149.4.1.446Zm1.782-3.565ZM8.827,26.388v-.5c0,.1,0,.594-.248.545ZM11.8,46.934v-.347l.4.792Zm1.089,5.793v.3a2.673,2.673,0,0,1-.446-.594Zm0,.693c0,.347.545.693.792,1.089a9.357,9.357,0,0,1-1.238-1.535Zm0,0Zm0,.3.347.347Zm-.693,0a4.506,4.506,0,0,0,.545.792s-.1-.743.05-.792Zm.693,1.089s.4.3.4.4l-.149-.743Zm0-1.634h0s-.743-1.188-.792-1.188a13.219,13.219,0,0,1,1.188,1.584ZM17,56.638h0l-.446-.446a5.892,5.892,0,0,1,.99.941Zm2.228,1.139.891.545h0l-.3-.545Zm4.951,2.475a5.7,5.7,0,0,1,1.238.594q-.188-.288-.347-.594Zm3.713.941h.446a1.485,1.485,0,0,1-.644,0Zm3.07,1.04Zm2.079.347h-.05a2.377,2.377,0,0,1,1.188,0Zm.545,0h0Zm-.5,0Zm-.941,0Zm1.535.347h0Zm.842.594Zm-.3-.545Zm-.842-.594h1.287s-1.931-.3-2.079-.248h.4a6.286,6.286,0,0,1-1.337,0c.5,0,.941.3,1.436.347H30.611a13.056,13.056,0,0,0-1.485-.5,2.871,2.871,0,0,1,.891,0,8.564,8.564,0,0,0-1.188-.5h5.446Zm-1.832-.3Zm3.317.347Zm.842,0h.5a3.565,3.565,0,0,1-1.436,0Zm-.545.3Zm.644,0h.149a4.406,4.406,0,0,1,1.139,0Zm5.743,2.426h2.129a3.849,3.849,0,0,1-1.238-.1Zm1.337-.3a1.881,1.881,0,0,1-.743.248ZM42,65.5h.644s.4-.149.248-.1Zm0-.594Zm1.386-.545h-.347a3.119,3.119,0,0,1-.941,0l1.139-.248h0a4.951,4.951,0,0,0,1.238-.3A2.376,2.376,0,0,1,43.385,64.361ZM41.7,65.2h.4a8.96,8.96,0,0,1-1.535.248Zm0-.545h0Zm2.822.743h0Zm-.4-1.139h-.545l.99-.5a9.9,9.9,0,0,0,1.386-.3s-.693,0-.842.3Zm2.03-1.535h0Zm-.693,0h.644l-.842.248Zm0,.347a13.516,13.516,0,0,1-2.03.5,20.25,20.25,0,0,1-2.971.347,6.387,6.387,0,0,0,.941,0H42.84a3.961,3.961,0,0,1,2.624-1.337Zm-1.535,0a4.208,4.208,0,0,0,.842,0s-.594-.545-.842-.5Zm-.594-2.624h-.4c1.139-.446,2.376-.594,3.565-.941a23.121,23.121,0,0,1-3.169.446ZM44.82,10.941h.347l.545.248a3.466,3.466,0,0,1-1.139-.99l-1.04-.3h1.04s0,.3.248.347Zm.792,48.271s1.04,0,1.238-.4-1.089.347-1.584.545Zm0,2.426Zm.5,0ZM47,59.807l-.693-.4h.347a8.515,8.515,0,0,1,1.04-.347Zm1.287-1.881s.594,0,.743-.347l1.04-.5c.644-.347,1.287-.693,1.881-1.089a8.268,8.268,0,0,1-2.129,1.238,21.041,21.041,0,0,1-2.426,1.04Zm-.1-46.142s.644,0,.792.4-.545,0-.3,0Zm3.02.594a6.139,6.139,0,0,1,1.139.842,10.942,10.942,0,0,1-1.98-1.386Zm1.782-.594.594.446c-.347-.3-.792-.545-1.188-.842a6.188,6.188,0,0,1,.594.4Zm0,0ZM53.93,55.9l-.4.3a1.238,1.238,0,0,1,.5-.4Zm0,.693-.4.3s.2-.545.347-.5Zm-.248-40.647h0s.1-.149-.049-.2Zm0,38.468h0a6.337,6.337,0,0,1-1.04.693,9.9,9.9,0,0,1,.941-.644ZM52.94,56.49h-.347a2.588,2.588,0,0,0,.594-.347Zm-.446-44.954Zm-.248,2.03s-.3-.347-.4-.347.4.248.594.4Zm0,.792a2.575,2.575,0,0,1-.5-.545s.5.248.446.347Zm0-2.921Zm-.248-.3Zm-.941,46.39a1.931,1.931,0,0,1-.693.4Zm-3.664.594h0Zm0,2.376Zm0-.941.4-.3Zm.4-.743Zm0,0,.594-.347a2.571,2.571,0,0,0,1.238-.545,12.525,12.525,0,0,1-1.485.693Zm1.238,0Zm3.911-.644-.5.3h0A28.12,28.12,0,0,1,48.583,60.4c1.436-.842,3.02-1.485,4.456-2.327Zm.545-.347ZM55.96,55.6l-.5.4a6.214,6.214,0,0,1,.842-.644Zm0-.594a9.506,9.506,0,0,1-2.129,1.584,5.842,5.842,0,0,1-1.436.792c.792-.545,1.634-1.04,2.426-1.634h0a15.1,15.1,0,0,0,1.485-1.287ZM55.019,50.8l.5-.446h0V50h0l.446-.545.545-.743a4.109,4.109,0,0,0-.347.644c0-.545.941-.891,1.139-1.386s0,.347,0,.446l.3-.5.644-1.238h.248a2.03,2.03,0,0,0,0-.446,8.613,8.613,0,0,0,.545-.891,9.309,9.309,0,0,0,.693-1.188h0a15.4,15.4,0,0,0,.743-1.535c.2-.545.4-1.386.693-2.03h0a7.525,7.525,0,0,0,.594-1.782A4.6,4.6,0,0,0,62,37.775a12.674,12.674,0,0,1,0-1.337s0-1.238,0-1.188h0a1.832,1.832,0,0,1,0-.891,2.475,2.475,0,0,0,0,1.04V34.211a16.191,16.191,0,0,0,0-2.178,35.8,35.8,0,0,0,0-4.6,8.664,8.664,0,0,1,.248,2.277c0,.594,0,1.139,0,1.683v1.04a6.04,6.04,0,0,0,0-1.634,6.485,6.485,0,0,0,0-1.386V27.527h0v-.99h0c.248-.3,0-1.089-.347-1.436a5.593,5.593,0,0,0,0-.891,6.339,6.339,0,0,1,0-1.337,4.406,4.406,0,0,0-.248-1.584,12.723,12.723,0,0,1,1.238,2.624l.3,1.386v1.238a3.861,3.861,0,0,0,0,1.089,4.655,4.655,0,0,1-.3-.743,2.525,2.525,0,0,0,0,.842q0,.668,0,1.337a14.112,14.112,0,0,0,0,2.079v.248a6.98,6.98,0,0,1,0,1.436q0,.817,0,1.634a2.327,2.327,0,0,1,0,.842,4.95,4.95,0,0,0,0-.842,11.288,11.288,0,0,1,0-1.287,4.951,4.951,0,0,0,0-2.426,6.634,6.634,0,0,0,0,1.386,12.228,12.228,0,0,1,0,1.931,6.921,6.921,0,0,1-.4,1.683c-.149.545,0,.693-.248,1.089a11.385,11.385,0,0,1,0,1.287h0v.347h0a7.229,7.229,0,0,1-.743,2.277c0,.594-.5,1.188-.743,1.782h0a6.089,6.089,0,0,0-.594,1.287l-.594.99c-.3.5-.644,1.089-.99,1.584a2.475,2.475,0,0,0-.4.594,2.476,2.476,0,0,0-.4.594s-.4.446-.446.5a1.683,1.683,0,0,1-.4.446c-.347.347-.594.743-.941,1.089s-.693.842-1.089,1.238-.99.743-1.436,1.139a17.178,17.178,0,0,0,2.03-1.436Zm-.05-34.508a3.515,3.515,0,0,1,.743.743Zm1.485,2.723v.3A.693.693,0,0,1,56.455,19.011Zm.594,1.139h0a3.469,3.469,0,0,0-.4-.5Zm.5,0a6.337,6.337,0,0,1,.644,1.436,12.626,12.626,0,0,0-.644-1.337Zm.743-2.772c-.3-.347-.545-.743-.792-1.089s.693.693.99,1.139l.99,1.485a15.694,15.694,0,0,1,1.287,2.872,5.187,5.187,0,0,1-.4-.545,5.644,5.644,0,0,1,.792,1.535,12.079,12.079,0,0,1,.693,1.386V25.5a6.435,6.435,0,0,0,0,1.04A2.525,2.525,0,0,1,61.5,25.7a5.2,5.2,0,0,0,0,1.188,12.181,12.181,0,0,0,.347,1.436v-.545a10.942,10.942,0,0,1,.4,1.832v-.4a4.654,4.654,0,0,0-.4-1.683h0v2.03a6.287,6.287,0,0,0,0,1.089,7.575,7.575,0,0,1,0,1.485.693.693,0,0,0,0-.347,6.486,6.486,0,0,1,0,1.683v.594a5.3,5.3,0,0,1,0,1.535,7.574,7.574,0,0,1-.347,1.782,3.564,3.564,0,0,1,0-1.04c0,.3-.446.842-.3,1.089v.594h0v.792a3.218,3.218,0,0,1,0,.941,9.259,9.259,0,0,0,0-1.683,14.505,14.505,0,0,1,.248-1.436,4.456,4.456,0,0,0,0-1.386,3.712,3.712,0,0,1,0-.743v.149a4.505,4.505,0,0,1,0-.842V31.884a3.663,3.663,0,0,0,0-1.04h0V28.319h0a31.338,31.338,0,0,0-.743-4.307,9.409,9.409,0,0,0-.545-1.931,8.02,8.02,0,0,0-.743-1.634,2.822,2.822,0,0,1,.4.644,15.913,15.913,0,0,1-.4-1.683c0-.4,0-.594-.347-.842s-.446-.4-.446-.594h0a7.554,7.554,0,0,0-.545-.792Zm.5-.792a1.089,1.089,0,0,1,.248.4,8.763,8.763,0,0,0-.693-.792L57.4,15.051a13.368,13.368,0,0,1,1.386,1.634Zm1.089,1.584.644,1.188-.248-.4h0a4.951,4.951,0,0,0-.842-1.188,5.52,5.52,0,0,1,.446.5Zm0,0v.248s-.3-.545-.446-.594a2.277,2.277,0,0,1,.594.347Zm0-.594a3.317,3.317,0,0,0,.3.594,3.377,3.377,0,0,1,.05-.594Zm.594,3.119a2.772,2.772,0,0,1,.347.891,4.95,4.95,0,0,0-.5-.842h0V20.2h0a3.664,3.664,0,0,1-.693-1.089,5.99,5.99,0,0,0,.5.693,4.258,4.258,0,0,1,.693.891Zm0-.842v.3a1.04,1.04,0,0,0,.3-.347Zm.842-1.089s.446.5.446.693h0a2.822,2.822,0,0,1-.4-.644,2.144,2.144,0,0,1,.248-.05Zm0,0Zm1.139,2.376A4.208,4.208,0,0,1,61.9,19.8s.248.4.3.5a5.843,5.843,0,0,1,.545.792Zm.049-1.337Zm.5,2.228-.5-.842a3.416,3.416,0,0,1,.5.743ZM62.2,19.8l-.248-.4.4.594Zm0-1.04h0s.3.3.248.4Zm-.4,4.951h0a.99.99,0,0,0,0-.4Zm-.248-.594a3.02,3.02,0,0,0-.248-.594s.248.594.4.842Zm0,0c0-.347-.743-.99-.743-1.337s.3.446.3.5Zm-.4-1.04v-.644a2.673,2.673,0,0,1,.05.446Zm0-.545h0s-.2-.149-.2-.2Zm.446.99-.347-.594a3.711,3.711,0,0,1,.149.4Zm0-1.386v-.4s.3.446.4.644Zm-1.238-1.584s.446.4.5.644a3.169,3.169,0,0,0-.842-.842Zm.545.3Zm-1.485-1.535-1.089-1.287s-.5-.446-.5-.644h0a5.6,5.6,0,0,1-.5-.644,9.1,9.1,0,0,1,.693.693,4.951,4.951,0,0,1,.594.842Zm-1.584-1.782a7.872,7.872,0,0,1,1.238,1.634,9.555,9.555,0,0,0-.842-1.04h0Zm1.238,1.832.3.4s.05-.4.05-.446Zm3.268,8.763v-.594a2.08,2.08,0,0,1,.149.594Zm0,4.406v.4a2.822,2.822,0,0,1,0-.644Zm0-.446a2.03,2.03,0,0,1,0,.792,3.861,3.861,0,0,0,.248-.792Zm0,4.951a2.822,2.822,0,0,0,0,.644v.446h0a4.951,4.951,0,0,1,.347-1.139Zm0-4.951a4.357,4.357,0,0,0,0-.792h0v.99a.693.693,0,0,0,.3-.2Zm0,.446Zm0,5.892a5.446,5.446,0,0,1-.545,1.733,9.23,9.23,0,0,1,.5-1.931c.05.149,0,.248.1.2ZM61.5,39.954a1.931,1.931,0,0,1,.248-.693l-.3.941Zm0-1.436h0a3.812,3.812,0,0,1,0-.743Zm0-.891v0Zm0-.545Zm-.693,2.178Zm.5-8.317h0a3.565,3.565,0,0,1,0-1.238v.842h0Zm-.3.5V30.151a7.378,7.378,0,0,0,0,.891c0,.3,0,.347,0,.594a18.961,18.961,0,0,1,0,2.327,9.5,9.5,0,0,0,0-1.188,6.04,6.04,0,0,0,.3-1.337Zm-.743-3.218s.446,1.139,0,1.287l-.3-1.436Zm0-.5V27.18a1.139,1.139,0,0,1,.248.545Zm0,.743a11.581,11.581,0,0,0-.446-1.881,6.486,6.486,0,0,1,.446,1.386,1.931,1.931,0,0,0,0,.743Zm-.545-4.951a2.773,2.773,0,0,1-.347-.792,5.842,5.842,0,0,1,.792,2.079,8.154,8.154,0,0,1-.347-.792c-.1-.3.5-.545.4-.743Zm-.3-2.376a1.237,1.237,0,0,0,0-.347,10.892,10.892,0,0,1,.941,1.485Zm0,23.17v0Zm0-22.378a5.4,5.4,0,0,1,.3.545Zm0,22.626Zm0-24.358v-.3l.446.594Zm.644,1.485a2.079,2.079,0,0,1,.3.693s-.446-.594-.4-.842Zm0,.5h0s-.2,0-.1.149Zm0,0a2.674,2.674,0,0,0,.248.545s-.4-.446-.5-.594Zm.842,2.971ZM58.93,19.8h0v0Zm0,1.535a2.327,2.327,0,0,0,.248.5c-.3-.446-.545-.891-.792-1.337a4.951,4.951,0,0,1,.743.792Zm3.664,4.951Zm0,.594a.261.261,0,0,1,.248.2Zm.248,6.783Zm0-6.783.3.2Zm0-4.654a1.485,1.485,0,0,1,0,.4,1.486,1.486,0,0,0,.2-.2Zm1.287,3.119Zm0,3.317s-.248-.594,0-.693.248.644.248.891Zm0-3.614v-.5a2.558,2.558,0,0,1,.3.842Zm-.248-1.337h0a1.039,1.039,0,0,0,0,.347Zm0,11.585v-.248h0a.3.3,0,0,1,.1.446Zm-.248,1.436v.5a3.07,3.07,0,0,1,0-.644ZM62.1,42.082c0,.347-.248.545-.347.842l-.4.792A5.644,5.644,0,0,1,62,41.983a4.652,4.652,0,0,0,0,.792c0-.446.644-1.139.545-1.634a2.129,2.129,0,0,1,0,.941H62.1Zm.4-1.188v-.644a6.207,6.207,0,0,1-.446,1.238c-.1.248.5-.2.545-.4Zm.446-1.188V39.36a4.555,4.555,0,0,1-.248,1.386,6.436,6.436,0,0,0,.347-.842ZM59.772,46.39a11.981,11.981,0,0,1,.891-1.782,3.416,3.416,0,0,1-.347.743c0,.4-.446.891-.693,1.337Zm0,0v-.248a1.029,1.029,0,0,1,0,.4Zm.99-1.287c.248-.5.4-1.089.644-1.584l-.3,1.04s-.4.693-.347.743Zm-1.337,2.426c-.248.347-.347.545-.248.3Zm0,3.218c.347-.4.594-.842.941-1.188L61.6,48.073v.594l-.594.693A13.716,13.716,0,0,1,59.92,50.8a1.188,1.188,0,0,0,.248-.5s-.347.5-.446.594a4.951,4.951,0,0,1-.545.743c-.5.545-1.04,1.04-1.584,1.535A15.608,15.608,0,0,1,59.425,50.747Zm-.347-.941a9.517,9.517,0,0,1-.644.842,8.75,8.75,0,0,1,.594-.842Zm0-.891v-.347a.891.891,0,0,1-.149.347Zm2.178,0-.248.4q.044-.126.1-.248Zm-1.634,2.178-.545.644a7.824,7.824,0,0,1,.594-.743Zm-1.238,1.436-.446.5a9.9,9.9,0,0,1,.891-1.139l-.446.693s-.1.1-.149.1Zm-.446.347v-.248l-.248.3Zm-.5.545-.446.4s.644-.941.891-.99-.545.693-.594.743Zm.5-3.911v0ZM54.474,55.3s-.248.248-.3,0l.842-.792c.248,0,.792-.842,1.089-.842a3.911,3.911,0,0,1-.644.644Zm.941,0h0Zm-.941.446Zm1.584-1.337s.545-.594.743-.594h0a3.911,3.911,0,0,1-1.089.891,2.278,2.278,0,0,1,.347-.248Zm-1.683.743h0l-.347.3Zm3.862-2.03A17.279,17.279,0,0,1,56.5,54.707a6.245,6.245,0,0,0,1.733-1.535Zm0-.545s.347-.4.446-.545a3.911,3.911,0,0,1-.594.743Zm.347.594v.248l.347-.4Zm.545-.545h0v0Zm.545-.545ZM61.158,50.3v.3s.2-.4.2-.248Zm4.951-9.9a28.319,28.319,0,0,1-4.06,8.218,30.1,30.1,0,0,1-3.812,4.505c.842-1.04,1.733-1.98,2.574-3.02a29.705,29.705,0,0,0,2.426-3.515,35.545,35.545,0,0,0,1.881-3.911,18.122,18.122,0,0,0,.743-2.129s0-.99.347-1.04a4.951,4.951,0,0,0-.049.941Zm-2.327,4.159Zm0,0,.594-.99s0,.99-.4.99Zm.5-.743s0-.842.248-.941-.149.842-.149.941Zm.842-2.525s0,1.238-.347,1.188a10.743,10.743,0,0,1,.347-1.188h0s.149.05.149,0Zm1.238-2.376a3.169,3.169,0,0,1,0,1.139c0-.3,0-1.089,0-1.287l.149.149Zm0-.644h0v-.693a2.03,2.03,0,0,1,.347.693Zm.4-5.941a2.079,2.079,0,0,1,0-.792,5.348,5.348,0,0,0,0,.891Zm0-5.347Zm0-.891a5.594,5.594,0,0,1,0,.891,7.226,7.226,0,0,1,0-.99Zm-.3-1.782a.693.693,0,0,1,0,.3,2.029,2.029,0,0,0,0-.4Zm-.644-.644h0s-.248-.4,0-.446Zm-.4-1.238-.347-.842c.3,0,0,.743.446.99Zm-.248-1.188a4.951,4.951,0,0,1-.347-1.436,2.651,2.651,0,0,1,.347.594q.268.408.5.842Zm-.594-2.426Zm0,.5.3.545a4.95,4.95,0,0,1-.446-.644Zm0,0s-.5-.644-.5-.891.693.347.743.644Zm-.2-1.287Zm0-.5a.619.619,0,0,0-.248-.446C63.881,16.883,64.376,17.427,64.376,17.526Zm-.743-1.584a3.244,3.244,0,0,0,.4.644c.1.05-.594-.792-.792-1.139Zm-.941-1.089h0c.4.594.743,1.188,1.089,1.782a5.152,5.152,0,0,1,.594,1.386,5.18,5.18,0,0,1-.594-.941c-.05-.149-.446-.842-.693-1.337a6.93,6.93,0,0,0-.5-.792,3.763,3.763,0,0,0-.644-.842S62.544,14.853,62.693,14.853Zm-.743-1.238a3.07,3.07,0,0,0,.446.594s-.446-.5-.545-.644Zm-.941-.693s.545.5.594.792-.644-.644-.594-.792ZM57.792,9.11c-.248-.248-.5-.545-.792-.792l-.792-.792c.248,0,1.139.792,1.287.941a8.564,8.564,0,0,1,1.139,1.188l1.386,1.386c-.594-.693-1.535-1.139-2.228-1.931Zm.4.5s.347.248.446.3l.545.545a10.694,10.694,0,0,1,1.337,1.634l-.644-.644a3.247,3.247,0,0,1-.446-.743h0S58.584,9.9,58.188,9.6Zm1.436,2.178a7.228,7.228,0,0,0-.792-.941c0,.3.693.5.941.792s.743.941,1.139,1.436a31.2,31.2,0,0,1,1.931,2.772,40.5,40.5,0,0,1,2.525,6.139v-.347s.347.842.446,1.04l.5,1.238A10.693,10.693,0,0,1,67,26.042a19.455,19.455,0,0,1,.3,2.376s0,2.772,0,2.772v-.743a4.011,4.011,0,0,1,0,1.089v1.931a15.844,15.844,0,0,0,0,2.673s0-.446,0-.594a2.97,2.97,0,0,1,0,1.139,8.268,8.268,0,0,1-.3,1.881,7.072,7.072,0,0,1-.545,1.931c-.2.644,0,.941-.4,1.04a6.534,6.534,0,0,0,.248-1.139,5.189,5.189,0,0,1,.4-1.436,7.476,7.476,0,0,0,.446-2.971,13.811,13.811,0,0,0-.347,1.98,12.722,12.722,0,0,1-.792,2.673c-.4.891-.743,1.832-1.139,2.723a19.388,19.388,0,0,1-1.089,2.525v-.3c0-.3-.347.941-.5,1.436,0-.4.446-.842.693-1.287a1.084,1.084,0,0,1-.347.941c-.347.3-.347,1.04-.644,1.287,0,.545-.842,1.139-1.139,1.634h0a9.308,9.308,0,0,0-.594.891,18.367,18.367,0,0,0-1.337,1.436l.347-.594v.347a17.821,17.821,0,0,0,1.386-1.98h0l.792-1.337h0a19.8,19.8,0,0,0,1.04-2.475,8.717,8.717,0,0,1,.644-2.03,6.634,6.634,0,0,1,.347-.891,4.947,4.947,0,0,0,0-.594h0a2.575,2.575,0,0,1,.347-1.04v.693a10.646,10.646,0,0,0,.5-1.337c.3-.842.594-1.733.842-2.673a39.608,39.608,0,0,0,.842-5.5,37.329,37.329,0,0,0,0-5.743,23.368,23.368,0,0,0-1.287-5.793l.4.842c-.3-.743-.5-1.485-.792-2.178s-.891-1.98-1.337-2.921a5.693,5.693,0,0,0-.594-1.238,6.288,6.288,0,0,1-1.683-.644,2.08,2.08,0,0,0-.347-.644s-.891-.941-.792-1.139h0a9.209,9.209,0,0,1-1.139-1.287Zm4.951,29.111Zm.941-4.555v-.4a1.683,1.683,0,0,1,0,.5Zm.4-9.555a9.309,9.309,0,0,1,.248,1.634,1.338,1.338,0,0,0-.248-.792c-.248-.248,0-.693,0-1.04s-.248.149-.2.2ZM65.564,25.1v-.594a5.5,5.5,0,0,1,.644,1.782,12.084,12.084,0,0,0-.842-1.188Zm-.5-2.03a1.733,1.733,0,0,0,0-.545s0,.594.3.743Zm-.693-1.535v0Zm0,.5ZM61.307,15.4c-.4-.792-.842-1.535-1.287-2.277A30.7,30.7,0,0,1,62.2,16.536c.347.644.644,1.238.941,1.881s.545.891.446,1.089h0s0,.644.3.743.4.891.545,1.337c0-.5-.545-1.089-.792-1.584a14.111,14.111,0,0,0,.842,2.277c.3.842.545,1.733.792,2.624a22.723,22.723,0,0,1,.5,2.525v.693a3.811,3.811,0,0,0,0,.743s0-.446,0-.594,0,1.089.3,1.337-.347-.99-.347-.99v1.535a6.881,6.881,0,0,1,0,2.03v2.327a12.97,12.97,0,0,0,0-1.386V31.686a20.892,20.892,0,0,1,0,2.426,7.33,7.33,0,0,0,0,1.04,2.426,2.426,0,0,0,0,.594s0-.5,0-.594v.594a7.872,7.872,0,0,1-.3,1.485,12.329,12.329,0,0,1-.891,3.119V38.122l-.3,1.238a7.717,7.717,0,0,1-.693,2.228,11.239,11.239,0,0,1-.99,2.822,4.109,4.109,0,0,0,.4-1.089c-.4,0-.5,1.287-.644,1.584a8.169,8.169,0,0,1-.693,1.287h0v.1a4.786,4.786,0,0,0-.347.594l-.446.792a8.07,8.07,0,0,0-.842,1.089s.4-.594.5-.693a9.31,9.31,0,0,0,.594-.891c0-.347.3-.693.5-1.089s.743-1.337,1.04-2.03c0,0,0,.4-.3.5h0a10.207,10.207,0,0,1-.644,1.04c-.149.149-.743,1.238-1.139,1.832l-1.089,1.436a4.951,4.951,0,0,1-1.139,1.287,30.745,30.745,0,0,0,4.7-7.575,24.754,24.754,0,0,0,1.436-4.456l-.049-3.812a5.447,5.447,0,0,1,0,1.287V33.815a3.961,3.961,0,0,1,0,.743V32.131h0a2.872,2.872,0,0,0,0-1.139V30a12.031,12.031,0,0,0,0-1.337h0V27.23c0-.446.347.644.3.644a6.337,6.337,0,0,0-.3-1.733s.248.693.347.941a2.327,2.327,0,0,1,0,.842c0,.5,0,.99,0,1.436V34.31a8.02,8.02,0,0,1,0,1.089,19.8,19.8,0,0,0,.545-5.694V27.477a3.366,3.366,0,0,1,0-.743v-.644a1.634,1.634,0,0,1,0-.693,4.951,4.951,0,0,0,0-.842,11.493,11.493,0,0,0-.792-2.525c-.2-.842-.792-2.327-1.139-3.466s-1.485-2.079-1.98-3.169ZM59.425,48.172a4.951,4.951,0,0,1,.941-1.535l-.446.743a6.931,6.931,0,0,1-.5.792Zm4.951-15.15v0Zm0-6.783h0s.347.1.3,0ZM61.5,17.873s.3.347.3.545a2.079,2.079,0,0,0-.3-.4l-.446-.693Zm-1.733-2.178s0,.4.347.446-.347-.545-.545-.594Zm.347.693a3.515,3.515,0,0,1,.743,1.089s.545,1.287.594,1.287a8.758,8.758,0,0,0-.594-.941,4.506,4.506,0,0,0-.4-.842,4.109,4.109,0,0,1-.545-.743,2.179,2.179,0,0,0-.4-.545,8.616,8.616,0,0,1,.891.693ZM58.98,14.853s.5.5.446.594l-.3-.594Zm.347.743a15.992,15.992,0,0,1,1.782,3.07l-.594-.792a.309.309,0,0,1-.3-.347h0a4.95,4.95,0,0,1-.5-.842v-.248a1.931,1.931,0,0,0-.4-.5l-.347-.594h0v-.3c.248,0,.446.5.594.644a3.523,3.523,0,0,1,.594.743c0,.1-.743-.545-.743-.743l-.891-.842-.248-.347a8.713,8.713,0,0,1-1.337-1.683,2.673,2.673,0,0,0,.594.446l.545.644Zm-.446-.3Zm-.347-1.139-.891-1.04c0-.248-.594-.842-.891-.941a4.951,4.951,0,0,1,1.832,2.03Zm-2.475-3.07c.99.842,1.733,1.881,2.673,2.772L56.95,12.229a4.01,4.01,0,0,1-.446-.5s-.792-.891-.792-.842.3.05.347.1ZM54.92,14.011l1.485,1.535h0l.4.446s-.446-.248-.5-.4a7.724,7.724,0,0,0,1.139,1.386l.743,1.188s.594.842.545,1.04-.347-.3-.347-.4a3.564,3.564,0,0,0,.545.941,3.763,3.763,0,0,0-.842-1.139,4.108,4.108,0,0,1,.446.792,5.842,5.842,0,0,1,.545.941c-.248-.446-.545-.842-.792-1.238s-.3-.792-.446-.842h0s-.5-.594-.545-.693A6.931,6.931,0,0,0,56.5,16.14c-.891-1.04-1.782-2.129-2.723-3.169a12.377,12.377,0,0,1,1.139.941ZM58.782,19.8Zm-4.307-6.882c-.248,0-.792-.743-1.089-.792h0a12.674,12.674,0,0,1,1.287.99Zm-.248-1.287-1.188-.743S52,10.4,51.95,10.2h0l-.4-.3a8.713,8.713,0,0,0,1.139.693ZM52.989,10.3a2.679,2.679,0,0,1,.693.545c.1.2-.743-.4-.842-.5l-.99-.446a7.327,7.327,0,0,0-1.238-.693c.3-.1,2.277.693,2.228,1.089ZM51.4,9.11a4.329,4.329,0,0,0,.99.594.545.545,0,0,1-.3,0l.842.594c-.594-.446-1.238-.743-1.782-1.188Zm-.792-.594.545.3Zm0,.792a1.238,1.238,0,0,0-.446,0s.347.3.446.3a1.546,1.546,0,0,1-.842-.3c-.3-.3.5,0,.644.347l.743.446a4.951,4.951,0,0,0-.891-.446l-.743-.891-2.03-1.386a9.78,9.78,0,0,1,1.881.99h0l.5.248h0a9.9,9.9,0,0,0,1.436.792ZM47.84,11.189h0ZM46.6,6.634h0Zm0,.4Zm0,0,.693.3Zm2.03.792a3.416,3.416,0,0,0,.743.347,1.485,1.485,0,0,1-.4-.2Zm-.644-.594h0s.446,0,.545.3h0l.446.248s.594,0,.644.3a4.951,4.951,0,0,0-1.188-.5,5.347,5.347,0,0,1-1.386-.743s1.04.4,1.287.545Zm-.446-.149Zm0,0a3.733,3.733,0,0,1-.644-.3l.743.3Zm0-.3H47l-.941-.446c.347.1,1.238.2,1.485.5ZM46.157,8.169h0Zm0-1.535Zm0-.5h.594c-.3,0-.594-.248-.891-.3Zm-.743-.2ZM44.573,7.03Zm0-.644Zm-.743-.3Zm.3,1.436h-.446c.2-.1.3-.05.248,0Zm-.347,1.287A15.3,15.3,0,0,1,45.513,9.9l1.04.594s.743.3.842.5-1.04,0-1.238-.446.594,0,.792.347l.594.3-.792-.3a12.843,12.843,0,0,1,1.485.842h-.4s.644.347.743.4a5.5,5.5,0,0,1-1.535-.743h.5a2.685,2.685,0,0,0-.545-.3c-.05,0-.891-.792-1.386-1.188a25.348,25.348,0,0,0-3.07-1.535Zm-.792-2.624Zm-.594,1.782Zm0-1.436h0Zm0-.5h-.446c.347-.1.4-.05.446,0ZM41.6,4.951Zm0-.4H42.3a1.683,1.683,0,0,1-.842-.05Zm.644,3.614h.3a2.921,2.921,0,0,0,.693.3l-2.971-.99a2.8,2.8,0,0,1,1.634.347c.545.347-.347,0-.446,0a3.812,3.812,0,0,1,.644.3Zm-1.584-.5Zm.644-1.436a2.624,2.624,0,0,1,.594,0Zm0,1.386ZM40.711,6.04h0Zm-.248,1.485h0a6.189,6.189,0,0,1-.941,0Zm-.842-1.782Zm0,1.584Zm0,.5Zm-.347-.644Zm-.99,0Zm.347.644a1.683,1.683,0,0,1-.5,0,1.684,1.684,0,0,0,.05-.2Zm-.693,0Zm-.99-2.277Zm-2.277-.594h.792a2.376,2.376,0,0,1-.792,0Zm-1.881,0h0ZM31.7,7.08h0Zm-.248-1.733h-.594a1.238,1.238,0,0,1,.594.05Zm-2.03,0a9.9,9.9,0,0,1,1.733,0,9.06,9.06,0,0,1-1.98.248Zm.99,0Zm-.347,0-.347.2Zm-2.277-.4h0Zm0,.5h.4a3.664,3.664,0,0,0-.693,0Zm-.545,0h0l-.05.2Zm-2.475.941h.3l-.3.05Zm.545.446a22.23,22.23,0,0,1,4.01-.842,20.348,20.348,0,0,1-2.971.842H26.7l-1.931.248a6.515,6.515,0,0,0-2.129.594c.792-.347,1.733-.545,2.525-.842Zm3.466,0h0Zm-.644,0Zm-.891,0h0s.149.4-.149.5Zm-.842,0h0Zm-.594,0a1.634,1.634,0,0,1-.644,0Zm-1.98.446h-.545s.248.792.4.842Zm-.743,0Zm0,.545h0Zm-.347-1.287a.444.444,0,0,0,.4-.248h.248a9.406,9.406,0,0,1-.99.891ZM23.829,5.5a4.109,4.109,0,0,1-.644.347s.2.446.3.3Zm-.446,0h0l-.446.248Zm-.3,0Zm-1.139.446a4.951,4.951,0,0,1,.891-.4l-.545.347H21.7a6.066,6.066,0,0,0-.1.941Zm0,2.673A33.864,33.864,0,0,1,26.9,6.882a21.283,21.283,0,0,0,2.327-.446h1.386a8.763,8.763,0,0,0,1.188,0s-.941,0-.941.3h.5a.891.891,0,0,1-.545,0c.792,0,1.634-.446,2.475-.446h.4a3.713,3.713,0,0,0,.743,0h.2a2.327,2.327,0,0,1,.842,0,5.347,5.347,0,0,1,.891,0h-.693a2.376,2.376,0,0,1,.594,0,4.951,4.951,0,0,1,1.238,0h-.644a14.011,14.011,0,0,0,2.079.3H36.3a20.249,20.249,0,0,1,2.971.644H36.9a3.713,3.713,0,0,1-.743,0l-1.485.842h.545a7.476,7.476,0,0,0-1.584,0H32a1.139,1.139,0,0,0,.545,0,2.871,2.871,0,0,1-.693,0H28.631l1.782-.347a9.11,9.11,0,0,0,1.98-.3h0a4.951,4.951,0,0,0-1.436,0H29.72a6.634,6.634,0,0,0-1.733,0,14.853,14.853,0,0,1-1.584.5h.347l-1.287.594.842-.248a15.942,15.942,0,0,1-2.178.693L22.69,9.9s-.5.347-.644.3,0-.248,0,0-.3,0-.347,0a8.268,8.268,0,0,1,1.386-.891s-.743.4-.941.5a10.6,10.6,0,0,1-.941.644h-.4a2.376,2.376,0,0,0-.792.4,3.713,3.713,0,0,1-.842.5l.842-.743-.2.2s-.842.644-.99.594h0c-.3,0-.743.5-1.04.644a11.04,11.04,0,0,0-1.485.99,21.635,21.635,0,0,1-2.228,1.832,8.416,8.416,0,0,1,1.188-1.089,9.9,9.9,0,0,1,1.584-1.238,23.467,23.467,0,0,1,4.8-3.02ZM19.818,11.04Zm1.337-4.01Zm-1.386.792a6.09,6.09,0,0,1,1.238-.693,4.951,4.951,0,0,1-1.485.693Zm0,1.634a4.109,4.109,0,0,1,.792-.446h.594a3.02,3.02,0,0,1-1.337.248l-.446.3-.4.347h0l-1.386.842h0A12.476,12.476,0,0,0,15.66,12.08a10.4,10.4,0,0,0-1.535,1.238h0a15.6,15.6,0,0,1,1.436-1.089A18.318,18.318,0,0,1,18.234,9.9h0a1.423,1.423,0,0,0,1.089-.446Zm-2.574,1.386Zm2.129-2.624Zm-.792,0Zm.5,0h0l-.891.545a2.971,2.971,0,0,1,.446-.446ZM17.739,9.9Zm-.248-.941-.347.248Zm-.644.3h0l-.5.5c-.1.1.594-.594.792-.594h-.3l-.842.743ZM16.4,10.743l-.446.3Zm-1.188-.3L15.66,9.9l-.792.99ZM13.135,12.13a6.882,6.882,0,0,1,1.04-1.04h0a3.763,3.763,0,0,0,.693-.347,2.426,2.426,0,0,1-.693.743c-.347.347-.792.644-1.188.99Zm1.733-1.089ZM11.5,14.556Zm-.4-.347.248-.3a4.952,4.952,0,0,1-.5.693,1.733,1.733,0,0,0,0-.4Zm-.347,1.683a25.2,25.2,0,0,1,4.951-4.456l-1.287,1.238a4.891,4.891,0,0,0,.446-.743l-.5.446a13.912,13.912,0,0,0-1.485,1.436v-.347c-.4,0-.693.941-.941,1.188l.891-.792s.792-.891.941-.891h0L12.491,14.11,11.5,15.3c-.5.594-1.089,1.089-1.584,1.683s-.891,1.287-1.436,1.832.248-.5.347-.693.446-.644.545-.842a14.288,14.288,0,0,0,1.139-1.386Zm2.228-1.98h0s-.248.1-.248,0Zm-2.327,3.862a.5.5,0,0,0,0,.248,4.357,4.357,0,0,1,.594-.743s-.347.644-.3.4Zm0-.3.5-.693Zm-.842,1.386a2.673,2.673,0,0,1-.347.644,4.109,4.109,0,0,1,.1-.644Zm-.99.941h0s-.347.792-.446.792a2.228,2.228,0,0,1,.446-.792Zm-.248-.792.248-.4a.623.623,0,0,1-.248.5c-.248.149,0,0,0-.05Zm.446.792h0q-.074,0-.149,0Zm.248-2.971.347-.347a1.931,1.931,0,0,0-.4.5l.05-.3Zm0-.4Zm-.594,1.386a3.515,3.515,0,0,1,.5-.693,9.96,9.96,0,0,1-.545.842Zm-.248,1.04h0s-.2-.1-.2-.149Zm.3,0,1.683-2.178a12.526,12.526,0,0,0-.644,1.089,4.951,4.951,0,0,0-.446.644l.347-.693s-.5.842-.545.941l-.644,1.188a13.714,13.714,0,0,1-1.089,1.832,2.178,2.178,0,0,0,.347-.941s-.4.891-.5,1.04,0,.644-.347.743a3.367,3.367,0,0,0,.347-.99s-.842,1.881-.792,1.881.644-1.881.693-2.03A13,13,0,0,0,6.5,22.576a2.426,2.426,0,0,0,0-.545,3.961,3.961,0,0,1,.4-.792c.347-.644.743-1.238,1.139-1.832q-.155.193-.3.4a8.657,8.657,0,0,1,.792-1.337Zm-.792,1.931Zm-.446,1.188v-.347l-.248.5Zm0,0a1.535,1.535,0,0,1,.248-.5,1.535,1.535,0,0,1-.347.347ZM6.6,23.814l-.545.941a8.812,8.812,0,0,1,.594-1.436Zm0,0a2.723,2.723,0,0,1-.3.941c.1-.3.149-.594.248-.842Zm-.941,1.733v.05a4.109,4.109,0,0,1,0,.743,5.644,5.644,0,0,1,.2-1.584,3.911,3.911,0,0,0-.248.891Zm0-.347a.446.446,0,0,1,.149.1Zm-.2-1.188a9.357,9.357,0,0,1,.3-.891v.941h0ZM5.807,23.517Zm0-1.485c-.594,1.584-1.386,3.02-1.931,4.654a15.6,15.6,0,0,1,2.277-5.4,4.654,4.654,0,0,0-.3.743ZM5.213,25.1a1.782,1.782,0,0,1,.248-.347,2.426,2.426,0,0,0-.2.347Zm0-.545-.248.2a6.881,6.881,0,0,1,.3-.941,6.139,6.139,0,0,1-.05.941Zm-.594,1.535h0a4.159,4.159,0,0,1,.347-1.337s-.3,1.188-.347,1.337Zm0,.5q.011.223,0,.446a1.188,1.188,0,0,1,.05-.446Zm-.99.446.3-.99a2.5,2.5,0,0,1-.347,1.535c-.347.5.1-.4.1-.545ZM5.956,23.17Zm0,0v-.3a4.951,4.951,0,0,1-.248.792,1.782,1.782,0,0,1,.347-.5Zm.693,1.584h0v0Zm1.287-6.783h0v0Zm-.5.693a4.109,4.109,0,0,1,.4-.594c-.248.248-.248.644-.5.891Zm.3,0,.3-.347c.3-.347-.4.743-.545.99h0a21.527,21.527,0,0,1-1.139,1.931c-.149.1,0-.5,0-.594L7,19.8H7Zm-4.6,9.407a7.572,7.572,0,0,1,.347-1.436h0a20.992,20.992,0,0,1,1.485-3.763l.891-1.634c0-.347.347-.644.5-.99a3.218,3.218,0,0,0,.5-.743A5.644,5.644,0,0,1,6.1,20.942c-.446.842-.842,1.634-1.188,2.475a35.5,35.5,0,0,0-1.832,4.951.842.842,0,0,0,.05-.3Zm.347,0Zm0,0a6.386,6.386,0,0,1,0,.941,1.824,1.824,0,0,1-.05-1.139ZM1.847,37.082Zm0-.446h0a2.327,2.327,0,0,0,0,.594,1.535,1.535,0,0,1,.2-.594Zm0,1.931v-.347c0-.347.248.248.3.347Zm0-2.872a1.881,1.881,0,0,1,0-.743,3.713,3.713,0,0,1,.3.743Zm0-3.07a12.736,12.736,0,0,1-.3,3.317,13.318,13.318,0,0,1,.3-3.466,36.785,36.785,0,0,1,1.139-4.06,7.179,7.179,0,0,1-.347,1.733Zm.842-3.268a1.089,1.089,0,0,0,.3.347.545.545,0,0,1,.05-.347Zm0,1.337V30.25a2.624,2.624,0,0,1,0,.644Zm0,2.921v0Zm-.2,3.763V35.795a3.763,3.763,0,0,0,.1-1.139s0,.594,0,.792a2.723,2.723,0,0,1,.2-.792V33.022a19.8,19.8,0,0,0,.3-2.475v-.842a10.941,10.941,0,0,1,.248-1.238l.891-2.574a14.11,14.11,0,0,1-.644,2.475,7.921,7.921,0,0,0-.446,2.624,11.486,11.486,0,0,0,.347-1.881,8.417,8.417,0,0,1,.644-1.98,17.615,17.615,0,0,1-.693,3.02l.05,1.188a8.912,8.912,0,0,0,0,1.089,6.981,6.981,0,0,0,.347-1.535,8.4,8.4,0,0,1,.5-1.832A35.893,35.893,0,0,1,5.609,25.4c-.248.644-.347,1.535-.594,2.228v-.4a3.812,3.812,0,0,0-.3,1.139h0l-.3.792V30.7q-.565,1.957-.941,3.961h-.05a1.881,1.881,0,0,1,0,.743h0a4.654,4.654,0,0,0,0,1.436v-.792a21.882,21.882,0,0,1,0,3.119c0-.3,0,0,0,0a2.475,2.475,0,0,0,0,.446v1.634a25.349,25.349,0,0,0,.5,2.673l-.2-.792a35.893,35.893,0,0,0,1.98,6.436.817.817,0,0,0,.248.743c.248.248.743,1.139.644,1.287h0c.446.743.792,1.535,1.238,2.228,0-.3-.5-.545-.693-.842l-.792-1.436c-.545-1.04-1.04-2.03-1.386-2.822a25.3,25.3,0,0,1-1.584-5.743s0,.4,0,.4a8.02,8.02,0,0,0-.5-1.683,8.808,8.808,0,0,0-.5-1.881,13.318,13.318,0,0,1,.1-2.426Zm1.139,1.634v.3a5.446,5.446,0,0,1,0-.891A2.475,2.475,0,0,1,3.629,39.013Zm0-1.04Zm0,2.574h0v0Zm0-4.258a10.447,10.447,0,0,1,0-1.238A5.892,5.892,0,0,0,3.629,36.29Zm-.2,3.317Zm.941,4.01ZM7.887,54.46A19.259,19.259,0,0,1,6.2,51.885s1.139,1.386.99,1.485h0ZM6.005,51.192s-.446-.545-.4-.792.446.891.4.891Zm-3.268-9.9v0Zm0,1.139v.792c0,.248,0-.693-.3-.99Zm0,.941a6.832,6.832,0,0,1,.594,1.683s.05-.5,0-.5a7.03,7.03,0,0,1-.347-1.287Zm.5,1.188a4.653,4.653,0,0,1,.3.743A4.646,4.646,0,0,0,3.233,44.558Zm0,.941h0s.4.743.347.891ZM3.53,46.34Zm0,.99a3.218,3.218,0,0,1-.248-.99,8.841,8.841,0,0,1,.446.941,6.288,6.288,0,0,0,.3.891,3.268,3.268,0,0,0,0,.743,3.961,3.961,0,0,0,.941.594s0,.4.248.446a2.822,2.822,0,0,1-.644-1.04,7.971,7.971,0,0,1-.644-1.634ZM4.867,50.4a2.326,2.326,0,0,0,.1-.891,2.277,2.277,0,0,1,.3.842ZM6.3,54.707a21.734,21.734,0,0,1-2.376-4.951c.4.842.644,1.733,1.04,2.525s.5.891.693,1.337a7.377,7.377,0,0,1,1.04.842Zm0-.644a4.951,4.951,0,0,1-.792-1.337l.693,1.04v.5Zm1.931,2.178c-.941-1.139-1.584-2.426-2.426-3.565.5.693,1.089,1.337,1.584,2.03l.4.644s.842,1.04.792,1.188a3.3,3.3,0,0,0,.149-.347Zm2.525,1.584A17.873,17.873,0,0,1,9.52,56.341L8.629,55.2a5.446,5.446,0,0,0-.693-1.04h0a5.48,5.48,0,0,1-.545-.792l.347.3s0-.4-.248-.446l-.644-.99A12.328,12.328,0,0,1,5.758,50.1c-.347-.842-.693-1.683-.99-2.525s-.1-1.584.2-1.733h0v-.693a10.744,10.744,0,0,0-.347-1.188,10.645,10.645,0,0,0,.347,1.782,9.506,9.506,0,0,0-.446-1.584,16.734,16.734,0,0,1-.446-2.03,23.665,23.665,0,0,1-.4-3.713h0v-.1a3.763,3.763,0,0,0,0-1.04,11.338,11.338,0,0,1,0-1.832h0a10.2,10.2,0,0,1,.347-3.218v.3a6.448,6.448,0,0,0,.941-3.169c0-1.188.347-1.238.545-1.832s.248-1.287.5-1.386,0,0,0,.3A5.4,5.4,0,0,0,6.451,25.3a3.515,3.515,0,0,1,.446-.545c.248-.4.4-.891.594-1.287s.347-.891.446-.891v.644s.248-.545.3-.693l.347-.693s.4-.941.693-1.089,0,.3,0,.3a7.852,7.852,0,0,1,.545-.792c.149-.149.446-.693.693-.99a17.378,17.378,0,0,1,1.436-1.782,3.515,3.515,0,0,1-.5.693h0a8.367,8.367,0,0,0-1.089,1.436l-.891,1.337h0a4.951,4.951,0,0,1-.5.842,18.219,18.219,0,0,0-1.139,2.178.99.99,0,0,1,0-.347,3.565,3.565,0,0,1,.4-1.089s-.4.941-.5,1.188q-.3.535-.644,1.04s-.248,1.04-.446,1.089V25.6a9.06,9.06,0,0,1-.4,1.238h0a8.268,8.268,0,0,1-.4,1.485v-.4c0-.1-.248.693,0,.792h0a7.674,7.674,0,0,1,0,1.04,2.327,2.327,0,0,0,0,.842v-.545a10.446,10.446,0,0,1-.891,1.04h0s-.5,2.872-.545,3.119a6.634,6.634,0,0,0,0,1.386h0v2.475a2.822,2.822,0,0,0,0,.644s.2.891.1.891h0v.743a1.089,1.089,0,0,1,0,.4h0a2.971,2.971,0,0,0,.446,1.04,2.178,2.178,0,0,1,0-.792c0,.644,0,1.337,0,1.98a9.9,9.9,0,0,1,.347,1.584v-.5s.3.891,0,.941h0a6.139,6.139,0,0,0,.5,1.535s-.446-.792-.5-.941a4.951,4.951,0,0,0,.446,1.188,2.475,2.475,0,0,0,0,.644,4.335,4.335,0,0,0-.347-.594,2.921,2.921,0,0,1,0,.941c0,.3.248.594.347.941s.347,1.139.594,1.733a9.11,9.11,0,0,0,.941,1.98s.545,1.04.743,1.089a3.812,3.812,0,0,1-.347-.792,2.525,2.525,0,0,1-.446-.792s0,0,0-.347a1.931,1.931,0,0,1,.3.545c0,.4.545.743.693,1.139h0a.647.647,0,0,0,.3.545l.594.891c.5.792,1.04,1.584,1.584,2.327a33.865,33.865,0,0,0,3.515,4.06,34.656,34.656,0,0,1-2.971-3.317ZM7.59,28.913Zm0-4.951Zm0,6.09h0a4.406,4.406,0,0,0,0,.743,1.683,1.683,0,0,1,0-.842ZM7.243,44.013Zm0-12.13h0v.644a5.446,5.446,0,0,1,0,.891h0a2.871,2.871,0,0,1,0-1.139h0a6.238,6.238,0,0,1,0-1.386,3.317,3.317,0,0,0,0,.99s.05-.05.05,0Zm-.3,2.277v-.347a6.733,6.733,0,0,1,0,.99c0,.5,0,.941,0,1.436a14.853,14.853,0,0,1,0-2.079Zm0,.3V33.171a11.139,11.139,0,0,0-.2,1.485Zm0-2.129v-.594a2.822,2.822,0,0,1,0,.644Zm0,1.139a4.951,4.951,0,0,1,0,.545s.05-.4.05-.545Zm0,8.615Zm0,2.475a3.02,3.02,0,0,0,0-.594,1.535,1.535,0,0,1,0,.594Zm0-1.782h0a3.862,3.862,0,0,1,.248.693Zm0,.842v.248c.2-.545.149-.594.2-.5Zm0-12.328v.3c0,.248.2-.545.2-.545Zm0-.545h0v0Zm0-1.485Q6.5,30.893,6.2,32.527A19.408,19.408,0,0,1,6.9,29.705c0-.347,0-1.485.545-1.535a3.763,3.763,0,0,1-.149.842ZM6.2,38.171v.743a1.98,1.98,0,0,1,.347-.99Zm0,.941s.347-.3.4-.248Zm0-2.723v1.139h0a18.467,18.467,0,0,1,0-3.317,10.694,10.694,0,0,1,.446,1.931ZM5.51,38.171v1.485c.644-.594.3-1.386.446-1.733Zm.446-3.515ZM6.2,38.369v-.3a1.386,1.386,0,0,0,0-.446,3.961,3.961,0,0,1,0,.594Zm0-.644a.3.3,0,0,1-.1-.149Zm0,.693v.5a4.951,4.951,0,0,1,0-.693s-.1,0-.05.05Zm0-5.644v1.188a1.683,1.683,0,0,0,0-.5v-.792a2.475,2.475,0,0,1,0-.594,2.03,2.03,0,0,0,0,.545Zm0,2.971v.347a2.921,2.921,0,0,1,0-.644.644.644,0,0,0,0,.149Zm0,.347a3.862,3.862,0,0,1,0,1.04v.05h0v-.594h0a2.03,2.03,0,0,0,0-.545,3.268,3.268,0,0,1,0-.693,5.446,5.446,0,0,0-.1.594Zm0,3.218A3.466,3.466,0,0,0,6.2,40a4.951,4.951,0,0,1,0-.891Zm0,1.139h0a1.188,1.188,0,0,0,0-.4Zm0-6.486v.3a9.9,9.9,0,0,1,0-3.367,6.387,6.387,0,0,1,0,1.931,4.357,4.357,0,0,0,.1.99Zm-.792,2.129h0a3.367,3.367,0,0,1,0-.693Zm0-1.089V35.7a6.09,6.09,0,0,1,.1-1.04Zm0,1.683v-.4a1.238,1.238,0,0,1,.1.248Zm0,0a2.03,2.03,0,0,1,0,.545,8.119,8.119,0,0,1,0-1.089Zm0,1.485Zm0,.4Zm0-.941a.544.544,0,0,1,.05-.1Zm0,2.277a2.475,2.475,0,0,1,0-.594Zm0,5.446a2.178,2.178,0,0,1,0,.743v-.5s0-.446.1-.347Zm0-7.674h0v0Zm-.446-5.644v-.347S5.213,32.23,4.966,32.032Zm0,10.2a1.238,1.238,0,0,0,0-.347A1.238,1.238,0,0,1,4.966,42.231Zm0-9.9v0Zm0,.842a3.713,3.713,0,0,1,0,.743,3.713,3.713,0,0,0,0-.594Zm0,1.485h0a2.03,2.03,0,0,1,0-.545Zm0,1.287v-.891a7.921,7.921,0,0,1,0,1.535,3.416,3.416,0,0,1-.347-.842Zm0,2.525h0a3.713,3.713,0,0,1,0-1.04,5.446,5.446,0,0,1,0,.891h0v.149Zm0-1.089v-.792a6.288,6.288,0,0,0,0,.99,1.089,1.089,0,0,1-.347-.4Zm0-2.723ZM6.2,43.716a1.014,1.014,0,0,0,.248.644c.248.248,0-.792-.248-.99a4.951,4.951,0,0,1,.446,1.683l.3,1.089s.446.941.347,1.139a6.387,6.387,0,0,0-.5-1.089A6.585,6.585,0,0,1,6.1,44.558l-.3-1.535a2.713,2.713,0,0,1,.2.594Zm0-1.188v.545a1.634,1.634,0,0,1,0-.644Zm.743,3.763L6.7,45.746s-.149.446-.1.446Zm-.3.594a3.218,3.218,0,0,1,0-.644s-.3.594-.347.545Zm-.3-1.188ZM7.194,49.9Zm6.486,10.644s-.594-.644-.693-.644.4.248.5.347l.792.644a.522.522,0,0,1-.5-.4c-.1-.4.891.5.891.792s-1.188-.644-1.337-.842Zm2.03,1.782Zm-.842-.347-.842-.644,1.584,1.089Zm0-.5a.842.842,0,0,1,0-.3.482.482,0,0,1,.446.4Zm.347.3a.307.307,0,0,1-.3-.248c-.05-.248.4.149.446.248Zm.743.99h0Zm0,0Zm0,0h0s-.693-.5-.891-.693a12.873,12.873,0,0,1,1.584,1.287,2.475,2.475,0,0,0-.4-.644Zm.594.693h0a3.713,3.713,0,0,1,.594.347Zm.545,0Zm.5.446a2.624,2.624,0,0,1,.5.3ZM19.125,65.1l-.545-.3.743.347Zm0-.347.4.248Zm.693.842a4.159,4.159,0,0,0,.693.3,2.079,2.079,0,0,1-.693-.248Zm1.436.842h0Zm-.3,0-.644-.248a2.476,2.476,0,0,0,.693.05Zm1.188-.3Zm-.5-.3,1.436.545L20.957,65.6a1.652,1.652,0,0,1-1.089-.545c-.2-.3.792.347.891.4s1.485.594,2.277.891l-2.079-.792Zm-.743-.4h0Zm1.733.693ZM21.9,65.7h0Zm-1.04-.5.842.347Zm0,0,.743.3-1.535-1.139Zm-.693,0,.693.347h0s.5.248.644.3l1.04.446a13.169,13.169,0,0,1-3.169-1.485,4.6,4.6,0,0,0,.792-.149Zm-.347-1.188Zm-.842-.3h0s.693.4.743.446-3.614-2.178-3.416-2.426a10.346,10.346,0,0,1,1.683,1.04l-.693-.3c.347.248.792.99,1.485,1.238Zm-1.238-1.337-.594-.347-.446-.347a7.567,7.567,0,0,1,.842.693Zm0,0ZM11.1,56.44l.941,1.139,1.089,1.089-.4-.347.743.644a.355.355,0,0,1,.347.3h0l.941.891,2.178,1.733-.842-.545h-.545c-.149,0,.545.4.644.5s1.139.743,1.733,1.089l-1.089-.644h-.5s.446.3.545.347a11.189,11.189,0,0,0,1.287.792c-.743-.4-1.436-.842-2.129-1.287A10.447,10.447,0,0,1,14.719,60.9a17.773,17.773,0,0,1-1.881-1.98s-1.634-1.98-1.683-1.98Zm-.446-.644s-.3-.347-.4-.446Zm0,0a5.644,5.644,0,0,1-.743-1.04ZM9.075,53.37l.99,1.584c-.3-.446-.644-.792-.891-1.238l-.5-.842a1.93,1.93,0,0,0,.3.248Zm-.446-.743v-.3a1.782,1.782,0,0,1,.347.5ZM7.194,49.162c.446,1.089.941,2.228,1.436,3.317a9.9,9.9,0,0,0-.693-1.238,8.119,8.119,0,0,1-.693-1.485V49.41c0-.347-.248-.446-.347-.693v-.446a4.951,4.951,0,0,0,.2.644Zm0-.594v.347a6.486,6.486,0,0,1-.743-1.832A3.773,3.773,0,0,0,6.9,48.321Zm.3-.5A7.822,7.822,0,0,1,6.8,46.291a11.734,11.734,0,0,0,.842,1.782,1.114,1.114,0,0,0,.248.693,3.169,3.169,0,0,0-.693-.941Zm.446.941v0ZM6.8,45.053a9.308,9.308,0,0,0,.446,1.485l.545,1.98a30.844,30.844,0,0,1-2.03-9.9c0,.3,1.188,4.951,1.089,4.951s0-.743-.4-.891,0,1.089.248,1.386A5.157,5.157,0,0,1,7.293,45.7a2.575,2.575,0,0,0-.3-.644,6.535,6.535,0,0,1,.743,1.931c0,.5.5.941.594,1.436,0-.248-.347-.545-.446-.792a3.07,3.07,0,0,1-.347-.941A11.832,11.832,0,0,0,6.8,45.053Zm1.089,2.921h0a1.909,1.909,0,0,0,.594.99,3.02,3.02,0,0,1-.594-.99Zm.644,1.287.248.446a8.656,8.656,0,0,0-.545-.891Zm-.3,0Zm.347.5-.347-.644a2.228,2.228,0,0,1,.545.842Zm.594-.693a2.128,2.128,0,0,0,0-.248l.347.693Zm.3,1.584v-.3l.446.792Zm.446-.3.446.644a1.98,1.98,0,0,0,.347.644A4.307,4.307,0,0,1,9.917,50.35ZM9.917,50.35Zm.693,1.386Zm.545,1.337c-.347-.545-.594-1.089-.891-1.634a8.565,8.565,0,0,0,.842,1.04h0s.644.644.594.842h0s.891.99.792,1.04a10.369,10.369,0,0,1-1.535-1.436Zm1.436,1.832a5.545,5.545,0,0,0-.891-.99l.644.891a4.01,4.01,0,0,1-.842-1.188c.3.545.891.842,1.188,1.386Zm0,1.485v-.3l.891.99Zm.644-.693Zm0,1.782Zm1.287,0a3.416,3.416,0,0,1-.545-.644,2.857,2.857,0,0,0-.4-.5,11.7,11.7,0,0,0,1.139,1.337Zm0-.594a27.576,27.576,0,0,1-4.6-7.377,36.141,36.141,0,0,1-1.832-4.951s0,.446.248.446a18.566,18.566,0,0,0-.5-1.931,1.881,1.881,0,0,0,0-.743,7.674,7.674,0,0,1,.248,1.139,10.941,10.941,0,0,0,0,1.238l.743,2.475a27.923,27.923,0,0,0,1.931,4.307,25.843,25.843,0,0,0,2.574,3.961,15.3,15.3,0,0,0,1.634,1.931s.842.693.792.891l-.5-.347a5.446,5.446,0,0,1-.842-1.139Zm.743,1.436Zm0,0Zm.842,0-.594-.594s.941.5.99.792Zm.594,1.931h0Zm.594-.693a5.742,5.742,0,0,1-1.04-.792c.3,0,.693.545.99.693a3.168,3.168,0,0,0-.644-.5h.347c.3.3.693.5.99.792a1.336,1.336,0,0,1,.4.347,5.446,5.446,0,0,0-1.04-.248Zm.594,1.782h0l.693.446Zm0-.446h0l.545.347Zm.693-.99a2.476,2.476,0,0,1-.594-.4l1.089.693a1.04,1.04,0,0,1-.347,0Zm.347,1.733.4.248Zm.4.792Zm0-5.347-.4-.3.5.347Zm.3,1.188Zm.644,2.872-.446.05.842.446Zm.5,1.733Zm0,.5h0Zm0-3.466.743.446.5.3h.4l1.436.792h0a10.991,10.991,0,0,0,2.03.941l.842.4a4.357,4.357,0,0,1,1.139.347h0c-.594,0-1.139-.5-1.733-.743a30.748,30.748,0,0,1-2.921-1.287h0s-.5-.347-.644-.446L21.8,60.2a1.782,1.782,0,0,1-.594-.4.357.357,0,0,0-.4-.347Zm.5,1.931a6.385,6.385,0,0,1,.792.446,2.921,2.921,0,0,1-.941-.545Zm0,0Zm.3.594a2.674,2.674,0,0,1,.644.347,3.346,3.346,0,0,0-.743-.4Zm4.555,3.664a5.248,5.248,0,0,1-.941-.3h0a31.983,31.983,0,0,1-4.109-2.079,42.874,42.874,0,0,0,5.3,2.475Zm2.376-.545a10.694,10.694,0,0,1-2.525-.792l2.822.842Zm.99.446h0Zm.594-.3a4.358,4.358,0,0,1,.792,0s-.347.347-.545.2Zm1.436.792a3.416,3.416,0,0,0-.99,0,2.723,2.723,0,0,1,1.089,0Zm.347,0a5.644,5.644,0,0,1,1.832,0H31.849Zm1.238-.4Zm.842.693ZM33.136,65.2h1.04a3.862,3.862,0,0,0-1.089,0,7.178,7.178,0,0,1,1.485,0h-.743a4.95,4.95,0,0,0,1.188,0,6.733,6.733,0,0,1,1.337,0,15.2,15.2,0,0,0,2.624.248,19.807,19.807,0,0,1-2.971,0H36.8a18.021,18.021,0,0,1-3.416.149Zm3.416,1.139Zm-.644,0Zm-.743,0h0Zm.3-.594Zm-.792,1.535h0a3.663,3.663,0,0,1,1.04,0A5.4,5.4,0,0,0,34.671,67.282Zm.842,0Zm.5.446Zm.941,0h.941a3.069,3.069,0,0,1-1.04.248Zm1.139.644Zm1.287-1.139H35.612a2.674,2.674,0,0,1,1.089,0h1.485a3.317,3.317,0,0,0,.99,0,3.267,3.267,0,0,0,1.04,0,7.269,7.269,0,0,1-.941.248Zm.644,0h0Zm2.03.446h0Zm.644-.891a7.228,7.228,0,0,0,1.337-.4h0s1.436-.545,1.683-.4l-1.287.4Zm5.446-1.238h.693c0,.446-4.307,1.386-4.951,1.535l2.03-.693,2.129-.644h0s-.05.049,0,.049Zm-1.98,1.238Zm-.941.248.743-.248Zm-.3,0-1.139.3,1.485-.446Zm0,.248H43.385a7.871,7.871,0,0,1,1.634-.446h0A15.1,15.1,0,0,0,47,66.193a10.15,10.15,0,0,1-1.98,1.337Zm1.782-.5h0Zm2.079-.594Zm-.594.248-1.535.594a2.327,2.327,0,0,0-.693,0,3.466,3.466,0,0,1,.99-.4L48.484,66l-1.337.594,2.079-.891Zm7.03-3.218-.594.4.3-.248s.446,0,.4.1ZM57,61.886a.619.619,0,0,0-.545.347c-.149.347.594-.545.644-.5Zm0-.248a24.111,24.111,0,0,1-9.011,4.307,74.808,74.808,0,0,0,9.159-4.505Zm-2.872,0Zm5.3-3.466v0Zm1.337-.99h0s.2-.05.149,0Zm0,0a3.664,3.664,0,0,1-.644.594c.248-.248.446-.545.743-.792Zm2.079-2.574c-.248.3-3.367,3.713-3.614,3.515v-.4s-.545.594-.594.644l-.743.743A7.129,7.129,0,0,1,56.5,60.45l-1.139.693a3.317,3.317,0,0,1-1.139.644l.545-.5h0l.743-.5.446-.4a6.243,6.243,0,0,1-.644.446l-.594.4a16.336,16.336,0,0,1-1.931,1.287c-1.535.743-3.169,1.287-4.6,2.03a2.673,2.673,0,0,1,.842-.2,11.535,11.535,0,0,0-1.634.693l-1.98.5a26.733,26.733,0,0,0,3.317-1.188,8.763,8.763,0,0,0-1.832.594,9.9,9.9,0,0,1-2.03.446l2.971-.891,1.386-.446.941-.446s-1.188.347-1.386.4l-1.832.5a25.3,25.3,0,0,1,2.376-1.089A28.57,28.57,0,0,0,52.2,62.332h-.3a2.03,2.03,0,0,1,.644-.4h0a4.951,4.951,0,0,0,1.238-.644l-.644.5A18.169,18.169,0,0,1,55.762,60.1h0a26.685,26.685,0,0,0,4.258-3.218l-.594.644a33.121,33.121,0,0,0,4.6-4.951c0-.347.347-.347.5-.594s.594-1.238.792-1.238h0c.4-.743.891-1.436,1.337-2.228-.248.4-.347.891-.545,1.287s-.693,1.089-.99,1.634a20.744,20.744,0,0,1-2.178,3.02Zm2.277-2.872-.446.693Zm-.743,1.733s.3-.545.4-.693a1.436,1.436,0,0,1-.4.693Zm3.218-3.713a24.756,24.756,0,0,1-3.02,4.159c.545-.693,1.139-1.386,1.683-2.129L67.05,50.5a9.011,9.011,0,0,1,.743-1.139Z" transform="translate(0.004)" fill="#e9bc20"/>
    </g>
  </g>
</svg>
