<svg xmlns="http://www.w3.org/2000/svg" width="137.997" height="14.081" viewBox="0 0 137.997 14.081">
  <g id="Layer_2" data-name="Layer 2" style="isolation: isolate">
    <g id="Layer_1" data-name="Layer 1" transform="translate(0 0)">
      <path id="Path_1782" data-name="Path 1782" d="M138,5.647a8.594,8.594,0,0,0-.864-.059,3.349,3.349,0,0,0-.628.059c-.236.059-1.335.07,0,.094s0,.106,0,.094h-2.042s.628-.059.942-.082a5.264,5.264,0,0,0-1.335-.094h-.707s.157.106.157.2a3.141,3.141,0,0,1-.785,0s0,0,0-.07-.471,0-.628,0h0V5.729c0,.012-.393,0-.628,0h-.55c-.079,0,0,0,0-.07a5.82,5.82,0,0,0-1.021,0,.078.078,0,0,1,0-.106h-.236c-.471-.152,1.021,0,1.178-.07h0V5.424c0-.059.393,0,.55,0s0,0,0-.082.55.082.943.106-.55-.07-.471-.106a2.11,2.11,0,0,1,.471,0c.079,0,0-.094.393-.106h.314l.471-.551V4.6c0-.012.943,0,1.021,0a7.4,7.4,0,0,0-1.571-.164c-.393.059,0,0,0,.094v.106c0,.106.55.047-.471.047l-.785.082h0l-.393.07a4.3,4.3,0,0,1-1.1,0h0V4.262a.2.2,0,0,1,0-.281h0V3.922h.393V3.547c0-.035,0-.07-.55-.129a7.542,7.542,0,0,0-1.492.117c-.628.047,0-.07.471-.082h.707c-.166-.02-.263-.05-.263-.082s.1-.062.263-.082h.785c.314,0-1.021,0-1.571-.07s.55-.117.628-.211,0-.094,0-.152-1.257-.164-1.335-.235a.2.2,0,0,1,0-.211V.732h-1.335c.689.006,1.38-.006,2.042-.035h.707a.172.172,0,0,1,0,.3V.908c-.08.046-.08.095,0,.141v.141h0v.117c0,.035,0,0,.471.082l-.393.094c.628,0,.628,0,.628-.117a.275.275,0,0,1,0-.246.135.135,0,0,1,0,.223.124.124,0,0,0,0,.211s0,.117.471,0c.078-.058.078-.118,0-.176V.861a.348.348,0,0,1,0-.387c-.757-.012-1.52-.012-2.278,0h-9.9c1.166-.035,2.368-.035,3.534,0,1.282-.012,2.567-.012,3.849,0,1.2.012,2.41.012,3.613,0h1.021c.55,0,.55,0,.628.07s0,.2,0,.223v.317h0v.141a3.111,3.111,0,0,0,.471,0c.079,0,0,.211,0,.258a.328.328,0,0,1,0,.375,1.065,1.065,0,0,1,0,.7v-.27c0-.082,0-.059-.393,0-.117.093-.117.188,0,.281,0,.082.393.129.471.2a.473.473,0,0,1,0,.328v.5c.079-.03.079-.064,0-.094h0V.357c.393,0,0,.235,0,.293v.4h0V.92a.146.146,0,0,0,0-.176V.4a.185.185,0,0,0,0-.27h0q-2.237-.018-4.477,0h-9.975c-.575-.006-1.153-.006-1.728,0h-5.734c-.544-.017-1.106-.017-1.649,0-.626.011-1.259.011-1.885,0h-4.006c-1.571,0-3.063,0-4.555.07s-3.377,0-4.948,0h-3.22c-.613-.03-1.272-.03-1.885,0-.707,0,0,0-.471.07A8.441,8.441,0,0,1,86,.275c.83.024,1.683.024,2.513,0a8.128,8.128,0,0,1-1.728.07h0s-1.021,0-.785.07-.707,0,0,0-.864-.129-.864-.164h0c.048-.019.048-.04,0-.059,0-.188,0,0-.471.07V.192a.081.081,0,0,1,0,.082h0s0,.258-.785.117-.55,0-.628.106h0a.1.1,0,0,1,0-.141s.393,0,0-.059a3.2,3.2,0,0,0-.785,0c-.079,0,0,.094,0,.141a7.022,7.022,0,0,1-1.021,0h0A6.577,6.577,0,0,1,80.426.31a10.069,10.069,0,0,0-1.885.012C77.051.3,75.555.3,74.065.321H70.216a7.408,7.408,0,0,0-1.178,0c-.393.059,0,0-.55,0-.6.011-1.207.011-1.806,0-.757.012-1.52.012-2.278,0L60.163.263,58.121.216H56.943C56.527.2,56.1.2,55.686.216V.333A8.162,8.162,0,0,0,57.178.4h4.712s0-.07-.785,0,0,0-.55,0,0-.07,0-.082H57.807V.474c0,.023,0,0-.471,0H55.922c-.157,0,0,0,0-.07a5.177,5.177,0,0,0-.943.117,3.766,3.766,0,0,0-.55,0h-7.7L43.276.462h-.707a3.979,3.979,0,0,1-.628.117c-.309.012-.633.012-.942,0V.509c0-.07-.393.07-.471.07s0-.082,0-.082,0,.082-.55.07,0-.117-.55-.094,0,.106-.707.07,0-.106,0-.094h0S37.464.533,37.15.533h-.628c.725.023,1.475.023,2.2,0h2.121c.236,0-.864.129-.785.141s0-.082,0-.117a.944.944,0,0,1-.471,0c-.471-.07,0-.094-.942-.059H35.893c-.614.029-1.271.029-1.885,0,0,0,.55,0,.393-.07s-.628,0,0,0,0,.082-.55.082,0-.082,0-.117H33.38a.11.11,0,0,0,0,.07h-1.1c-1.1,0-.864.129-.864.059a2.8,2.8,0,0,0-1.1.07c.079.07,0-.07,0,0s0,.106.785.117C31.781.7,32.466.7,33.144.709l4.163.082c2.356,0,4.791.07,7.147.082,0,0-1.964,0-1.492.082.392.006.786.006,1.178,0h.707c.464-.017.95-.017,1.414,0-.57.018-1.158.018-1.728,0H39.742L39.271.92c-.862-.012-1.73-.012-2.592,0h-.864s-.864,0-.785.07,1.885,0,2.121,0l2.121.047H32.438c.55,0,0,.07,0,.082-.415.012-.841.012-1.257,0h-.864a13.931,13.931,0,0,0-1.492-.059h0c-.336-.011-.685-.011-1.021,0,0,0,0,.141-.942.094S26,1.049,25.683,1.049s0,0,0,.082,0,0-.55,0v0a11.709,11.709,0,0,0-1.571.035h4.32c.236,0,0,0,0,.07V1.225h-1.1c-.31-.011-.633-.011-.942,0V1.3a6.325,6.325,0,0,1-1.178,0h-.785c-.626.011-1.259.011-1.885,0,0,0,.628-.07,0-.082s-.471,0,0,0h0a5.669,5.669,0,0,1-.707-.129,1.322,1.322,0,0,0-.628.106h0c-.49.018-1,.018-1.492,0,0,0,1.414,0,.471-.07s-.55,0-.785,0h0c-.336-.011-.685-.011-1.021,0,0,0,0,.07-.393.07s0-.07,0-.059,0,.094.55.082c.549.006,1.1.006,1.649,0,1.229-.012,2.462-.012,3.691,0h11.86v.07c0,.07,0,0-.55-.059h0s-1.178.117-1.414.117H14.53c-.236,0,0,.141,0,.188v.915l-.393-.082c-.393-.082,0-.094,0-.129V2.093h0a.219.219,0,0,0,0,.352.454.454,0,0,1,0,.317h.079c-.471,0,0,0,0-.07s-.471,0,0,0h0a4.766,4.766,0,0,1-.707-.328h0V2.186c0-.117,0-.317-.393-.281h0v-.07a3.349,3.349,0,0,1-.471-.094h-.628V2.808s-.785-.082-.628,0,0-.094-.471-.152,0,0-.471.082h0v.094c.037.023.037.047,0,.07a.272.272,0,0,0,0,.246v.34a.414.414,0,0,0,0,.3v-.34a.364.364,0,0,1,0-.281s0-.117,0-.141H7.226a.13.13,0,0,1,0-.164h0v-.2a.249.249,0,0,1,0-.235.18.18,0,0,1,0-.27s0,.188.393.129,0-.152-.471-.235a.125.125,0,0,1,0-.211s0-.2-.393-.141,0,0,0,.059h0c-.08.058-.08.118,0,.176V3.3a.133.133,0,0,0,0,.164v.411a.1.1,0,0,0,0,.141.13.13,0,0,1,0,.164h0v.281a.485.485,0,0,0,0,.457c0,.246,0,.481,0,.727v.164c0,.047.314.047.314.047V5.94a7.26,7.26,0,0,1-1.649.246,5.874,5.874,0,0,1,.707,0c.236,0,0,.094,0,.129a1.928,1.928,0,0,0,.707-.059H7.3V6.163h.314c0,.07,0,0,.471,0s0,.188,0,.223v.023c0,.047,0,0,.471.07s0,.129,0,.176a.12.12,0,0,0,0-.152c.55,0,0,0,.471.07a.1.1,0,0,1,0,.141v.457c-.4-.01-.8-.026-1.178-.047h.628a5.608,5.608,0,0,1-.628-.094v.106c0,.106.785,0,.55.094s-.942.07,0,.094-.707.07-.942.117,0,0,0,.129-.785,0-.864,0a9.026,9.026,0,0,0,.942.094c.236,0-.55.117-1.021.164s0,0-.471,0-.471,0-.628-.07H4.948v.094c0-.023.55,0,.55.059s-.628.07-.707.094,0,.059,0,.082,0,0-.471,0H3.142L1.414,8.2H.942V8.3c0,.094-.707,0-.942,0a2,2,0,0,0,.621.095,5.648,5.648,0,0,0,.872-.024c.55-.059,1.414-.094,0-.129S2.2,8.2,1.964,8.2H3.613a4.707,4.707,0,0,0-.864.07c-.236.07.864.129,1.335.106s.707-.082.707,0-.314-.094-.236-.176a2.02,2.02,0,0,1,.393-.031,2.02,2.02,0,0,1,.393.031v.07c0,.07.393-.07.55-.07h0s0,.07.393,0,0,0,.628,0c.178-.009.371-.009.55,0,0,0,0,0,0,.082a5.819,5.819,0,0,0,1.021,0v.106h.55c.471.152-.942,0-1.178.07h0V8.52H7.226c-.157,0,0,0,0,.07A2.84,2.84,0,0,1,5.969,9c-.393-.012.471.07.393.094s-.393,0-.471.07,0,.082-.393.106-.55,0-.785,0l.393.106H4.4v.082c0,.012-.864,0-1.021,0a6.41,6.41,0,0,0,1.649.164c.471-.07,0,0,0-.082a.067.067,0,0,1,0-.117c-.079-.047-.079-.047.55-.047l.785-.07h0v-.07a3.838,3.838,0,0,1,1.1,0h0V9.81a.2.2,0,0,1,0,.281h.393v.129c-.072.034-.072.071,0,.106v.117c-.785.106-.471.106,0,.106s.864-.07,1.492-.117-.471.117-.707.117H7.854c.166.02.263.05.263.082s-.1.062-.263.082H7.069c-.314,0,1.1,0,1.571.07s-.785.164-.785.27v.152c0,.059,1.335.164,1.414.223s0,.152,0,.223v1.654H10.6c-.432.018-.852.042-1.257.07H8.64a.177.177,0,0,1,0-.3v.106c.115-.045.115-.1,0-.141,0,0,0-.07,0-.082V12.9h0c.077-.042.077-.087,0-.129,0,0,0,0,0-.07V12.6s-.628,0-.707.106a.348.348,0,0,0-.079.188c-.157-.076-.157-.158,0-.235a.114.114,0,0,0,0-.2s0-.117-.471,0c-.078.058-.078.118,0,.176v.516a.348.348,0,0,1,0,.387c.731.012,1.468.012,2.2,0h9.9c-1.166.036-2.368.036-3.534,0H8.482c-.336.012-.685.012-1.021,0H6.833c-.157,0,0-.2,0-.223h0v-.375c0,.164.393,0,.393,0v-.129a2.769,2.769,0,0,0-.471,0,.171.171,0,0,1,0-.258v-.809h0c.116-.089.116-.181,0-.27a2.079,2.079,0,0,0-.471-.2v-.328c0-.106,0-.493-.393-.5s-.079.106-.079.106h0v3.132c-.471,0,0-.246,0-.3v-.4c0-.141-.393-.106-.393,0h0v.61a.185.185,0,0,0,0,.27H20.264c.575.006,1.153.006,1.728,0h7.776c.586.064,1.137.134,1.649.211h4.006l4.555-.059c1.674-.018,3.353-.018,5.027,0,.339.006.682.006,1.021,0h1.964c.157,0,0,0,0-.07.6-.018,1.21-.018,1.806,0,0,.059-1.021,0-1.492.059.6.018,1.21.018,1.806,0,.707,0,0,0,.471-.07a8.392,8.392,0,0,1,1.335,0c-.807-.017-1.627-.017-2.435,0,0-.094,1.1,0,1.649-.07s0,0,0,.07,1.021,0,.785-.07.785,0,0,0,.943.117.864.164h0v.07c0,.07,0,0,.471-.07v-.012h0s0-.27.707-.117a4.034,4.034,0,0,0,.628-.106c.079-.047,0,0,0,.059h0a.108.108,0,0,1,0,.152h.785c.079,0,0-.094,0-.129a10.639,10.639,0,0,1,1.1,0h0A5.363,5.363,0,0,1,57.492,14c.079.023,1.021.141.785,0q2.247-.012,4.477-.059h1.806c.444-.006.891-.006,1.335,0H69.98c.757-.012,1.52-.012,2.278,0l4.32.094H79.72c.416.011.841.011,1.257,0,.229-.036.229-.093,0-.129a8.115,8.115,0,0,0-1.571-.07c-.732.006-1.467.006-2.2,0H75.321c-.471,0-1.964,0-2.278-.059a6.8,6.8,0,0,1,1.1,0h2.906a2.962,2.962,0,0,0,.864,0c.864-.07,0,0,.471,0s0,.059,0,.082h1.492v-.164c0-.035,0,0,.393,0h1.414c.079,0,0,0,0,.059a4.883,4.883,0,0,0,.942,0,3.323,3.323,0,0,1,.55.059,15.454,15.454,0,0,0,1.649,0c.547.012,1.1.012,1.649,0,.491.017,1,.017,1.492,0v-.07a12.636,12.636,0,0,0-1.649,0h1.414c1.046.012,2.1.012,3.142,0h4.084V13.8s0-.106.628-.129c.283-.011.581-.011.864,0v.082c0,.023,0-.082.471-.07s0,.082,0,.082,0-.094.55-.07,0,.117.55.094,0-.106.707-.07,0,.094,0,.094v-.059h0v.059h0v.012c0,.07,1.257-.094,1.571-.082s1.414,0,.628,0c-.7-.041-1.445-.065-2.2-.07H96.606l.864-.129v.106c0,.023,0-.059.393,0a1.963,1.963,0,0,0,.942,0h3.3c.614-.029,1.271-.029,1.885,0,0,0-.628,0-.471.082s.628,0,0,0,0-.094.628-.082,0,.07,0,.117h1.571c1.1,0,.707-.07.707,0a4.619,4.619,0,0,0,1.021-.07h0c0-.117,0-.106-.785-.117H104.7q-2.1-.058-4.241-.082c-2.356,0-4.712-.07-7.147-.082,0,0,1.964,0,1.492-.082H93.464c-.464.017-.95.017-1.414,0h9.268c.393,0,.864,0,.864-.082a19.524,19.524,0,0,0-2.2,0h5.262c-.157,0,0-.059.393-.082s.942,0,1.257,0,1.335,0,.943-.059a6.3,6.3,0,0,0,.707.059c.314-.012,0-.059,0-.07v.059c.336.011.685.011,1.021,0,0,0,0-.152.864-.094s0,.094.628.082,0,0,0-.082h.55v0a4.794,4.794,0,0,0,.943-.094q1.1.009,2.2,0H107.6c-.157,0,0,0,0-.07v.012h1.021c.336.012.685.012,1.021,0l.393-.07H112c.6-.017,1.21-.017,1.806,0,0,0-.55.07,0,.082s.55,0,0,0h0s.471.07.628.117l.707-.094h.942c.255.013.53.013.785,0h1.1c.314,0,0-.059,0-.059l.393.059c0-.106,0-.094-.471-.094H100.612V12.79c0-.059,0,0,.628,0h.393c.393,0,1.1-.106,1.335-.106.313-.006.63-.006.943,0h14.452v-.293a.41.41,0,0,1,0-.3.594.594,0,0,1,0-.516v.082a.1.1,0,0,1,0,.141v.2h0a.279.279,0,0,0,0-.34v-.328h-.079c.471,0,0,0-.393.082s.471,0,.471,0h-.471c-.471,0,.707.293.707.34V11.8a.2.2,0,0,0,0-.281c.471.082,0,.34,0,.446s0,.317.393.293h0v.07l.55.082h.236V11.347s.864.07.628,0,0,.106.471.152.471,0,.471-.07h0v-.152a.272.272,0,0,0,0-.246v-.34a.228.228,0,0,0,0-.3v.34a.352.352,0,0,1,0,.281v.141h0a.138.138,0,0,1,0,.164v.129a.272.272,0,0,1,0,.246v.27c0,.07,0-.2-.393-.129s0,.152.471.235a.114.114,0,0,1,0,.2s0,.2.393.152h0a.146.146,0,0,0,0-.176V10.631a.38.38,0,0,1,0-.411V9.588a.475.475,0,0,0,0-.457V8.074a11.568,11.568,0,0,1,1.571-.258h-.707c-.236,0,0-.094,0-.117a5.565,5.565,0,0,0-.628,0h-.55a.1.1,0,0,1,0,.106h-.785c-.156-.068-.156-.143,0-.211v.188c.117-.073.117-.15,0-.223,0-.106,0,0-.471-.059s0-.129,0-.176a.1.1,0,0,0,0,.152c-.471,0,0,0-.471-.082V6.831q.526.043,1.021.094h.628c.236,0,0,0,0-.094s-.707,0-.55-.106.942,0,0-.094.707,0,.942-.106,0,0,0-.129.785,0,.864,0a7.2,7.2,0,0,0-.943-.082,5.129,5.129,0,0,1,1.1-.164h0a2.455,2.455,0,0,1,.628.07l.471.059h0V6.186a2.87,2.87,0,0,1-.55,0s.628-.07.785-.094,0-.07,0-.094h2.042c.393,0,0,0,0-.07s.393,0,.471,0,0,0,0-.082.707,0,.943,0ZM130.143,3.7Zm0-3.1V.861c.156.068.156.143,0,.211,0-.094,0-.188,0-.293.081-.042.081-.087,0-.129h0ZM39.271.38ZM33.223.6Zm3.534,0h0s.157.059,0,.059ZM39.271.368Zm0,.211V.568c.042.031.042.063,0,.094V.521C39.271.509,39.663.544,39.271.58Zm0,0h0L39.9.626Zm-11.938.586Zm-7.854.352Zm5.655,0Zm3.849-.129h0a.063.063,0,0,1,0,.106V1.389Zm.707,0h0a.061.061,0,0,0-.079-.059Zm1.178.059h0s.079-.07-.079-.059Zm0,0h0V1.318c0-.023.628,0,.471.082s-.785-.07-.864-.023Zm.707,0h0l-.157-.059Zm.628,0c-.118-.025-.118-.058,0-.082a2.565,2.565,0,0,1-.393.035ZM4.163,8.344H3.77S4.241,8.321,4.163,8.344ZM7.854,10.35Zm0,3.1a.311.311,0,0,0,0-.258c-.117-.073-.117-.15,0-.223v.422h0Zm90.951.223Zm5.891-.235Zm-3.534-.059h0a.605.605,0,0,0,.157,0Zm-2.592.3h0s.236.023.157,0Zm0-.223v-.094a.069.069,0,0,0,0,.117v.035s-.157-.023-.079-.059Zm0,0s-.393-.035-.314-.035Zm12.174-.563Zm7.854-.352Zm-5.655,0Zm-3.77.129h0a.063.063,0,0,0,0-.106s.471.152,0,.152,0-.117,0-.164Zm-.785,0h0s0,.059.079.047Zm-1.178,0h0s-.079-.012.079-.012Zm0,0h0v.141c0,.023-.628,0-.471-.082a8.356,8.356,0,0,1,.864-.059Zm-.707,0h0l.393-.012Zm-.55,0v.082c-.058-.045.107-.089.393-.106Zm23.562-8.809Zm.079,1.994Zm0-2.182s.471.07,0,.082c.037-.019.037-.039,0-.059l-.314-.059Zm0-.375v0c0-.023-.314-.094-.314-.035Zm0-.61Zm-.471,1.02c-.1-.025-.1-.057,0-.082,0,0-.236.012-.628.047Zm0,.176h0a4.326,4.326,0,0,0-.55-.035Zm-.943-.281V3.512h.55Zm0,.141V3.629c0-.117-.471.023-.785.082Zm0,.2Zm-.864-.516h0s-.471-.035-.628-.035Zm0,1.677h0l-.55-.035Zm0-2.428a12.279,12.279,0,0,1,1.335-.317c.314-.023,0,.059,0,.094a2.739,2.739,0,0,0,.55,0c.08.046.08.095,0,.141-.471,0-.393-.094-.864-.07s-1.257.141-1.571.117Zm0,1.9Zm-.079-2.24V2.21S127.316,2.257,127.237,2.339Zm0,0Zm.55.727c-.084.026-.084.056,0,.082-.471,0,0-.094,0-.152a2.959,2.959,0,0,0,.314.035Zm0,.375v-.07c0-.07.157,0,.079.035Zm0-.176h0s-.079-.023,0-.035Zm0-.61Zm0,.164h0a.757.757,0,0,1,.157-.035Zm0,.176h.471c.471,0-.079-.047-.314-.035Zm-.471-.211h0s0-.059.157-.035Zm0,.188v.059c0,.059-.471-.047-.079-.094Zm0,.258Zm.55-.176a3.563,3.563,0,0,1,.393,0s0-.035-.157-.035Zm0,.27Zm0-1.032c.038.027.038.055,0,.082,0-.082,0-.082,0-.152s.785.012.707.035Zm0-.891h0a5.439,5.439,0,0,0,.55-.035Zm0,.094c-.2.107-.2.221,0,.328V2.21a6.086,6.086,0,0,1-.707,0c-.471,0,0-.082,0-.129a3.167,3.167,0,0,0-.707,0,.062.062,0,0,1,0-.106c0-.059,0,0,.471-.07s.628-.094.393-.106l-.785.082V1.436h0c-.042-.031-.042-.063,0-.094,0,0,0,.082,0,.106s1.649-.035,1.571.012Zm-.393-.328Zm0,0V1.025a.18.18,0,0,0,0,.27c-.048-.046.038-.093.236-.129Zm.707-.493h0s.236.023.236,0Zm-6.912,0Zm-2.749.082h1.1c.359.016.741.016,1.1,0,.468-.012.946-.012,1.414,0h-.079c.751-.024,1.527-.024,2.278,0,.724-.024,1.475-.024,2.2,0a5.313,5.313,0,0,0-.864-.012c0,.047.471,0,.55,0s1.021-.082,1.178-.082h.707c-.225.038-.491.069-.785.094-.26.006-.525.006-.785,0-.941.012-1.887.012-2.827,0h-7.3c-.393,0,1.414-.07,1.414-.129V.732c0,.012,1.021-.094.942-.023Zm7.147.411Zm0-.258h0v0Zm0,.786v0Zm0,.375Zm0,8.046Zm0-7.882c.55,0,.471.07,0,.082Zm0-.129h0s.628-.035.471-.023Zm0-.352h0s0-.059.471-.07Zm0-.117h0a4.147,4.147,0,0,1,.55-.094s.236.047.079.07Zm0-.727Zm0,.375v.129a8.225,8.225,0,0,1,.942-.152Zm0,0h0a2.9,2.9,0,0,1,.785-.059Zm0,.434Zm0,.164v.094s.942-.129,1.1-.152Zm0,.176V2.1s.942-.07,1.178-.106Zm0,8.668Zm-1.178-.54Zm0,.422Zm0,.094h0s-.471-.012-.471,0Zm0,0Zm0,.152c.393,0,.55,0,.55.059Zm.55,0h0ZM122.76,1.189h0s-.628-.023-.55.035Zm0,0h0s-.628-.023-.55-.023Zm-1.492-.023Zm0,0Zm-2.2,0h0s0,.059-.471,0Zm0-.082Zm0-.141v0Zm-.864,0h0l.157.035Zm-.393.223Zm-.471-.2Zm-4.084.2h.393c.236,0,0,.082.471.07a5.406,5.406,0,0,1-.864,0S113.649,1.166,113.257,1.166Zm-.55-.152h-.55C112,.861,114.435.99,112.707,1.014Zm0,.235h0s-.157-.023.079,0Zm0-.106Zm0-.469Zm1.021,0a5.622,5.622,0,0,0,1.021,0c.314,0,0,.117-.785.129s-.943-.059-.393-.141Zm0,0h0l-.314-.035Zm.393.364h0a5.538,5.538,0,0,0,.707,0Zm0-.469h4.163c-.517.017-1.054.017-1.571,0Zm-2.749.493a3.83,3.83,0,0,1,.785-.094s-.707.035-.943.059Zm.628.211h0s-.393-.106-.157-.035Zm4.477-.844Zm-.785.223h0s-.236-.035-.157-.035Zm0,.6Zm0-.434s.471-.129.55-.152a.069.069,0,0,0,0,.117l.55-.106a3.909,3.909,0,0,1-1.1.106Zm.707.364Zm3.377-.739Zm6.6,0h0Zm1.335,0h0s.157-.07,0-.07ZM129.279.439Zm2.435.176h0s.079-.082,0-.07ZM121.347.146Zm-4.477,0h0v0ZM115.456.11Zm-2.042,0h0Zm-1.964,0h0Zm-2.278,0h1.571a11.936,11.936,0,0,1-1.728,0Zm0,.094h10.289c1.1,0,2.749.059,2.435,0h2.435c.157,0,.785-.07,1.178-.082.6-.006,1.2-.006,1.806,0h.236c-.888.012-1.782.012-2.67,0h-3.613c-1.041-.023-2.1-.023-3.142,0-.967.012-1.939.012-2.906,0h-3.3c-.707,0-2.356.059-2.985,0ZM108.78.38h1.178c.362.012.737.012,1.1,0h-1.1s-1.571.059-1.178,0Zm.707.328c.494-.012,1-.012,1.492,0-.487.037-1.024.057-1.571.059a14.138,14.138,0,0,0-1.728,0c-.393.07.471-.059.707,0h0S109.251.709,109.487.709Zm1.178.5h0s-.157-.047,0-.047Zm-.707-.176ZM108.7.967s.628.082,0,.07S108.78.99,108.7.967Zm0,.07Zm0,.141h-.471c.047-.005.1-.009.157-.012Zm-3.142-.4V.709c0-.07.628,0,.942,0h0s0,.082-.707.082Zm0-.317h.471c.471,0-.55.012-.785,0Zm1.964,0h0a2.955,2.955,0,0,1-.314.059Zm-.707-.012h2.042C108.179.459,107.5.459,106.816.451Zm1.021,0ZM108.544.2c-.915.012-1.834.012-2.749,0h.707c.573-.012,1.155-.012,1.728,0h.393c.393,0,.079.047-.079.047ZM103.91.7a8.659,8.659,0,0,1,.942,0s0,.094-.864.07h0Zm0-.27h.942c-.373.025-.771.041-1.178.047Zm0,.786h0s-.236.023-.079.047ZM108.7.04h0s-.236.082-.079.082ZM103.6.04h.628s-1.1.152-.707.094Zm-.628.352ZM102.1.8h0Zm0,.281Zm0-.833h0s.471.047.393,0Zm-.55-.106a12.882,12.882,0,0,0,1.649,0c-.392.006-.786.006-1.178,0h-.471Zm.55.129Zm-.785.551h.628C102.575.826,101.554.838,101.318.826ZM101.318,1.107Zm0-.645Zm-.785-.281Zm0,.281h0s-.157.023-.079,0Zm0,.129ZM100.14.345Zm0,.469ZM99.355.192Zm-.55.422ZM98.491.2h.393C98.491.251,98.412.2,98.491.2Zm0,.141h-.864a4.25,4.25,0,0,1,.55,0Zm0,.246h0s-.314-.023-.236,0Zm0-.411h0c0-.07-.55.023-.471,0Zm-.707,0Zm-.628,0h0s-.55.035-.471.023ZM96.37.626V.568h1.178v.07a3.766,3.766,0,0,1-.55,0H95.506c-.471,0,.079.023.393.012Zm0-.07Zm-.55,0Zm0-.211h0c-1.571.035-1.1,0-1.1,0Zm0,.07Zm0,.211h-.707V.533a2.716,2.716,0,0,0-.864.094Zm-.785-.07h0Zm0-.141h.628c.157,0-1.964.023-2.2,0Zm-.393,0h0Zm0,.258Zm0-.059Zm-1.178.07c.135.01.222.03.222.053s-.086.043-.222.053a6.283,6.283,0,0,1-.994-.017c-.289-.031-.448-.083-.42-.136Zm0-.211h0Zm0,.223h0c.128.006.264.006.393,0h-.393ZM92.679.38Zm-.785,0h0ZM90.558.568Zm0-.082h0S90.715.462,90.4.451Zm0,.082Zm0,.106Zm0-.082h.628c.628,0-.079-.035-.314-.035Zm0,.094c.279.023.434.07.393.117A1.9,1.9,0,0,1,91.187.65Zm0-.2h.55c.157,0,.314-.035,0-.035Zm0,0h0Zm0-.188h0S91.422.216,91.579.2Zm0,.117Zm0-.117C91.03.3,90.558.357,90.558.3Zm0,.117h.628a12.058,12.058,0,0,1-2.435,0Zm-1.1.2h0s0-.106,0-.094Zm0-.117Zm0,.246V.849c-.3-.059-.3-.141,0-.2Zm-.628,0Zm0-.188h-.55c-.157,0,.079-.07.393-.047Zm-.864.117ZM87.024.462h.628C87.731.591,86.4.626,87.024.462Zm0,.117H86.4a6.907,6.907,0,0,1,.707,0Zm0,.117ZM84.746.286c.393.07,0,.07,0,.141S84.354.357,84.746.286ZM84.2.7Zm0-.281h0a.7.7,0,0,0-.157,0Zm-.942.434ZM81.84.474ZM79.248.849ZM77.6.38h0Zm-4.006.07h5.341c0,.141-.628,0-.942,0H75.007S73.593.474,73.593.451Zm5.341.3h0C78.541.638,78.541.791,78.934.755Zm-.393.023Zm0,.094Zm0-.129h0s-.55.012-.55,0Zm0,0h0ZM75.478.861ZM74.693.72ZM69.431.814Zm-.707,0Zm-.55.106h0Zm-.864,0h0s-.236-.012,0-.023ZM65.661.5ZM64.8.767h0a3.851,3.851,0,0,1-.707,0Zm-1.964.07c0-.07.55,0,0,0Zm0,0h0v0ZM59.613.615Zm-1.806,0c0-.059.471,0,.785,0h-.785ZM57.1.755h.393C57.885.755,56.943.779,57.1.755Zm0-.129Zm-.707.082h.471A2.078,2.078,0,0,1,56.393.709Zm0,.856ZM55.529,1Zm0-.117-.55-.035S55.607.814,55.529.884Zm-.55.281Zm0-.3Zm0,.176ZM52.78.673h2.2c.471,0,0,0,0,.082V.732H53.722A5.738,5.738,0,0,1,52.78.673Zm1.1.375h0C54.979.99,54.194,1.166,53.879,1.049Zm0,.117Zm0-.352h.55S53.879.826,53.879.814Zm-.471.235Zm0-.188Zm0,0h0L53.094.826Zm0,.2h0a6.223,6.223,0,0,1-.628-.035Zm0-.516h0s-.864-.023-.785-.035Zm0,.141h0S52.387.65,52.309.65Zm-1.728,0h1.1a7.074,7.074,0,0,1-.864,0h0S50.5.626,50.581.626Zm-.628,0h0a6.39,6.39,0,0,0-1.1-.07ZM49.481.626ZM42.255.415ZM40.37.709Zm0,0Zm0-.082h-.628c-.079,0,0-.106.471-.129s.785.082.628.129Zm0,.07h0a.046.046,0,0,1,0-.082Zm2.67,0H41.627V.626h2.2c.236,0,.157.047-.079.059ZM44.3.779h0A3.925,3.925,0,0,0,45,.767Zm1.1,0h-.785c-.157,0,0,0,0-.07s-.471,0,0,0-.471.082-.628.106,0-.106,0,0V.685c.392-.005.786-.005,1.178,0h2.906c.943,0-.785.129-.785,0L47.125.72h-.55c-.55,0-.157.047-.471.047ZM45.083,1.166Zm-.942,0Zm-1.964,0a9.7,9.7,0,0,1,1.021,0s0,.059-.785,0S42.1,1.166,42.177,1.166Zm0,0h0Zm0,.082h0l-.471-.082Zm-1.021-.082h0C41.156,1.084,41,1.166,41.156,1.166Zm-.707,0Zm-1.178,0h0Zm0,0Zm-.707,0Zm.707.129h.785a11.684,11.684,0,0,1-1.571,0C38.407,1.225,39.271,1.3,39.271,1.3ZM41,1.412H44.14c-1.247.031-2.506.051-3.77.059-.676.017-1.366.017-2.042,0h0V1.4C38.8,1.377,39.978,1.424,41,1.412Zm-3.456-.094h0Zm0,.082Zm0,0Zm-.785-.176h0c-.037-.023-.037-.047,0-.07Zm-.55,0V1.3a.116.116,0,0,1,0-.082Zm0,.164h1.257c0,.082,0,.082-.55.094-.256.012-.53.012-.785,0v.012h-.471Zm-1.806.07Zm-2.042-.4Zm0,.211a9.5,9.5,0,0,1,1.649-.059h1.1a26.41,26.41,0,0,1-2.827.059Zm1.649.223Zm0,0h-.55c-.55,0,0,0,0-.07h.864Zm-19.4,1.384v0Zm0-.2v0Zm108.937,8.492h0v-.117a.074.074,0,0,1,0,.117Zm0,.2v0ZM14.609,1.835v.059S14.452,1.858,14.609,1.835Zm0,10.967Zm0,.281h.628c0,.094-.628.082-1.1.082ZM14.059,3.3Zm0,0h0s.157.035.079.047Zm0-.188a2.022,2.022,0,0,1-.55-.059Zm-.55,0h0Zm0,.692Zm0-.411Zm0-.457c0-.082,0-.211.393-.27s0,.152,0,.141a.3.3,0,0,0,0,.258h0c-.231-.011-.367-.047-.314-.082Zm0,.3Zm0,.669ZM13.509,12.8Zm0-9.817Zm0,.152h0s-1.414.047-1.021.047Zm0,.094Zm0,.235h0s-1.335.047-1.021.047Zm0,.293h0s-1.257.047-1.1.047Zm-.942,8.4v-.082c-.4.035-.775.079-1.1.129Zm0-.164v-.106s-1.021.129-1.335.152Zm0,.328Zm0,.8Zm0-.375V12.6a8.615,8.615,0,0,1-1.1.188Zm0,0h0a3.528,3.528,0,0,1-.942.082Zm0-.34h0a1.5,1.5,0,0,1,.55-.094Zm.55-.481Zm0-.176v0Zm0,.129h0s-1.257.106-1.178.082Zm0,.364h0l-.471.07Zm0,.845Zm0-.258Zm0-.54h0l-.942.082Zm0-8.41Zm-1.1,1.431Zm0,5.372h0s-.157.012.079,0ZM11.86,4.685Zm0,6.686v.117a.068.068,0,0,1,0,.106c0,.059,0,.188-.55.094h0s.785-.188.55-.27l-.393.094c0-.082.55-.117.393-.176s.393.07.314.082Zm-1.649.352h0v-.094a5.418,5.418,0,0,0-.628,0c-.08-.046-.08-.095,0-.141a5.525,5.525,0,0,1,.707.082c.236.012.55-.106.942-.129s0,0,0,.094c-.282.069-.625.132-1.021.188Zm.707.07v.07s-.157-.082,0-.141Zm0,0h0a3.751,3.751,0,0,1-.393-.07Zm-.785-.715H9.739c-.393,0-.157-.035,0-.047Zm0-.281Zm.707-.27v.023h-.55Zm0-.152V10.5c0,.059-.393-.117-.079-.176Zm0-.188Zm0,.974v-.07c0-.07.393-.023.079.023Zm0,.176Zm-.471-.434h0s.236-.059.157-.047Zm-.471.152a.047.047,0,0,0,0-.082c.55,0,.393.106,0,.152-.048-.041.008-.083.157-.117Zm0-.375v.082c0,.082.236-.094.314-.129Zm0,.188h0s.471-.059.393-.047Zm0,.422Zm0-.152h-.55c-.55,0,.55-.035.864-.047Zm0,.328Zm1.178-.774h0a1.26,1.26,0,0,1,.314-.047Zm0-1.666h0l.236-.047Zm0,.528Zm0-2.663h0s.471-.047.628-.047Zm0-2.78v.117c0,.023.314-.164.393-.164Zm0-.082Zm0,.211v.094c-.26-.016-.383-.061-.275-.1a2.269,2.269,0,0,1,.668-.041Zm0-1.314h0V2.761a.147.147,0,0,1,0,.176h0s.393-.047.393-.059Zm0,.235h0a3.646,3.646,0,0,1,.393-.047Zm0,0Zm0-.211Zm0,.258h0c.116-.013.251-.021.393-.023Zm0,.586V3.7a.072.072,0,0,1,0,.117s.314-.035.393-.047Zm0,5.079v.07c0,.07.079-.106.314-.094Zm-.55.2h0s.471-.012.314-.023Zm-1.178.3V9.083c.785,0,0,.07.628.094s.393,0,.471.082-.314.117-.393.117h0v.059h0s0,.106-.628.07C9.443,9.462,9.417,9.419,9.346,9.376Zm.393-2.428Zm0,0Zm0,.176H9.346l.55-.094Zm0,.117h0v0Zm0,1.841h0s.079-.106,0-.07Zm0-1.888Zm.785-.164h0l-.471.07h0V6.96Zm0-.809h0s-.157-.023-.079-.023Zm0,0h0s-.157-.047-.236-.059Zm0,.211Zm-.864-.95h.471a2.223,2.223,0,0,0-.393-.059Zm0,.493-.55-.117h0V5.717H8.718l.471.082h0Zm-.785-.117Zm0-1.994s.55-.07,0-.082a3.141,3.141,0,0,1,.785,0v.188a2.739,2.739,0,0,1-.55,0c-.157,0,0,.059,0,.07s-.236-.176-.079-.164Zm.785-.739c0-.059,0-.082-.471-.117h.628V3.2s.157-.012,0-.059Zm0-.235ZM8.954,5.236V5.2c0-.012,0,.012.079.023Zm0-1.173h.471a2.188,2.188,0,0,1,.366.016c.1.014.135.035.1.055,0,.082-.707,0-.864,0s-.157-.047-.157-.059Zm0,.856Zm0,.422Zm.55-.657h0c-.077-.05-.077-.1,0-.152h0Zm.628,0h0l-.471-.07Zm-.785.07v0Zm0,.774h0c-.785-.059-.157-.035-.314,0Zm0,0c.55,0,0,.059,0,0a.979.979,0,0,0-.314.059Zm0-.129Zm1.021-.469V5c0,.07-.471,0-.628-.082s.236.094.471.07ZM10.367,4.849Zm.707-.715h0s-.707.059-.471.059Zm0,.141V4.38a1.748,1.748,0,0,1-.55-.047Zm0,.727Zm0,.223h0s-.707.023-.471.059Zm-.55-.164h0s-1.021,0,0-.07-.55.117-.471.129Zm-.55.106Zm.55.246Zm0,.457Zm0-.3Zm0-.094h0Zm.157-1.959Zm0,0Zm0,0h0s.079-.141-.079-.117Zm0-.164h0s0-.106-.157-.117Zm0,0Zm0-.117Zm0-.3Zm0,2.627h0A.094.094,0,0,1,10.76,5.4Zm0,.246h0s-.236-.164,0-.152Zm.079,3.577Zm0-.469h0c.393-.082-.157-.047-.157-.047Zm0-1.454h0a2.262,2.262,0,0,1-.55,0l.236-.047Zm-.471-.669ZM9.582,9.646c0-.059.393,0,.393,0S9.425,9.67,9.582,9.646Zm.393.082Zm0,0H11s-1.1.059-.942.047ZM11.231,8.2H11c-.1-.013-.16-.033-.16-.053s.058-.039.16-.053Zm-.707-6.31s0,.152.55,0,0,.059,0,.07v.07C10.21,2.093,10.525,1.952,10.525,1.893Zm0,.246Zm0,0h0v.082c0,.012-.079,0,0-.035Zm0,.152h0c.122.045.122.1,0,.141v.246c0-.035-.079-.258-.079-.34Zm0,1.173Zm0,1.4c0-.152-.942,0-1.021,0s0-.223.707-.164.157.164.236.223Zm0-.352v.059c0,.059-.55.035-.314,0Zm0-.4v.375c-.084-.026-.084-.056,0-.082-.55,0-.628.094-.864,0a.384.384,0,0,1,0-.293,1.477,1.477,0,0,0,.393.059ZM9.032,2.82V2.738l.942.059h0v.07H9.032c-.024-.015-.024-.031,0-.047Zm0,.669V3.3a.352.352,0,0,0,0-.281A2.045,2.045,0,0,1,9.9,3.2c.236.059,0,0,0,.117v.176h0v.094a2.483,2.483,0,0,1-.864.07h0V3.57c0-.082-.628-.059-.314-.059Zm0,2.346v.094s-.707-.07-.628-.07ZM7.854,3.887c.393,0,0,.117,0,.164Zm-.628-.938h0s-.079.023.079,0Zm0,.328Zm0,.094h0s-.157.012-.079,0Zm0,.293h0c-.084-.022-.084-.049,0-.07.158.015.223.044.157.07Zm0-.223s.157.07,0,.07S7.069,3.512,7.226,3.441Zm0,.293h0c.042.019.042.04,0,.059.079.129-.079,0-.079-.059Zm0,.176Zm0,2.205Zm0-1.6v-.27a.147.147,0,0,0,0,.176s.628.152.079.094Zm0,.235c.628-.07-.157-.07.628-.2a.142.142,0,0,1,0,.129c0,.117,0,0-.471.07ZM7.854,5h0V5Zm0,.141Zm0,.059H7.461C7.069,5.2,7.854,5.177,7.854,5.2Zm0-.317Zm0,1.173h0a.016.016,0,0,1,0,.023Zm0-.7Zm0-.915a.167.167,0,0,1,0-.258c0-.082,0-.106.393-.129a.507.507,0,0,1,0,.34s0,.188-.393.07Zm0,.246Zm0,0Zm0,1.818V6.01c0-.164,0,.235.393.293a.189.189,0,0,0,0,.2Zm.393-.493h0V5.94c0-.07,0,0,.393.082h.942a7.546,7.546,0,0,0-1.335.07,1.445,1.445,0,0,0,.55,0H7.776a2.984,2.984,0,0,0,.942-.082Zm0,.422H8.168a2.253,2.253,0,0,0,.471.04,2.253,2.253,0,0,0,.471-.04Zm0,0h0a6,6,0,0,0,.864-.059Zm0-.106h.707c.236,0,.236.023.393-.059Zm.707.082h0s1.021-.059,1.1-.059Zm0,0Zm-1.178,0Zm0,.411V6.667H9.346c-.3.029-.562.064-.785.106h0s.314-.047.55-.07Zm-.55.915v-.07a7.934,7.934,0,0,1,1.335-.047Zm0-.3h0s0,.082-.628.07a21.365,21.365,0,0,1,2.278-.188Zm0,.328Zm.628-.211Zm0,.117h0Zm0-.176ZM7.147,8.2H6.44A3.9,3.9,0,0,1,6.99,8.1h.864a.066.066,0,0,0,0,.106Zm.707.2Zm0-.211V8.039c0-.012,1.1.164.55.164Zm0,0Zm0,1.982Zm.471.2s-.471,0,0-.07h0Zm0,.375c-.068-.034-.068-.071,0-.106a.074.074,0,0,1,0,.117s.471.082.55.012Zm0,.61Zm0-1.325h.707V9.881c0-.047,0-.352.471-.2h0A4.857,4.857,0,0,1,10.76,9.8c.079.117,0,.07,0,.094h-.628V9.81c0-.082-.628,0-1.178.07s.785.2.471.176Zm.393.141Zm0,.164v.094c0,.094.471-.023.864-.07Zm0,1.431v0Zm0,.891h0a7.956,7.956,0,0,1,.943.023Zm0-.106v-.61a.062.062,0,0,1,0-.106h.707c.55,0,0,.094,0,.141a4,4,0,0,0,.785,0,.053.053,0,0,1,0,.094c0,.07,0,0-.471.082s-.628.082-.393.094l.864-.082v.457h0c.057.031.057.063,0,.094V12.6c0-.035-.314.023-.236-.023Zm.628.293h0L10.6,12.9Zm0,0s0,.094-.393.141c.251-.085.384-.177.393-.27a4.671,4.671,0,0,1,.882.04c.218.038.272.09.139.136Zm-.707.481Zm6.912,0Zm2.749-.094H17.279c-.362-.012-.738-.012-1.1,0-.464.017-.95.017-1.414,0H16.1c-.751.024-1.527.024-2.278,0-.728.017-1.471.017-2.2,0a4.992,4.992,0,0,0,1.021-.082c.157-.082-.471,0-.55,0s-1.021.082-1.178.082H9.9l.785-.094h9.111c.6-.012,1.207-.012,1.806,0a10.2,10.2,0,0,0-1.492.141c-.314.059,0-.094,0-.106s-.785.223-.785.152Zm-2.592-.411Zm0,0Zm.942,0Zm.471,0Zm1.885.07Zm0,.082Zm0,.141Zm.942,0h0c.013-.022-.046-.044-.157-.059Zm.393-.223Zm.471.176Zm4.006-.176h-.785c-.236,0,0-.082,0-.082.256-.012.53-.012.785,0C24.819,12.813,24.426,12.9,24.819,12.9Zm.55.152h.55c.55,0-2.356,0-.55-.023Zm0-.223h0s.157-.012,0-.023Zm0,.106Zm0,.469Zm-.942,0a6.392,6.392,0,0,0-1.1,0c-.393,0,0-.106.785-.117s1.021.023.471.106Zm0,0h0a1.586,1.586,0,0,1,.236.012Zm-.393-.364h0l-.707-.07Zm0,.469h5.105c0,.07-2.121,0-2.592.059H22.62c-.628,0-2.278.059-2.67,0,.544-.017,1.106-.017,1.649,0q1.248-.033,2.513-.047Zm2.749-.5s-.471.082-.785.106.628-.07.864-.094Zm-.628-.211h0s.314.106.079.012Zm-4.477.856Zm.785-.235h0l.079.012Zm0-.586Zm0,.422a3.211,3.211,0,0,1-.55.164v-.117l-.55.106a2.654,2.654,0,0,1,1.1-.141Zm-.785-.352Zm-3.3.739Zm-6.6,0a4.552,4.552,0,0,1,.55,0h-.55Zm-1.414,0h0s-.157.035,0,.035Zm-1.492,0ZM6.44,13.47h0s-.157.047,0,.035Zm10.367.4Zm4.4,0h0s.079.035,0,.047Zm1.414,0h0a3.26,3.26,0,0,1,.707,0Zm2.121,0H23.484a10.031,10.031,0,0,1,1.335,0Zm1.964,0H25.84a5.327,5.327,0,0,1,.942,0Zm2.2,0H27.332a10.812,10.812,0,0,1,1.728,0Zm0-.094H18.614c-1.1,0-2.67-.059-2.356,0-.358.017-.742.017-1.1,0H13.745c-.157,0-.707.07-1.178.082-.6.006-1.2.006-1.806,0H8.875c-.628-.006-1.257-.006-1.885,0h.393c.993.012,1.991.012,2.985,0,.888-.012,1.782-.012,2.67,0h3.613c1.046.012,2.1.012,3.142,0,1.015-.023,2.048-.023,3.063,0h6.283Zm0-.176a7.073,7.073,0,0,1-.864,0H25.762c-.47.006-.943.006-1.414,0H21.913c.468-.012.946-.012,1.414,0h4.791s1.649.012,1.178.059Zm-.628-.317H26.7c.466-.046,1.012-.071,1.571-.07a12.123,12.123,0,0,0,1.728,0c.393-.082-.393.07-.628.059h0ZM27.1,12.766h0s.471.129.393.059Zm.471.188Zm1.492.07s-.707-.094,0-.07.236.094.393.129Zm0-.07h0a3.445,3.445,0,0,0,.55.059Zm0-.141h0s.785.082.707.082Zm2.827.4v.07a4.69,4.69,0,0,1-1.021,0H30.4c-.471,0,0-.082.707-.082Zm0,.317h-.471l1.414.059ZM30,13.47h0s.864.035.942.059Zm.393.059H28.432c1.009,0,2.014.018,2.985.059Zm-1.1,0Zm-.628.258h2.67c.73-.013,1.469-.013,2.2,0,0,.07-2.435.059-2.827.059-.575.006-1.153.006-1.728,0h-.393s.864-.047,1.021-.047Zm4.555-.5a5.327,5.327,0,0,1-.942,0s0-.082.864-.07h0Zm0,.281s-1.492.059-1.021,0Zm0-.786h-.471s1.728.035,1.571.012Zm-4.87,1.173h0s1.257-.023,1.1-.023Zm5.105,0h-.55s2.042-.094,1.649-.035Zm.628-.352Zm.471-.317h0s1.021-.047,1.1-.035Zm0-.281Zm0,.821h0a7,7,0,0,1,1.021-.035Zm.942.117a12.882,12.882,0,0,0-1.649,0c.389-.011.789-.011,1.178,0h.55c.079,0,.942-.035.942-.035Zm-.55-.129Zm.785-.551h-.628c-.628,0,1.414-.047,1.649-.035ZM35.736,12.977Zm0,.645Zm.864.27h0l.942-.035Zm0-.27h0s1.1-.059,1.021-.035Zm0-.141Zm.471.258h0s.864-.012.864-.035Zm0-.481h0a6.222,6.222,0,0,0,.628-.035Zm.864.633Zm1.335-.469Zm.55.411h-.55c.393-.035.393,0,.393,0Zm0-.141h1.021a8.389,8.389,0,0,1-.943,0Zm0-.246Zm0,.411V13.8c0,.012.314.047.236.059Zm.707,0Zm.707,0h0l.236-.023Zm.707-.434v.059h-1.1v-.059h.471c.5-.006,1-.006,1.492,0,.314.012-.314-.035-.628-.023Zm0,.059Zm.55,0Zm0,.223h0c1.492-.035.942,0,.942,0Zm0-.07h0s1.257-.012,1.1,0Zm0-.211H43.2v.082c0,.082.628-.012.471-.082Zm.707.07Zm0,.129a3.932,3.932,0,0,1-.628,0s1.885-.012,2.042,0Zm.393.059h0Zm0-.27Zm0,.07h0Zm1.1-.082s-.393-.07,0-.094a6.364,6.364,0,0,1,1.335.094Zm0,.223h0Zm0-.223Zm0,.27Zm.707,0h0Zm1.414-.188Zm0,.082h0s.314.012.864.035Zm0-.082Zm0-.106Zm0,.082h-.628c-.628,0,.942.035.942.035Zm0-.094c-.309-.02-.5-.067-.471-.117a6.183,6.183,0,0,1,.785.152Zm0,.188h-.628c-.157,0,.942.035.942.035Zm0,.07Zm0,.188h0s-.157.023-.314.035Zm0-.117Zm.471.117C46.732,13.81,47.282,13.751,47.282,13.81Zm0-.117h-.157a11.294,11.294,0,0,1,2.356,0Zm1.021-.2h0l.314.035Zm0,.106Zm0-.246c-.112-.029-.112-.065,0-.094,0,0,.471.106.314.129Zm.628,0h0c.1-.007.205-.011.314-.012Zm0,.2H49.4c.079,0,.393.012.079-.012Zm.785-.129Zm.785.176h-.628c.079,0,1.492-.176,1.178-.012Zm0-.129h.55s.157.012-.079-.012Zm0-.106Zm2.2.4v-.129c0-.07,1.1.059.628.117Zm.55-.411Zm0,.293h0v0Zm1.728-.446Zm1.257.375Zm2.592-.387Zm1.649.481h0Zm4.006-.07h-4.32c.286-.006.578-.006.864,0h.864S64.561,13.564,64.483,13.6Zm-5.341-.317h0s.079-.023,0,0Zm.55,0h0s.079,0,0-.012Zm.393-.106h0s.079-.023,0-.012Zm0,.129Zm0,0h0Zm2.749-.129Zm.785.141Zm5.341-.094Zm.707,0Zm.471-.106h0Zm.942,0h0a1.945,1.945,0,0,1-.393.023Zm1.571.411h0c-.079-.059-.079.035-.236.023Zm.942-.282h0a3.359,3.359,0,0,1,.628,0Zm1.728-.059c0,.07-.471,0,0,0h0a1.6,1.6,0,0,0-.236.023Zm0,0h0s.079.023.079.047Zm3.063.2Zm1.806,0h.55c.314,0-.393.023-.471.047Zm.707-.141h0s.236.012.079.047Zm0,.129Zm.393-.082s-.471,0-.393-.059a3.018,3.018,0,0,1,.746-.006c.217.029.234.079.039.111Zm0-.856h0s.864.047.785.047Zm.471.551Zm0,.129h.55a.384.384,0,0,0,.314.047Zm.864-.281h0Zm0,.3Zm0-.188Zm2.121.364H82.154v-.082c0-.082.628,0,.864,0h.864s1.492.082,1.492.129Zm-1.178-.364h0c-.393.106.314-.059.628.047Zm0-.129Zm0,.352h0Zm.471-.235h0s.864.035.707.047Zm0,.188Zm0,0h0c-.471,0,.942.094.942.094Zm0-.211Zm0,.516Zm0-.141h0l1.728.094Zm1.728,0h0Zm.707,0v-.059c0-.059,1.414.246,1.728.2Zm.471,0Zm7.147.211Zm1.885-.293h0s1.649.129,1.728.129Zm0,0h0l1.492.129Zm0,.07h.628s0,.106-.393.117a4.292,4.292,0,0,0,1.1.012Zm0,0h0c.071.022.071.048,0,.07Zm-2.67,0h2.042c.048.023.048.047,0,.07H93.307c-.236,0,.942.023.942.012Zm-1.178-.094h0c-.471,0,.628.094,1.021.082Zm-1.178,0h.864c.157,0,0,0,0,.059s.471,0,0,0,.55-.07.707-.106,0,.117,0,0v.129H89.773c-1.021,0,.864-.129.864-.059h.55c.55,0,.55.07.785.059Zm1.021-.328Zm.943,0h-.393a2.949,2.949,0,0,1,.471,0Zm1.964,0c-.336.012-.685.012-1.021,0a3.756,3.756,0,0,1,.785,0s1.414.035,1.257.035Zm0,0h0Zm0-.094h0l1.492.129Zm.628,0h0A10.894,10.894,0,0,0,97,12.9Zm.628,0h0s1.728.129,1.492.129Zm1.021,0h-.55c-.079,0,1.964.129,2.042.129Zm0,0h0l1.885.129Zm.471,0h0l1.885.129Zm-.707-.129h.785a9.108,9.108,0,0,1,1.1.117Zm-1.728-.129H92.051c1.246-.035,2.5-.059,3.77-.07.471,0,1.571-.059,2.042,0s0,0,.393,0,0,0,0,.07-.157.117-1.178.117Zm3.456.106H98.57c.079,0,2.121.117,1.963.117Zm0-.082Zm0,0Zm.785.176v0Zm.55,0c.037-.023.037-.047,0-.07C100.017,12.66,100.017,12.684,99.983,12.708Zm0-.164H98.805c0-.082,0-.07.471-.094s.628,0,.864,0,0,.07,0,0v-.082s0,.082.393.082,0-.07,0-.07H101Zm1.806-.082Zm1.885.446h0s2.2.07,2.042.082Zm0-.211H102.1c0-.07.785,0,.864,0s2.356-.012,2.906.082Zm-1.728-.235Zm0,0h.55c.55,0,0,0,0,.07h-.785l2.749.023Zm19.007-.34v-.059s2.67.129,2.513.152Zm0-10.967h0l2.827.094Zm0-.281h-.628c0-.082.628-.082,1.1-.07-.034.08.256.155.735.191a8.028,8.028,0,0,0,1.464-.027Zm.864,10.087v-.023h0c-.707,0,2.827.07,2.67.117Zm0-.293Zm0-.669Zm0-8.891h0s3.377.059,3.3.059Zm3.849,9.911Zm0-.152v0Zm0-.317Zm0-.3h0v0Zm0-1.5Zm0-5.36h0s.55-.023.393-.012Zm0,5.935h0l.55-.012Zm0-6.674V2.421c0-.07,0-.2.55-.094h0c0,.082-.785.176-.55.258a.841.841,0,0,0,.393-.082c0,.07-.55.106-.393.164Zm.55,4.563h0s.314-.012.236-.012Zm0,2.78V9.881c0-.012.55.094.393.094Zm0,.082Zm0-.211V9.775c0-.012.55.047.393.07Zm0,1.314h0v.164c-.081-.054-.081-.11,0-.164h0s.393-.023.471-.012Zm0-.223h0s.314,0,.393-.012Zm0,0Zm0,.223Zm0-.27Zm0-.575v-.059a1.274,1.274,0,0,1,.471.012Zm0-5.09v-.07c0-.07.785.047.55.023Zm.471-.188h0a2.649,2.649,0,0,1,.55-.047Zm2.042-.364v.281c-.785,0,0-.07-.628-.106s-.393,0-.393-.082,0,0,.393-.082h0V4.638h0s0-.106.628-.07A.076.076,0,0,0,128.729,4.685Zm0,2.428Zm0,0Zm0-.176h0s-.55.094-.471.094Zm0-.117h0a2.8,2.8,0,0,0-.314.047Zm0-1.83h0s-.393.082-.393.047Zm0,1.888Zm-1.1.152a2.949,2.949,0,0,0-.471,0c0-.094,0,0,.55-.082h0c.55,0,0,.082,0,.141Zm0,.809h0s.079.012.079,0Zm0,0h0a.757.757,0,0,1,.157.035Zm0-.2Zm.943.95h-.393c.079,0,.079.047.236.035Zm0-.5h.471V8.2h0v.059c0,.059,0,.082-.393.07h.393l-.471-.07h0Zm.785,0h0l-.079.117Zm0,1.994s-.471.07,0,.094a3.645,3.645,0,0,1-.864,0V9.986a3.452,3.452,0,0,1,.628,0h0s.079.2-.079.176Zm-.785.751s0,.082.55.106h-.628v-.094s-.314.023-.236.07Zm0,.223Zm.707-2.346v-.07c0-.07.471.106,0,.117s-.157.07-.236.059Zm0,1.173h-.471a2.274,2.274,0,0,1-.364-.025c-.091-.016-.13-.037-.107-.058,0-.07.707,0,.943,0Zm0-.868Zm0-.411Zm-.707.774h0c.079.054.079.11,0,.164-.393,0,0,0,0,0Zm-.628,0v-.07c0-.07.393,0,.471.07Zm.785-.07v.07s-.079-.07,0-.082Zm.393-.786h0c.393.059-.157.035,0-.012Zm0,0Zm0,.129ZM128.1,9.13V9.048c0-.082.55,0,.628.094s-.628-.106-.864-.082Zm0,.082Zm-.707.7h0s.314-.07.079-.07Zm0-.129V9.681c.057.011.11.023.157.035Zm0-.727Zm0-.223h.393s0-.047-.314-.07Zm.55.164c.393,0,1.021,0,0,.07s.236-.129.079-.141Zm.55-.117Zm-.471-.246h0s.079-.059.079-.07Zm0-.446h0c-.066-.026,0-.055.157-.07Zm0,.293Zm0,.106h0Zm0,2.064Zm0,0Zm0,0h0a4.1,4.1,0,0,1-.55,0Zm0,.164Zm0,0Zm0,.117h0s-.471.023-.471.035Zm0,.3Zm0-2.639s-.55.023-.628.035Zm0-.235h0s-.314.035-.628.035Zm0-3.683V4.626c0-.059-.471.059-.707.059Zm0,.469s.393-.082.393,0-.942.023-.942.035Zm0,1.454h0a2.262,2.262,0,0,1,.55,0,1.166,1.166,0,0,1-.4.06,2.984,2.984,0,0,1-.542-.025Zm.471.657Zm.471-2.909c-.393.07-.471,0-.471,0s.157.012.079.035Zm-.393-.07Zm0,0a9.7,9.7,0,0,0-1.021,0s.707-.023.55-.012Zm-1.728,1.572V5.764c.184.034.184.083,0,.117Zm.707,6.275s0-.164-.471-.07,0,0,0-.059v-.047c.785-.012.471.129.471.2Zm0-.246Zm0,0h-.393v-.07a2.4,2.4,0,0,1,.3.008.416.416,0,0,1,.169.038Zm0-.152h0c-.122-.045-.122-.1,0-.141v-.235a3.677,3.677,0,0,1,.079.364Zm0-1.173Zm0-1.4c0,.152.864,0,.942,0s0,.211-.707.164-.079-.141-.079-.2Zm0,.34V9.447s.55,0,.314.023Zm0,.4a.189.189,0,0,0,0-.2V9.541c.118.025.118.058,0,.082.55,0,.628-.106.864,0a.205.205,0,0,1,0,.293,2.408,2.408,0,0,0-.393-.047Zm1.021,1.349v.094s-.942-.07-1.021-.059h1.257s.471-.082.236-.07Zm.864-.7c-.471,0,0,0,0,.094a.046.046,0,0,1,0,.082.339.339,0,0,0,0,.281,2.777,2.777,0,0,1-.864-.164c-.09-.038-.09-.079,0-.117a.165.165,0,0,1,0-.188h0v-.152a4.4,4.4,0,0,1,.943-.07h0v.07C129.515,10.455,129.672,10.549,129.436,10.549Zm0-2.346V8.11a.6.6,0,0,1,.236.094Zm.471,1.97c-.393,0,0-.117,0-.152s.628.106.236.129Zm.628.95h0s.393-.047.236-.023Zm0-.328h0s.393-.023.314-.023Zm0-.094h0a2.694,2.694,0,0,1,.393-.023Zm0-.293h0c.074.026.074.056,0,.082-.129-.014-.191-.038-.156-.061a.867.867,0,0,1,.313-.045Zm0,.211v-.094c0-.023.471.023.314.023Zm0-.293h0s.393-.082.393-.023Zm0-.164Zm0-2.205h0c-.471,0,.236-.023.314-.023Zm0,1.6v.07s-.157-.152.236-.094Zm0-.246c-.393,0,0,.141,0,.2a.118.118,0,0,1,0-.164c-.079-.106-.079.035.157-.059Zm-.471-.235s.393.082,0,.106.079-.129.157-.129Zm0-.152h0l.079-.023Zm0,0h.393c.393,0-.471-.047-.393-.07Zm0,.317h0a.558.558,0,0,0,.236-.07Zm0-1.173h0a3.088,3.088,0,0,1,.314-.094Zm0,.7Zm0,.915a.167.167,0,0,1,0,.258c0,.082,0,.106,0,.129a.51.51,0,0,1,0-.34c-.314-.152-.157-.27-.079-.141Zm0-.188h0v0Zm0,0h0s-.314-.117-.236-.117Zm0-1.806v.2a.205.205,0,0,1,0-.211Zm-.393.481h0v.059a1.1,1.1,0,0,0-.471-.07c-.286-.008-.578-.008-.864,0,0,0,1.492,0,1.257-.07a1.429,1.429,0,0,0-.55,0h1.021v.059h0s-.785-.141-.707-.117Zm0-.411h.079a4.1,4.1,0,0,0-.785-.141Zm0,0a3.026,3.026,0,0,0-.707-.082Zm0,.094h-.785c-.314,0,0-.164-.079-.082Zm-.707-.07h0s-.864-.094-.864-.082Zm0,0Zm1.257,0Zm0-.411v.152c0,.012-1.1,0-1.649,0,.295-.025.56-.056.785-.094h0a.638.638,0,0,0-.393-.082Zm0-2.991h-.393a4.453,4.453,0,0,1-.471-.106h-.471c-.471,0-.628,0-.628-.07V4.11a4.25,4.25,0,0,1,.55,0c.079,0,0,0,0,.082s.628-.07,1.178-.07,0,0,0,.059h0c-1.492-.141-.785.082-1.021.176Zm0,2.1h.079s-1.257,0-1.257-.023Zm0,.281h0s0-.094.55-.07a15.106,15.106,0,0,1-1.571.047Zm.393-.328Zm0-.446c0,.141-.707-.117,0-.106s-.707.047-.785.082Zm0-.27V5.658c0-.059-.55.023-.707.035Zm.393.809Zm0-.129Zm0,.176Zm1.021-.7-.471.082h-.864V5.834a5.724,5.724,0,0,1,1.492,0Zm2.435-.141h0a2.679,2.679,0,0,1-.471-.023Z" transform="translate(0 -0.04)" fill="#e9bc20"/>
    </g>
  </g>
</svg>
