<svg xmlns="http://www.w3.org/2000/svg" width="51.719" height="50.937" viewBox="0 0 51.719 50.937">
  <g id="Group_952" data-name="Group 952" transform="translate(-795 -863.584)">
    <g id="Layer_2" data-name="Layer 2" transform="translate(795.004 863.584)" style="isolation: isolate">
      <g id="Layer_1" data-name="Layer 1" transform="translate(-0.004)">
        <path id="Path_2388" data-name="Path 2388" d="M1.39,3.29Z" transform="translate(3.59 8.466)" fill="#e9bc20"/>
        <path id="Path_2389" data-name="Path 2389" d="M3.27,3.16Z" transform="translate(8.428 8.132)" fill="#e9bc20"/>
        <path id="Path_2390" data-name="Path 2390" d="M1.89,9.63Z" transform="translate(4.877 24.781)" fill="#e9bc20"/>
        <path id="Path_2391" data-name="Path 2391" d="M3,10.63Z" transform="translate(7.733 27.354)" fill="#e9bc20"/>
        <path id="Path_2392" data-name="Path 2392" d="M7,13.81Z" transform="translate(18.027 35.538)" fill="#e9bc20"/>
        <path id="Path_2393" data-name="Path 2393" d="M5.91,12.25Z" transform="translate(15.222 31.523)" fill="#e9bc20"/>
        <path id="Path_2394" data-name="Path 2394" d="M12.2,10.21Z" transform="translate(31.408 26.274)" fill="#e9bc20"/>
        <path id="Path_2395" data-name="Path 2395" d="M12.49,8.71Z" transform="translate(32.154 22.414)" fill="#e9bc20"/>
        <path id="Path_2396" data-name="Path 2396" d="M50.965,30.731a.5.5,0,0,1,0,.214v-.429a2.287,2.287,0,0,0-.214.572,4.352,4.352,0,0,1-.536,1.429l.214-.715a3.573,3.573,0,0,0-.357,1.036,5.075,5.075,0,0,1-.286.643s0-.322,0-.357,0,.465-.25.643h0a3.93,3.93,0,0,1-.322.5s0,.465-.322.536c.393-1.036.822-2.073,1.143-3.109a9.434,9.434,0,0,1,.893-2.358s0,.607,0,.786a8.183,8.183,0,0,1-.25,1,2.466,2.466,0,0,0,.179-.465v-.786a6.44,6.44,0,0,1,.179-1.608,27.3,27.3,0,0,0,0-3.573,27.337,27.337,0,0,0-.357-3.573,6.778,6.778,0,0,0-.357-1.644c-.143-.536,0-.822-.25-.822a16.687,16.687,0,0,1,.25,2.859,9.576,9.576,0,0,1,0,2.466v-.429a2.252,2.252,0,0,0,0-.572v.929a3.573,3.573,0,0,1,0,.893v.643h0v.679a2.109,2.109,0,0,1,0,.5,7.719,7.719,0,0,0,0,.965s0,.5-.179.536v-.429h0V27.3a3.573,3.573,0,0,1,0,.607,15.042,15.042,0,0,1-.393,2.144,14.294,14.294,0,0,1-.607,2.108,3.672,3.672,0,0,1-.5,1.251,5.968,5.968,0,0,1-.286.715,2.86,2.86,0,0,0-.286.572h0a3.383,3.383,0,0,1-.322.607c-.071.036,0-.25,0-.286a1.251,1.251,0,0,1,0,.286c0,.25-.25.536-.393.786s-.607.965-.929,1.429-.822,1.036-1.251,1.537-.715,1-.858.965h0a3.962,3.962,0,0,0-.393.393l-.607.607c.25-.25.536-.643.786-.929a6.182,6.182,0,0,0-.858.822c-.357.357-.715.715-1.108,1.036a13.507,13.507,0,0,1-2.18,1.572h0l-.357.25a2.143,2.143,0,0,1,.286-.286,2.966,2.966,0,0,0-.536.393,9.615,9.615,0,0,1-1.036.572,21.44,21.44,0,0,0,2.394-2l1.036-1.072.5-.429a3.216,3.216,0,0,1,.322-.357s-.286.214-.357.286a5.539,5.539,0,0,1,.965-.858l.607-.607s.429-.357.429-.429-.5.572-.607.679a5.217,5.217,0,0,0-.572.679A14.794,14.794,0,0,0,45,38.092a14.294,14.294,0,0,0,1.715-2.68c-.25-.107-.25.322-.25.322v0l-.643.929a16.867,16.867,0,0,1-1.465,1.715L46.141,35.8a3.573,3.573,0,0,0-.357.607,2.287,2.287,0,0,0-.357.643c0-.25.393-.536.536-.822a2.144,2.144,0,0,0,.143-.5.893.893,0,0,1,0,.322c0-.179.286-.465.429-.679a5.074,5.074,0,0,0,.286-.643s0-.536.322-.679a1.572,1.572,0,0,0-.179.536c0-.179.214-.465.286-.679a4.966,4.966,0,0,1,.214-.679,22.262,22.262,0,0,1-10.97,10.434,24.191,24.191,0,0,1-3.823,1.322,9.433,9.433,0,0,0,1.358-.643l1.215-.465,1.358-.607.643-.357h.322a9.038,9.038,0,0,0,.786-.465h0a8.4,8.4,0,0,1,1.179-.786h0l.572-.429s.429-.25.465-.357l-.214.25s.679-.715.822-.679h0A16.187,16.187,0,0,0,43.6,38.2h0c.286-.465.786-.822,1.108-1.286a3.573,3.573,0,0,0,.679-1.108c0,.25-.5.572-.679.786l-.929,1.072a10.042,10.042,0,0,1-1.394,1.358c.607-.786,1.286-1.429,1.894-2.144a4.574,4.574,0,0,0,.536-.893,13.864,13.864,0,0,1,.822-1.179c-.286.393-.429.929-.715,1.322.5-.643.786-1.394,1.215-2.073s.536-1.072.858-1.572a8.578,8.578,0,0,0,.393-.822s.322-.536.286-.607a3.629,3.629,0,0,0-.322.858,2.966,2.966,0,0,0-.286.786,10.077,10.077,0,0,0,1-2.68,13.222,13.222,0,0,0,.715-3.073v.715a1.716,1.716,0,0,0,0-.429h0s0-1.215.214-1.286h0v-1h0a.893.893,0,0,0,0-.429V21.619a2,2,0,0,1,0-.786.679.679,0,0,0,0,.429s0-1.608-.214-1.644.25.822.286,1.036a5.289,5.289,0,0,1,0,.75v1.715a25.012,25.012,0,0,1-.322,2.859,11.256,11.256,0,0,1-.322,1.5,3.9,3.9,0,0,1,0,.893,18.045,18.045,0,0,0,.965-5.682,15.83,15.83,0,0,0,0-2.251c0-.286,0-.607,0-.929v-.679h0a2.108,2.108,0,0,1,0-.822c0-.25,0-.572,0-.858a4.825,4.825,0,0,0-.322-1.036,10.72,10.72,0,0,1-.357-1.143,15.686,15.686,0,0,0-.75-2.18,28.586,28.586,0,0,0-2.073-4.359,27.979,27.979,0,0,0-3-3.859A6.289,6.289,0,0,0,41.782,3.5l-1.751.071a3.574,3.574,0,0,1-.715-.5c0,.179.393.322.536.465l.607.5L41.5,5c.429.393.75.822,1.143,1.251A1.143,1.143,0,0,1,43,6.611s0,.214,0,.322l1,1.251a21.441,21.441,0,0,1,1.787,3q-.169-.24-.357-.465a9.576,9.576,0,0,0-.643-1l-.75-1.108L43.6,8.076s-1.429-1.215-1.358-1.358.25,0,.286,0-.715-.643-.643-.679.286.179.322,0S40.6,4.9,40.674,4.717l.679.429s-.465-.393-.607-.5l-.25-.214a4.646,4.646,0,0,0-.786-.679l.357.179-2.5-1.394a9.254,9.254,0,0,0,1.108.679l.858.572h-.25l.679.5h0l.75.75a6.075,6.075,0,0,1,.679.679,54.744,54.744,0,0,0-6.361-4.252,4.61,4.61,0,0,0,.715.214l.929.429-1.429-.715h0s-1.179-.465-1.286-.5A21.761,21.761,0,0,0,30.919.286,26.907,26.907,0,0,0,27.953,0h-.572l1.93.357a12.971,12.971,0,0,1,2.394.536,7.647,7.647,0,0,0-.965.036c0,.214.858.25,1.036.322a3.823,3.823,0,0,1,.965.25,2.766,2.766,0,0,0,.572.25h0c0,.179,1.036.357,1.179.465l.858.465a1.429,1.429,0,0,1,.786.5c.071.179-.393-.179-.607-.179h0l-.572-.25h-.393a3.144,3.144,0,0,0,.786.357l.393.107a21.44,21.44,0,0,1,2.18,1.215,18.153,18.153,0,0,1,1.894,1.358L40.96,6.825l.572.536s.25.357.393.393h0s.465.536.5.572L41.6,7.611a3.58,3.58,0,0,0-.536-.465c-.071,0,1.215,1.5,1.358,1.679a2.144,2.144,0,0,1,.214.393s.357.357.357.5h0s1.465,2.751,1.608,3-.25-.286-.357-.465l-.465-.822-.357-.5v-.25c0,.036-.536-.5-.536-.465h0L41.853,9s.25.286.357.25-.393-.5-.393-.465a1.207,1.207,0,0,0,.393.25c0-.036-.5-.536-.572-.607s-.5-.357-.536-.5a2.394,2.394,0,0,0,.679.5c-.465-.25-.643-.822-1.036-1.108s.357.286.393.25-1.93-1.394-2.144-1.537c.357.465,1.036.643,1.394,1.143h-.322a1.894,1.894,0,0,0,.5.429h0l.357.5s.357.286.357.429c-1.322-1.286-2.894-2.251-4.217-3.573a3.573,3.573,0,0,0,.643.286l.75.5-.465-.393s-.465-.322-.5-.286h.214s-1.143-.607-1.251-.643a20.01,20.01,0,0,0-2.466-.858,10.72,10.72,0,0,1-2.144-.75s-1.429-.643-1.429-.679h.357s-.643,0-.643-.214h0A4.4,4.4,0,0,0,29.1,1.715a1.787,1.787,0,0,1,.75,0,7.9,7.9,0,0,0-.893,0S28.6,1.465,28.6,1.5a1.993,1.993,0,0,0,.465,0,5.968,5.968,0,0,1-.643,0H27.7L26.274.893H24.38a3.474,3.474,0,0,1,.643.036c0,.036,0,0,.214,0h-.214a8.719,8.719,0,0,1-.965,0h.179a6.075,6.075,0,0,0-1.394,0,8.407,8.407,0,0,0-2.323.214l-2.358.5-1.036.25a2.966,2.966,0,0,1-.965.25,4.1,4.1,0,0,0,.822-.357h-.071a2.18,2.18,0,0,1,.607-.286c-1,.25-1.93.858-2.93,1.215,0,0,.572-.5.786-.465s-.679.322-.822.393a3.252,3.252,0,0,0-.5.25,6.075,6.075,0,0,0,.858-.5s-1.215.679-1.358.715.75-.5.75-.465-.322,0-.429,0l-.786.607s-.715.322-.715.429.286-.107.322-.107A2.215,2.215,0,0,0,13.3,3a1.974,1.974,0,0,0-.679.572,4.288,4.288,0,0,1-.858.536,3.144,3.144,0,0,0,.607-.536c-.393,0-.607.536-.965.679h0l.643-.679a15.937,15.937,0,0,1-1.787,1.251l-1.072.75s-.607.357-.643.572.5-.322.607-.393l.893-.536,1.858-1.108a7.5,7.5,0,0,0-1.179,1,4.038,4.038,0,0,0-.965.786,5.5,5.5,0,0,1,.679-.607l.286-.357a3.109,3.109,0,0,0-.393.322,2.48,2.48,0,0,1-.429.357c-.107.036,0-.25.214-.25h0s-1.179.965-1.143.893l-.75.607c-.25.214-.429.465-.679.679l.679-.393a3.573,3.573,0,0,1-.357.393l-.715.5s-.679.5-.715.643.357-.429.465-.572.5-.465.572-.679l-.322.5V7.718a9.862,9.862,0,0,1-.822.965s-.286.5-.5.572.357-.5.465-.607l.643-.858c-.75.893-1.429,1.822-2.18,2.644,0,0,.286-.393.429-.572a7.653,7.653,0,0,1,.465-.679,4,4,0,0,0-.607.75,2.537,2.537,0,0,0-.357.5,1.465,1.465,0,0,1,.25-.393,6.539,6.539,0,0,0-.465.679l-.429.679s-.465.286-.465.5a1.822,1.822,0,0,1,.322-.643c-.357.357-.465,1-.75,1.429.286-.465.643-.893.965-1.358a9.434,9.434,0,0,1,1.108-1.322c.643-.643,1.251-1.322,1.965-1.93A31.363,31.363,0,0,1,9.729,6.11a25.942,25.942,0,0,1,9.112-3.895,40.808,40.808,0,0,1,5.11-.679,3,3,0,0,0-.643,0,3.037,3.037,0,0,1,.572,0h.643a2.5,2.5,0,0,1,.5.107,2.716,2.716,0,0,1,.536,0h1.5l-.25.286h.5a4.538,4.538,0,0,1,1,0,5.431,5.431,0,0,0,.75,0h.572a1.894,1.894,0,0,0-1.036.25h.429l1.036.286h-1l.786.214,1.572.536a5.038,5.038,0,0,1,1.608.536,3,3,0,0,0-.858-.179s.572.179.607.179a5.146,5.146,0,0,1,1.286.536h0c.465.286,1,.465,1.429.75l-.536-.214a7.4,7.4,0,0,1,.893.536l-.607-.286a2.108,2.108,0,0,1-.572-.25,2.18,2.18,0,0,0,.572.322l.5.214a6.039,6.039,0,0,1,1.036.607s.607.25.607.393h0a5.016,5.016,0,0,0,.643.429h-.214a4.9,4.9,0,0,1,.858.643,9.326,9.326,0,0,0-1-.607,12.614,12.614,0,0,0-1.143-.75l-1-.643L34.707,5s-.572-.25-.607-.357h.5l-.5-.214-.75-.25L32.17,4.038l-1.822-.679h.643c.107,0-.715-.179-.929-.25a4.577,4.577,0,0,1-1.215-.214h.465a5.86,5.86,0,0,1-1.358,0,7.325,7.325,0,0,1-1.215-.357,2.18,2.18,0,0,0,.679,0,3.573,3.573,0,0,1,.822.179,2.073,2.073,0,0,0,.679,0h.643A4.961,4.961,0,0,1,28.6,2.68l-.679-.214-.965-.25h-.893l-1.036.071H24.63a4.038,4.038,0,0,1-.929,0h.536a6.039,6.039,0,0,1-.822,0H22.2a7.861,7.861,0,0,1,1.322-.179H22.236a2.644,2.644,0,0,0-.786.179,4.431,4.431,0,0,0-.965,0l.643-.071a.715.715,0,0,1,.322-.071s-.357.179-.465,0A6.539,6.539,0,0,0,22.2,2.037h-1c-.25,0,.25.036.25-.036l-.715.107h0s-1.322.322-1.429.322h-.572a2.787,2.787,0,0,0-.858.322h0a3.573,3.573,0,0,1,.75-.322,8.823,8.823,0,0,1-1.036.357,6.289,6.289,0,0,1,.715-.322s-1.036.393-1.179.429a3.573,3.573,0,0,1-.75.25,18.188,18.188,0,0,0-2.073.786l-1.5.715a11.649,11.649,0,0,0-1.429.858,4.624,4.624,0,0,0-.643.572c0,.071.214-.25.25-.286a2.5,2.5,0,0,1-.679.536V6.11a2.072,2.072,0,0,1-.429.357,2.5,2.5,0,0,0-.572.465V6.754a4.038,4.038,0,0,1-.929.822,3.964,3.964,0,0,1,.572-.429,3.145,3.145,0,0,0-.715.643h0s-.393.357-.536.465a4.074,4.074,0,0,0-.536.429,8.29,8.29,0,0,0-.786.75V9.219c-.393.429-.75.786-1.108,1.251l-.036.25a4.216,4.216,0,0,1-.393.679l.643-.679s.822-.822.786-.929h0c.214,0,.429-.465.607-.607a6.11,6.11,0,0,1,.715-.643c.572-.393,1.072-.929,1.644-1.322a3.573,3.573,0,0,0-.643.643l-1.036.893a13.685,13.685,0,0,0-1.036,1c-.393.429-.858.858-1.215,1.322s-.75,1.215-1.143,1.787l.393-.679c0-.214.25-.5.393-.715a8.326,8.326,0,0,0-.607.929l-.25.536-.25.393a2.215,2.215,0,0,1,.357-.858s0,.322-.25.393a1.108,1.108,0,0,0,.214-.465s0,.25,0,.322A4.074,4.074,0,0,0,3.8,13.4a2.43,2.43,0,0,1-.429,1,3.573,3.573,0,0,0-.286.5,4.038,4.038,0,0,0-.429.75,3.573,3.573,0,0,1,.429-.893q.046-.231.071-.465a6.075,6.075,0,0,0-.786,1.679v-.214s-.179.429-.25.607a3.287,3.287,0,0,1-.322.822s0-.5,0-.536a2.358,2.358,0,0,0-.179.536L1.3,18.331v-.607a2.394,2.394,0,0,1-.214.429,2.073,2.073,0,0,0,0,.5l-.5,2.18a6.4,6.4,0,0,1,0-.858c-.214,0,0,.822-.214,1.072s0,1.143,0,1.143v-.715a5.253,5.253,0,0,0,0,1.5,2.644,2.644,0,0,1,0-.75,8.862,8.862,0,0,0,0,1.358c0,.607,0,1.179,0,1.787v2.537a1.822,1.822,0,0,1-.357.679,8.075,8.075,0,0,0,0-1.072,9.362,9.362,0,0,1,0-1V24.477A15.864,15.864,0,0,1,.3,22.3c.107-.715,0-.715.25-1.108a1.282,1.282,0,0,0,.25-.929c-.071-.071,0,.536,0,.715v.786a3.966,3.966,0,0,0,0,.679s0,.607,0,.75a3.287,3.287,0,0,0,0-.572,3.573,3.573,0,0,1,0-.607s0,.429,0,.536v.536h0v.929a12.078,12.078,0,0,0,0,1.608c0,.429,0,.822,0,1.251v1.215a9.362,9.362,0,0,0,0-1.036s0,.572,0,.715v2.68a4.681,4.681,0,0,1,0,.965A11.72,11.72,0,0,1,.4,29.8a3.109,3.109,0,0,1,0,.786v-.179L.8,31.981c.036.143,0,.75.25.893a3,3,0,0,1-.107-.715L.617,31.3a15.508,15.508,0,0,0,.715,2.287,7.468,7.468,0,0,1,.286.822,1.109,1.109,0,0,0,.25.822c.25.286,0,.536.214.643S1.8,34.661,1.367,34.2a1.358,1.358,0,0,1,0,.536,5.218,5.218,0,0,0,.25.679,4,4,0,0,1,.393.893v-.286c0-.036.286.715.429,1.036a7.147,7.147,0,0,0,.5.893s.465.572.429.715l-.357-.429.429.643a5.11,5.11,0,0,0,.5.715,2.966,2.966,0,0,1-.357-.572c0-.25-.25-.536-.393-.822L2.4,36.484a19.761,19.761,0,0,1-1-3.216,25.406,25.406,0,0,1-.572-9A24.62,24.62,0,0,1,9.122,8.4,23.155,23.155,0,0,1,13.41,5.5a22.442,22.442,0,0,1,2.108-.965c.607-.25,1.215-.607,1.858-.822l-.357.25.858-.393h0a3.573,3.573,0,0,1,1.644-.286c.607-.036,1.215-.214,1.93-.25h.75a5.038,5.038,0,0,0,.786,0h.858A7.147,7.147,0,0,1,25.023,3a4.038,4.038,0,0,1,.929,0h-.286l2.108.572a14.043,14.043,0,0,1,2.394.679,14.543,14.543,0,0,0-2.5-.357,23.762,23.762,0,0,0-2.644-.322,15.472,15.472,0,0,0-2.573,0H20.306a1.751,1.751,0,0,0,.786,0h.179a7.147,7.147,0,0,1-1.251,0,3.788,3.788,0,0,1-.679.214,5.18,5.18,0,0,1,.679-.214,2.323,2.323,0,0,0-.715.179,5.753,5.753,0,0,1-1.036.322,1.715,1.715,0,0,0,.572-.286,4.252,4.252,0,0,1-.715.286,1.644,1.644,0,0,0-.5.179,2.18,2.18,0,0,1,.572-.322,1.465,1.465,0,0,0-.536.25s-.643.357-.715.286a2,2,0,0,0,.536-.286,2.323,2.323,0,0,1-.75.179,14.079,14.079,0,0,0-1.358.5h0s-.607.286-.822.357l-.25.071a3.9,3.9,0,0,0-1.179.679A28.266,28.266,0,0,0,10.73,7.54l.393-.393A12.507,12.507,0,0,1,10.051,8a4.288,4.288,0,0,1,.393-.429A6.646,6.646,0,0,0,9.157,8.755c-.286.322-.643.572-.965.893A26.944,26.944,0,0,0,6.12,12.042a18.188,18.188,0,0,0-1.858,2.716c-.357.643-.679,1.322-1,2l-.429,1.108a4.145,4.145,0,0,1-.214.536h0a4.9,4.9,0,0,0-.25.858s0,.465,0,.286a2,2,0,0,1,0,.429v.536c0,.179,0,.893-.214.929h0q.021.429,0,.858a2.93,2.93,0,0,0,0,.929v-.357a3.966,3.966,0,0,0,0,1.322v3.538a4.574,4.574,0,0,0,0,.679,4.4,4.4,0,0,1,0,.929h0a3.788,3.788,0,0,1,0,1.108,7.539,7.539,0,0,0,0,1.251,4.181,4.181,0,0,0,0,.715c0,.286.322.643.322.893v-.357A3.3,3.3,0,0,0,2.261,31.7c-.214-.429,0-1.608-.286-2.394a13.95,13.95,0,0,0,.429,2.68,35,35,0,0,0,.715,3.573c.357,1.143.572,2,.893,2.966a4.181,4.181,0,0,0,.679,1.072l.536.715a2.459,2.459,0,0,0,.465.572c.179.107-.286-.607-.357-.75a9.04,9.04,0,0,0-.429-.822s0,0,0-.25-.25-.465-.25-.536.429.75.536.893l.5.75a13.866,13.866,0,0,0,.822,1.179s-.357-.322-.357-.393a6.892,6.892,0,0,1,.643.786c.143.179.679.929,1.036,1.358a11.4,11.4,0,0,0,1.572,1.644c-.214-.286-.536-.465-.715-.75s.322.179.322.286-.322-.393-.393-.465-.643-.786-.965-1.179l.5.5c0-.286-.5-.572-.715-.786l-.393-.572a.245.245,0,0,1,.25.25,1.572,1.572,0,0,0-.429-.536h0a3.573,3.573,0,0,1-.25-.536s-.322-.393-.322-.536c.679.858,1.394,1.715,2.108,2.537a10.255,10.255,0,0,1,1.608,1.93s-.5-.357-.643-.465a6.754,6.754,0,0,1-.715-.715,1.108,1.108,0,0,0,.322.393s.393.286.465.465-.286,0-.322-.214.357.322.465.393l1.286.965a25.013,25.013,0,0,0,2.93,1.822,23.87,23.87,0,0,0,3.109,1.322c.5.214,1.036.357,1.572.536s.75.286.786.179a8.933,8.933,0,0,1-1.679-.822l-2-1.108c.357.214,1,.393,1.394.572a6.611,6.611,0,0,0,1.179.429,8.613,8.613,0,0,1-.893-.286l-.5-.179a2.68,2.68,0,0,0,.465.214h.214s1.429.572,1.358.572a6.074,6.074,0,0,1,.858.322l1,.25-.643-.179h.536l.965.322s.75.357.893.286-.536,0-.75,0-.607-.214-.822,0a2.859,2.859,0,0,1,.643,0H20.27a5.4,5.4,0,0,1,1.251.214H20.485a18.254,18.254,0,0,1,3.359.536h-.75a6.429,6.429,0,0,1-.786,0,4.181,4.181,0,0,0,.965.179,3.288,3.288,0,0,0,.572,0h1.179a2.394,2.394,0,0,0,.715,0,2.466,2.466,0,0,1-.715,0,6.147,6.147,0,0,0,1.608,0H24.987a8.683,8.683,0,0,1-1.787-.858c-.893-.25-1.787-.429-2.68-.75a30.409,30.409,0,0,1-2.966-1.215,25.013,25.013,0,0,1-7.9-5.967A44.059,44.059,0,0,1,6.513,38.02s.393.536.465.5l-.322-.465h0a3.823,3.823,0,0,1-.572-.893.322.322,0,0,0,0,.179c-.214,0-.357-.715-.465-.893l-.536-1.322h0a1.68,1.68,0,0,0-.179-.357,6.039,6.039,0,0,1-.357-.965c.429.965.893,1.894,1.358,2.823l-.357-.607a2.394,2.394,0,0,0-.036-.286,5.181,5.181,0,0,1,.429.893,2.326,2.326,0,0,0,.322.536.858.858,0,0,1-.214-.286,4.574,4.574,0,0,0,.393.715l.393.572a1.894,1.894,0,0,1,.429.607c.036.214-.286-.357-.357-.429a3.587,3.587,0,0,0,.429.572l.5.536a18.617,18.617,0,0,1-2.18-4.181,7.147,7.147,0,0,1,.572,1s0-.214-.179-.25.429.643.679,1a3.9,3.9,0,0,1-.286-.536l.715.679s.5.715.465.822l-.465-.429a3.573,3.573,0,0,1,.429.715c.214.286.393.607.572.893l-1-1.036s-.286-.5-.393-.5.25.393.322.465l.322.393a1.858,1.858,0,0,0,.357.393l.357.465H7.907s.429.679.5.75l.572.786-.536-.572a1.422,1.422,0,0,1-.25-.322c-.036-.107.322.214.393.357s-.607-.572-.822-.858.286.679.572.822,0-.179-.214-.179a2.966,2.966,0,0,1,.429.572h0a13.327,13.327,0,0,0,1,1.108l.357.429a2.573,2.573,0,0,0,.643.607h.179s-.572-.322-.643-.5.643.536.643.536a6.87,6.87,0,0,1-.607-.465c0-.036.858.715,1,.822a3.824,3.824,0,0,1,.572.5,11.078,11.078,0,0,0,1.644,1.251c.429.357.893.643,1.358.965a11.363,11.363,0,0,0,1.429.822,5.932,5.932,0,0,0,.965.465H16.7a3.144,3.144,0,0,1,.786.357h-.214l.572.214s.536.286.643.25h-.214a4.574,4.574,0,0,1,1.179.393h-.5a2.894,2.894,0,0,0,.893.286h0a3.18,3.18,0,0,1,.679.25l.786.214a4.574,4.574,0,0,0,1.036.286h-.25a11.614,11.614,0,0,0,1.608.286h.357a6.039,6.039,0,0,1,.822,0l-.929-.25a4.859,4.859,0,0,0-1.179-.214h0s-.607,0-.822-.214l-.893-.286c-.643-.286-1.322-.465-1.965-.75a6,6,0,0,0,.858.214l1.286.465,1.394.393a15.214,15.214,0,0,1,1.751.357h.357a6.147,6.147,0,0,0,1.143,0h1.036a2.466,2.466,0,0,1-.893,0h-.071a4.788,4.788,0,0,1,.715,0h.893a19.44,19.44,0,0,1,2.037,0,2.859,2.859,0,0,1-.965,0h-.715a5.324,5.324,0,0,0,1.822,0h2.787a23.44,23.44,0,0,0,3.145-.679,5.931,5.931,0,0,0,1.251-.643l1.537-.786c.643-.322,1.286-.643,1.894-1l.822-.5c.179,0,.393-.357.572-.393a3.359,3.359,0,0,0-.786.429l-.893.5c-.607.286-1.215.607-1.858.858a13.864,13.864,0,0,1-2,.822l-1.108.357a5.825,5.825,0,0,0-.929.25s.715-.286.858-.357a11.469,11.469,0,0,1,1.179-.429s-.322.214-.357.179.357,0,.429-.179l.572-.25h0l-.25.179s.357,0,.465-.179l.607-.25c.5-.214.929-.536,1.394-.786l1.143-.607c.357-.214.679-.5,1.036-.75a6.467,6.467,0,0,0-.893.572s.465-.357.572-.429l1.143-.75,1.036-.75a4.9,4.9,0,0,1,.858-.643,12.543,12.543,0,0,1-1.215,1.179s.393-.5.607-.536h0l1.108-1.143c.179,0,.607-.465.679-.643s-.357.429-.5.607l-.572.715c.536-.572,1.108-1.143,1.608-1.787l.572-.643.572-.607a2.576,2.576,0,0,0,.465-.536c-.179.572-.929.893-1.108,1.465a1.858,1.858,0,0,1,.357-.393L47,40.379a6.325,6.325,0,0,1,.572-.786v.286a8.4,8.4,0,0,0,.679-.893c.214-.286.357-.572.536-.858s.286-.679.429-.75a5.575,5.575,0,0,0-.214.536l.357-.715a4,4,0,0,0,.357-.786,4.681,4.681,0,0,1-.607,1l-.786,1.072a22.37,22.37,0,0,1-1.608,2.037,24.085,24.085,0,0,1-5.038,4.288c.715-.607,1.358-1.251,2.037-1.894l.572-.536c.214-.179.393-.607.643-.75a8.254,8.254,0,0,0-.858.715,26.98,26.98,0,0,1,2.108-1.93c.536-.5,1.072-1.108,1.572-1.679a6.611,6.611,0,0,0,1.143-1.322c.214-.393.393-.858.607-1.286a3.037,3.037,0,0,0,.357-1s-.393.572-.465.715a8.986,8.986,0,0,1-.5.75v.214a2.752,2.752,0,0,1-.322.465,3.573,3.573,0,0,0,.5-.893,5.824,5.824,0,0,0,.393-.822,10.434,10.434,0,0,0,.607-1.286,2.037,2.037,0,0,1,0,.5c.179,0,.286-.75.357-.929s.465-1.072.643-1.608a9.505,9.505,0,0,0,.643-2.18,6.432,6.432,0,0,0-.75.679Zm0-8.469v.25a1.143,1.143,0,0,1,.107-.25Zm0,.465a.679.679,0,0,1,0,.286v-.286Zm0,0a1.358,1.358,0,0,1,0,.536A2.717,2.717,0,0,0,51,22.869Zm0,1a2.644,2.644,0,0,1,0,.75,2.5,2.5,0,0,0,0-.893s-.071.25-.071.286Zm0,1.894a2.717,2.717,0,0,1,0,.536,2.716,2.716,0,0,1-.214-.393Zm0,.893h0v0Zm0,0Zm0,.75Zm-.179.822a10.4,10.4,0,0,0,0-1.108c0,.465,0,.929,0,1.358s-.429,0-.429-.107Zm-.322,0Zm0,1.644V28.3a6.075,6.075,0,0,0,0,.929,5.324,5.324,0,0,0,0,.643Zm-6.611,9.183a.41.41,0,0,1,.322-.393,3.788,3.788,0,0,0-.786.572Zm1.394-1.787v-.214a1.251,1.251,0,0,1-.179.286s-.286.143-.286.107Zm-.214.25a.465.465,0,0,1,0-.25,2.787,2.787,0,0,0-.393.643,5.86,5.86,0,0,1-.715.929,2.7,2.7,0,0,1,.643-1.143Zm-.858.929s.286-.429.393-.429-.322.5-.393.572a4,4,0,0,1-.607.75q.085-.355.143-.715Zm-1.358,1.322a13.684,13.684,0,0,0,1.036-1l-1.108,1.108Zm-.393.893Zm-.393,0,.286-.322a1.536,1.536,0,0,1-.322.357ZM40.5,41.665s-.286.25-.322.286Zm-.786.536Zm0,0Zm-.357.214Zm9.505-22.4h0v0ZM28.882,0ZM29.6,0H29.2s.429.286.393.322Zm.286,0Zm1.894.572a5.453,5.453,0,0,0-.858.25c-.071.071.858.179.858.179Zm1.644.643h0Zm.679.322h0Zm.25,0Zm.607.179Zm.786,1.036-1-.465.607.214.679.322Zm.286.536Zm1.358.393a4.181,4.181,0,0,1-1.072-.5.929.929,0,0,1-.214-.214,7.614,7.614,0,0,1,.75.322,2.93,2.93,0,0,1,.715.429s-.036.036-.107-.143ZM5.763,9.326V9.112L5.548,9.4A1.49,1.49,0,0,1,5.763,9.326ZM8.586,6.754l-.322.393.393-.357-.071-.036Zm7.5-4.645h.286a.965.965,0,0,1-.393,0Zm-2.609.929h0a1.179,1.179,0,0,1-.357.214Zm0,0h.25a3.573,3.573,0,0,1-.607.357Zm-2.573,1.93Zm.322-.214-.858.679L11.623,4.4c.214,0,.5-.429.75-.465s-.5.357-.572.429-.929.715-1.358,1.072c.393-.357.822-.679,1.251-1Zm.536-.322-.286.25Zm-1.036.858Zm.715-.393.536-.429Zm-.179,0h0Zm.786-.465-.465.357.965-.715Zm.393-.357L11.98,4.4h0l-.429.286-.643.5a10.72,10.72,0,0,1,2.18-1.608,7.147,7.147,0,0,0-.643.572Zm.607,0Zm.5-.5h0l-.536.25a9.04,9.04,0,0,1,2.751-1.215,5.289,5.289,0,0,1-1.251.679,2.144,2.144,0,0,1,.465-.322C14.589,3.252,13.91,3.287,13.553,3.573ZM15.2,3.18H14.8a2.282,2.282,0,0,1,.429-.214,1.93,1.93,0,0,0,.393-.036A1.679,1.679,0,0,1,15.2,3.18Zm-.393,0h0Zm6.039-1.751a5.36,5.36,0,0,1-1.036.214,6.575,6.575,0,0,0-1.072.286h.357a3.788,3.788,0,0,0-.679.214h-.286l-.75.179-1.822.715.607-.322h.322a3.174,3.174,0,0,1-.536.214l-1.322.429.822-.465.322-.179s-.322,0-.429.179L14.3,3.573a13.4,13.4,0,0,1,1.679-1,12.829,12.829,0,0,1,1.251-.429,15.294,15.294,0,0,1,1.93-.429l1.822-.322Zm5.574-.25Zm-4.967.25h.429A1.7,1.7,0,0,0,21.45,1.429Zm0,0,.929-.179Zm2.43,0h0Zm0,0h0Zm2.394.286a4.574,4.574,0,0,0-1.072,0H24.13a10.041,10.041,0,0,0,1.036,0h2.287c-.071-.107-.572.107-.893-.071Zm1.179.214a1.465,1.465,0,0,0-.536,0h-.357a3.573,3.573,0,0,1,.858,0,5.36,5.36,0,0,1,1.179,0,4.538,4.538,0,0,0-.858-.071Zm1.143,0Zm.607,0H27.953a1.644,1.644,0,0,1,1,0Zm.786.286Zm0-.357a2.859,2.859,0,0,1-.536,0h.536ZM34.063,4Zm1.894,1.251Zm.25-.25h0Zm1.286.822a4.217,4.217,0,0,1-.679-.393A9.038,9.038,0,0,1,37.6,5.9ZM21.628,2.144ZM.51,26.55V26.3C.51,26.55.546,26.621.51,26.55ZM1.3,33.3v-.322S1.332,33.339,1.3,33.3Zm0-14.615V18.4a4.359,4.359,0,0,1,0,.607Zm0,.214h0v.429a.679.679,0,0,0-.143-.429ZM.974,21.44Zm.25-.536Zm0-.786v-.143c0-.607.25-.572.214-.715a3.573,3.573,0,0,1-.214.929Zm0-.393v0Zm0,.536a8.219,8.219,0,0,1,0-1.394c0-.214,0-.393,0-.572a3,3,0,0,0,.322-.822s0,.393,0,.536a5.217,5.217,0,0,0-.179.715h0a6.682,6.682,0,0,0,.071,1.608Zm0-.607v-.286a.858.858,0,0,1,.357.357Zm0-.572V19.3a3.145,3.145,0,0,1,0-.572Zm.25-.822v.572a10.148,10.148,0,0,1,.643-.965Zm2.108-4.4v0Zm-.536,2.323h0s-.036-.071-.071,0Zm1.036-2.251h0a17.866,17.866,0,0,0-1.036,2.037,1.465,1.465,0,0,1,0,.322,2.287,2.287,0,0,0-.322.75,4.2,4.2,0,0,1,.357-1.072l.5-1.358c.393-.643.858-1.215,1.286-1.858,0,.214-.5,1.251-.75,1.286Zm.25,0a10.291,10.291,0,0,1,.607-1.251s-.643,1.036-.679,1.143Zm.572-.858h0v0Zm.75-1-.607.893A4.61,4.61,0,0,1,5.37,12.4s.179-.536.214-.429Zm-.75.893-.25.465.465-.929h0l.572-.822ZM7.156,10.22c-.214.286-.465.536-.715.822s-.536.786-.607.75.286-.679.357-.679-.214.429-.393.429v-.25l.393-.572.607-.572c.322-.286.572-.858,1-1.036a6.361,6.361,0,0,0-.643,1.108ZM8.478,8.755Zm2.251-2.18c-.393.357-.822.607-1.251.929.465-.357.929-.75,1.429-1.072Zm.393-.25ZM12.3,5.289c-.5.393-1.108.679-1.644,1.072L8.979,7.611a5.789,5.789,0,0,1,.75-.465h0a29.051,29.051,0,0,1,2.787-1.858Zm.214,0Zm.179,0,.357-.214a1.894,1.894,0,0,1-.322,0Zm.465,0Zm.858-.75h0Zm0,.357.393-.25Zm.715-.679.536-.286Zm.607,0h-.322L15.411,4Zm.929-.643h0Zm4.288-1.322h.25a7.147,7.147,0,0,1-.929.214Zm-.965,0ZM17.876,3.573Zm.214,0Zm1.93-.357h0Zm5-.679h.25a1.93,1.93,0,0,1-.643,0Zm-4.288.357Zm.715,0h0c.25-.179.786,0,1.072,0C22.236,2.68,21.807,2.894,21.45,2.894Zm2.108,0H21.878a6.646,6.646,0,0,1,1.108-.214,10.041,10.041,0,0,1,1.465,0,4.5,4.5,0,0,0-.965.143Zm.786,0Zm.679-.036H24.2a4.431,4.431,0,0,0,.643,0h.179ZM27.167,2.5h0a6.325,6.325,0,0,0-.822,0,2.716,2.716,0,0,1,.965,0Zm-1.036,0h-.357a2.644,2.644,0,0,0,.75,0Zm0,0Zm-.429,0h.536a2.644,2.644,0,0,1-.75,0Zm.5.679a2.394,2.394,0,0,0-.715,0,1.727,1.727,0,0,1,1-.179Zm.822-.429H26.81S27.2,2.716,27.024,2.751ZM1.225,26.764V27.3h0a1.429,1.429,0,0,1,0-.536Zm0,1.822Zm0-.607V27.3c0-.322.071.572.071.572ZM22.379,50.027Zm-3.573-1.143h0ZM8.085,39.807Zm37.02,2.323s.214-.179.214-.25Zm3.573-7.468a9.258,9.258,0,0,0,.5-1.036c-.036-.036-.322.965-.393,1.108a4,4,0,0,1-.465.858l-.572,1.143a10.72,10.72,0,0,1,.965-2.215Zm-.214,1.286a5.11,5.11,0,0,1-.536.965,8.574,8.574,0,0,1,.393-.822l.179-.322Zm-.536,0a2.537,2.537,0,0,0,.465-.929,2.323,2.323,0,0,1-.322.822,12.04,12.04,0,0,1-.679,1.143s.465-1.215.572-1.143,0-.107,0-.107ZM42.89,40.986Zm-1.751,1.608h0a2.044,2.044,0,0,1-.286.286Zm-.929.607h.214a2.037,2.037,0,0,1-.572.393Zm-.536.357Zm-1.143.607-.822.393ZM38.1,42.88l.286-.214a4.038,4.038,0,0,1-.643.429Zm-.465.214h0Zm-.536.286.429-.286-.607.393Zm-1.358,1.751a13.9,13.9,0,0,1,1.572-.572,2.358,2.358,0,0,1-.536,0,7.647,7.647,0,0,1-.786.357h0l-.893.322ZM34.1,44.81l1-.357h-.286Zm-.393,0h.25s-.322.214-.25.143Zm0-.25h0Zm-.322,0h0s-.143.25-.107.25ZM32.17,46.775H31.6l.715-.214h.429C32.849,46.56,32.17,46.739,32.17,46.775Zm.536,0Zm-3.752,1.537H27.846a4.109,4.109,0,0,0-.929,0,1.322,1.322,0,0,1,.643,0h1.608s.893-.214.965,0h0a3.323,3.323,0,0,1,.822,0l1.215-.536h-.536l-.965.179Zm1.108,0a1.644,1.644,0,0,1-.715,0s.643-.036.715.071ZM28.6,46.453a11.114,11.114,0,0,1-1.894,0h3.18a5.9,5.9,0,0,1,1.108,0h-.214a2.537,2.537,0,0,1,.607,0,11.148,11.148,0,0,1-2.787,0h0Zm-.465.643h-.393s.393-.107.429-.071Zm-.715,0Zm-1.465-1.644h0a4.323,4.323,0,0,1,.679,0,1.572,1.572,0,0,0-.643-.036Zm-1.5,1.787H23.379a10.719,10.719,0,0,1-1.537-.357,18.545,18.545,0,0,1-3.073-1.108l1.143.322a4.609,4.609,0,0,0-.679,0l.465.179a9.755,9.755,0,0,0,1.429.393h-.25c.214.214.822,0,1.072.179l-.786-.393s-.858,0-.929-.286h0l1.215.286a7.325,7.325,0,0,0,1.215.25l1.286.286,1.465.286a3.359,3.359,0,0,1-.929-.071Zm-8-1.5h0s1.858.822,1.965.858a7.147,7.147,0,0,1-1.93-.893Zm.357-.214.822.429a3.9,3.9,0,0,1-.893-.357,1.786,1.786,0,0,0,.465,0s-.607,0-.679-.286Zm0-.715Zm-.393.572h0Zm1.465-.25Zm.5,1.108a.858.858,0,0,1,.322,0l-.822-.143Zm-.822.679.679.286a6.218,6.218,0,0,1-.893-.393Zm.322-.465a11.864,11.864,0,0,0,1.143.429A7.853,7.853,0,0,0,17.876,46.453Zm1.143.25h0s-.429-.25-.465-.25a1.751,1.751,0,0,1,.715,0l1.036.357Zm-.214-.25Zm2.644,0Zm-1.358-1.537-1.286-.607c.607.179,1.143.5,1.751.715l.893.357-1.465-.465h.107Zm-2.93-1.394a4.931,4.931,0,0,1-1.179-.715,6.86,6.86,0,0,1-.75-.572,1.108,1.108,0,0,1-.322-.25,3.573,3.573,0,0,0,.643.357,5.324,5.324,0,0,1,.715.536,8.073,8.073,0,0,0,.715.465,3.392,3.392,0,0,1,.75.322h0s.786.214.786.393l-.965-.393a1.751,1.751,0,0,0,.393,0,5.075,5.075,0,0,1-.965-.071ZM13.838,40.7l-.322-.286h0a.536.536,0,0,1-.214-.179h0a1,1,0,0,1-.357-.322l.643.429a3.073,3.073,0,0,1-.5-.465,12.471,12.471,0,0,1,1.251,1.143l.75.643s.429.214.465.322h-.036q-.958-.562-1.858-1.215Zm.214,1.215v-.179l.322.25Zm0,.429Zm-.465.536s-.393-.214-.429-.322S13.517,42.88,13.588,42.88ZM11.98,42.2l-.965-1.036a3.743,3.743,0,0,1-.286-.393,2.93,2.93,0,0,1,.929.822s-.357-.322-.429-.286.715.607.822.715a1.465,1.465,0,0,1-.393-.25s.214.179.25.214l.536.429H12.23a5.753,5.753,0,0,0,.822.786,4.931,4.931,0,0,1-1.072-.893Zm.465.679a1.572,1.572,0,0,1-.357-.286S12.516,42.88,12.445,42.88ZM10.3,40.307s-.214-.179,0-.25l.679.607h0ZM8.764,36.484a2,2,0,0,1-.179-.286l.322.429-.179-.214a9.04,9.04,0,0,0,.643.965,6.11,6.11,0,0,0-.393-.5,1.982,1.982,0,0,1-.214-.286Zm-1.179-.214a6.182,6.182,0,0,0-.429-1h0a5.5,5.5,0,0,0-.286-.679,5.346,5.346,0,0,0-.393-1.215,20.44,20.44,0,0,0,2.108,4.359,6.541,6.541,0,0,1-.465-.572c0-.214-.429-.5-.465-.715h0ZM6.227,19.4v.536s.179-.679,0-.715a1.536,1.536,0,0,0,0,.179Zm0,11.47ZM6.084,19.725a.679.679,0,0,1,0,.322v-.322Zm0,9.612v.357a2.93,2.93,0,0,1-.071-.357Zm0,2.859.214.679s-.179-.715-.25-.715Zm.179-14.043a3.216,3.216,0,0,0-.393.965c0,.25-.214.465-.286.715a8.969,8.969,0,0,1,.607-2.18c.322-.643.643-1.286,1-1.894a18.438,18.438,0,0,1,2.43-3.323,18.724,18.724,0,0,1,1.894-1.715l1-.75a2.644,2.644,0,0,1,.465-.429c.179,0,.5-.429.643-.429s-.393.322-.5.357l-.286.25c.429-.286.858-.5,1.251-.786a5.159,5.159,0,0,1,.75-.536,14.508,14.508,0,0,1,2.287-1.251,14.829,14.829,0,0,1,5.539-1.072l-1.537.25h-.393a3,3,0,0,1-.429,0h1.215a8.933,8.933,0,0,1-2.073.715s.393.107.429.107H18.7a5.146,5.146,0,0,0-1.108.465l.286-.071a8.254,8.254,0,0,0-1.251.643l-.893.393h-.286A2.859,2.859,0,0,1,16.59,7.9a5.646,5.646,0,0,0,1.286-.429,2.716,2.716,0,0,0-.75.286,10.184,10.184,0,0,1-1.108.429,6.539,6.539,0,0,0-1.143.5c-.393.214-.679.572-1.072.75h0l-.679.643.536-.357-.536.5s-.465.286-.465.393c-.214.214-.536.357-.715.572h0s-.357.357-.393.322h0l-.465.393s-.357.286-.357.465v-.322l.536-.643s.429-.679.572-.679-.679.75-.786.893-.536.893-.679.929v-.214l-.393.5a.965.965,0,0,0-.25.286h0a2.44,2.44,0,0,0-.429.607c-.036.179,0-.286.214-.429s-.465.5-.607.715a7.147,7.147,0,0,1-.822,1.322,3.573,3.573,0,0,1,.25-.536h0a10.291,10.291,0,0,1,.786-1.358,4.61,4.61,0,0,0-.357.858s.893-1.143.929-1.251,0,0,0,.286.465-.75.536-.822a2.894,2.894,0,0,1-.357.322s-.393.607-.5.607h0c-.179,0-.25.393-.393.572l-.393-.071a6.861,6.861,0,0,0-.643,1.108c-.179.25-.393.5-.536.75a5.646,5.646,0,0,0-.25.822,3.359,3.359,0,0,0,0-.572,5.258,5.258,0,0,0-.429,1,.929.929,0,0,1,0-.536,3.037,3.037,0,0,0-.393.929.893.893,0,0,1-.107.715ZM5.87,19.725V19.26a3.025,3.025,0,0,1-.036.465Zm0,.572A1.805,1.805,0,0,1,5.62,21.4C5.727,21.047,5.727,20.654,5.87,20.3Zm1.072-4.86.214-.393Zm.715-1.143Zm.25-.286Zm.607-1.858Zm-.572.179c.286-.322.536-.643.858-.965C8.55,11.685,8.228,12.006,7.942,12.328Zm.643.75Zm.357-2.108h0s-.071.143,0,0Zm0,1.608Zm3.323-2.716s-.214.25-.322.25Zm0-.25h.214a.564.564,0,0,1-.25,0ZM13.3,8.9h0l-.286.25-.643.393Zm0-.429ZM14.982,8h0Zm0,0,.393-.286a5.525,5.525,0,0,1-.536.143Zm-.214.25a9.148,9.148,0,0,1-1.251.786c.25-.465.786-.643,1.108-.929Zm-1.179.322.286-.214s.214-.214.322-.214a2.108,2.108,0,0,0-.75.286Zm2.18-.679.429-.214a1.286,1.286,0,0,0-.357.25s-.143-.214-.214-.179Zm.679-.286ZM20.02,6.039a3.666,3.666,0,0,0-.607.25A1.822,1.822,0,0,1,20.02,5.9Zm-.393,0Zm1.322,0s-.607,0-.715.25.536-.214.75-.286h0Zm-.965.25H19.7c-.286,0,.5,0,.572-.25s-.214-.036-.286,0Zm0,.214,1.108-.214a8.326,8.326,0,0,1-1.822.393Zm1.894-.214L21.45,6.11a1.036,1.036,0,0,1,.357,0Zm.357,0Zm2,0h-.322a2.18,2.18,0,0,0-.5,0h.429a1.751,1.751,0,0,0,.357-.143Zm0-.357h.357a1.048,1.048,0,0,0-.286-.143ZM27.81,43.7a9.327,9.327,0,0,0,2.43-.214,10.005,10.005,0,0,1-2.073.322,9.72,9.72,0,0,1-2.287,0ZM27.2,6.182Zm.536,0h.536a2.716,2.716,0,0,1-.536.107Zm.858.286Zm1-.286h-.5a2.073,2.073,0,0,1,.5,0s.179.036.071,0Zm.929.393.715.357-.965-.465Zm-.143-.536Zm-.429,39.307.965-.214a1.644,1.644,0,0,1,.715,0,16.688,16.688,0,0,1-1.858.286Zm0-.75h0Zm.25,0a.786.786,0,0,1,.393,0ZM28.6,45.739a2.037,2.037,0,0,0,.465,0A.9.9,0,0,1,28.6,45.739Zm.357,0Zm-.357-.322H27.56l1.036-.143h.75Zm-1.5-.393Zm.357.25h0Zm-2.43-.893a1.322,1.322,0,0,0-.643,0,1.465,1.465,0,0,1,.679,0h-.322a18.261,18.261,0,0,1,1.965,0,13.185,13.185,0,0,0-1.679,0Zm0,.357Zm-.786,0Zm.25,0Zm-.5-.465a1.429,1.429,0,0,1-.679,0s.822-.071.929-.071Zm-.214,0h.786a2.787,2.787,0,0,1-.536-.179ZM24.7,6.325Zm-.357,37.949Zm2.073,0a5.288,5.288,0,0,1,.75,0c-.214-.214-.5-.107-.75-.143Zm.5.822h0a2.037,2.037,0,0,1-.465,0Zm-.322,0Zm1,.322H28.7A2.394,2.394,0,0,1,27.6,45.417Zm.286-1.179h0s.071-.071,0-.107Zm.25,0Zm0,.822h0Zm0,0h.858a2.5,2.5,0,0,1-.5,0h0q-.088-.022-.179-.036Zm-.536.822h-.143a3.968,3.968,0,0,1,.607,0ZM26.7,43.344a3.573,3.573,0,0,1-.858,0,3.145,3.145,0,0,1,1,0Zm-.715.179h0a.893.893,0,0,1-.429,0Zm-.5-37.27Zm0,37.2Zm.465.572h.357a2.823,2.823,0,0,1-.786,0,1.572,1.572,0,0,0-.536,0h.965Zm-2.573,0h-.357a1.215,1.215,0,0,1,.25-.071Zm-.25.25c.429.179.929.179,1.358.322A19.01,19.01,0,0,1,20.27,43.38l-1.93-.929-.965-.572a4.574,4.574,0,0,0-.75-.5,2.359,2.359,0,0,1,.75.286c-.25-.214-.75-.214-.965-.465s.465,0,.465,0-.679-.393-.822-.5-.286,0-.322-.25h0s-.572-.25-.572-.357l.643.357.572.322s-.465-.214-.5,0,.572.322.322.214a10.435,10.435,0,0,1,1.143.75c.357.25.715.429,1.072.715h0s.965.465,1.072.536l1.429.572c.536.179,1.394.357,2.108.643Zm-2.823-.393a8.183,8.183,0,0,1-1.322-.429,4.448,4.448,0,0,0-.858-.572,1.251,1.251,0,0,1,.607.214,2.18,2.18,0,0,1,.643.322,2.072,2.072,0,0,0,.607.214h.5a2.68,2.68,0,0,0-.572-.179h-.25a2.108,2.108,0,0,1-.5-.214.572.572,0,0,0-.214,0h.214a2.466,2.466,0,0,1-.536-.357l.715.214s.429.214.536,0h0c.25,0,.572.25.858.322H21.2l.536.214c.179,0,.786.286.929.214s-.5,0-.643,0H20.949l-1.072-.25Zm-.786.322Zm-1.644-.858-.965-.465a3.966,3.966,0,0,0,.679.322l.607.357Zm0,.5ZM16.769,43.2a6.432,6.432,0,0,1-1.537-1.108l.679.357.286.286,1,.572s-.393-.143-.393-.107Zm.214,0ZM14.3,40.629h0a3.573,3.573,0,0,1,.679.572l-.393-.25Zm0-.25a12.328,12.328,0,0,1-.965-1.072l1.036,1S14.3,40.271,14.3,40.379Zm-2,0h0s.357.286.465.393Zm0,1.572-.214-.179ZM12.087,39.7a1.644,1.644,0,0,1-.214-.393,7.147,7.147,0,0,0,.786.679Zm-.572,0h0l-.179-.393Zm-.214-.393-.25-.286.322.322Zm-.286-.822-.5-.643-.25-.465s.536.75.643.893a12.685,12.685,0,0,0,.822,1.108ZM11.015,40.557Zm0-.715-.286-.536a2.394,2.394,0,0,1,.5.536ZM9.3,35.733a3.334,3.334,0,0,0-.25-.536,5.661,5.661,0,0,0,.429.715,4.86,4.86,0,0,0,.465.858A4.252,4.252,0,0,1,9.3,35.733Zm0,1.965ZM9.229,13.936a19.9,19.9,0,0,1,3.145-3.216A22.083,22.083,0,0,1,14.3,9.541l.965-.572a3.573,3.573,0,0,0,.893-.429,3.931,3.931,0,0,1-.643.5c.322,0,.536-.536.893-.607a2.894,2.894,0,0,0-.357.322h.286l.536-.357H17.3s.5-.357.572-.286h0l.75-.25a5.646,5.646,0,0,1-1.251.572h.25S16.34,8.969,16.34,9s.214,0,.214-.179a5.682,5.682,0,0,1-.643.286l-.786.429a8.469,8.469,0,0,0-1.251.679,13.972,13.972,0,0,0-1.465,1.072l-.465.465s-.214.322-.322.357h0s-.393.322-.465.393l-.822.822a10.184,10.184,0,0,0-.822.929,1.663,1.663,0,0,1-.679.822,9.612,9.612,0,0,1,.393-1.143Zm-.465.536a.572.572,0,0,1,0-.25s0,.071,0,.25Zm.357-.5ZM14.7,8.933a5.36,5.36,0,0,0-.393.393A3.963,3.963,0,0,1,14.7,8.933Zm-.357,0Zm.393,0h.25s-.393.322-.465.393Zm.893-.5s-.536.286-.572.429.429-.357.572-.465h0Zm.858,0h.286A.743.743,0,0,1,16.483,8.433ZM14.3,9.97Zm-.965,1.286h0c-.107-.071-.107-.071-.143,0Zm-.965,28.051-.214-.214s.393.322.5.393Zm.429.393h-.179l-.322-.393a1.751,1.751,0,0,1,.5.322Zm-1.537-1.108a7.146,7.146,0,0,1-.536-1.072l.429.429a1.5,1.5,0,0,1,.393.536l-.429-.429c.25.214.5.858.822.965a1.572,1.572,0,0,1-.5-.465h0Zm.607.679s.25.357.322.357-.536-.536-.643-.715Zm.25-.286-.465-.465h0c.179,0,.393.465.572.5Zm-.322-.429a10.72,10.72,0,0,1-1.394-1.93c.322.393.643.75.929,1.143h0l.536.75.214.25Zm-.465-26.443-.607.75h0s-.393.5-.5.643a6.253,6.253,0,0,1,1.358-1.537Zm.25-.25c0-.214.429-.393.607-.607l-.786.822Zm-.5,24.656Zm-.357-.286v-.214l.214.25Zm0-.5Zm0,.893h0c0-.179-.286-.286-.393-.5ZM11.659,12.9a5.36,5.36,0,0,1,1.251-1.286Zm1.358,25.013a.357.357,0,0,1,0-.179Zm-3.359-2.18a3.573,3.573,0,0,1-.357-.607l.893,1.429a2.32,2.32,0,0,1-.322-.393Zm0-.429v.179s-.143.036-.143-.036Zm0-21.44s0,.25-.179.25.679-1.036.75-.965-.572.715-.643.786Zm0,1.5-.214.322a.643.643,0,0,1,.179-.25Zm.214,19.868a1.251,1.251,0,0,1,0,.286ZM9.265,15.9l-.214.357ZM8.943,32.875v0Zm0-17.867s0,.286-.25.322,0-.286.25-.357ZM8.586,32.16l.214.429a.63.63,0,0,0-.286-.5Zm.572,1.608c.214.5.393,1,.643,1.465s-.357-.572-.393-.572l.286.572v-.25h0a1.93,1.93,0,0,1-.25-.465h0s-.214-.5-.25-.536a1.608,1.608,0,0,1,0-.393c0-.286-.25-.536-.322-.822Zm-.179,1.108V34.7h0Zm0-.179v.429a4.252,4.252,0,0,1-.322-.536Zm0,.25Zm.893,1.787h0s.357.429.465.536l.357.5a6.646,6.646,0,0,1-.786-1.215Zm0,.393v.214s.143-.393.214-.393Zm0,3.216h0l-.214-.214Zm0-.322h.179l.357.357a1.286,1.286,0,0,1-.071-.536Zm1.429,0,.322.322-.429-.393Zm.893,0,.286.286Zm0-.607-.715-.858a3.073,3.073,0,0,1,.465.5l.75.893Zm.179-.322.5.536a1.78,1.78,0,0,0-.071-.822Zm.429-.25.357.357Zm.322.357h0a4.462,4.462,0,0,1,.429-.286Zm1.394,1.572-.214-.75.643.393-.322-.179a9.647,9.647,0,0,0,1.179.786l.786.607h.286a2.358,2.358,0,0,1-1-.572s.322.214.393.179-.643-.357-.715-.429a3.573,3.573,0,0,0-.607-.322Zm1.036.393h0Zm2.573,2.144c.179-.429-.036-.429-.25-.429a3.216,3.216,0,0,1,.75.286s-.143-.286-.071-.286Zm-.25-.643h.25l-.536-.214Zm0,0v0Zm.322,0-.465-.214h0a4.159,4.159,0,0,0,.536.214Zm-.429-.286h-.25s.465.179.536.214Zm-.322-.214-.572-.286h0c.179,0,.5.322.643.286Zm-1.108.465a2.68,2.68,0,0,1,.429.25Zm-.393-1.322a1.358,1.358,0,0,1,.5.393Zm.572,1.179.572.357Zm-.929-.893.393.286Zm.5.536h0Zm1.286,1.358.607.322a2.787,2.787,0,0,1-.75-.322Zm1.537-1.108h0s-.214-.107-.179-.107Zm.322-34.947h.286s-.322,0-.357.179Zm1.286,35.162Zm0,.643Zm.214,0ZM22.7,6.039h-.5a3,3,0,0,0,.5,0ZM7.585,35.483s.25.465.357.679-.286-.5-.357-.643h0Zm-.429-2a1.772,1.772,0,0,0,.286.715A5.72,5.72,0,0,0,7.156,33.482Zm.25,1.751a2.537,2.537,0,0,1-.25-.536,3.9,3.9,0,0,1,.357.536Zm-.25-18.438v.465a6.539,6.539,0,0,1,0-.893A2,2,0,0,1,7.156,16.795Zm0,16.223v0Zm0-1.322Zm0-3.573a7.54,7.54,0,0,1,0,.893,7.54,7.54,0,0,1-.286-1Zm-.322-9.291a1.322,1.322,0,0,1,0-.5,2.037,2.037,0,0,0-.286.393Zm0,3.323a1.215,1.215,0,0,1,0,.357,1.215,1.215,0,0,1-.286-.465Zm0-3.788a3.313,3.313,0,0,1,.322-1.072h0a2.144,2.144,0,0,0,0-.393,5.36,5.36,0,0,1-.679,1.358Zm.429,7.54h0a.465.465,0,0,1,0-.214Zm0,1.286a3.573,3.573,0,0,0,0-.679c0,.393,0,.822,0,1.215a.969.969,0,0,1-.465-.643Zm0-.858Zm0-.965v.25c-.357-.322-.357-.322-.322-.357Zm0-8-.322-.107Zm.75-1.537v-.25s0,.536-.25.643a4.252,4.252,0,0,1-.607.429,2.394,2.394,0,0,0,.214-.536,1.822,1.822,0,0,0,.25-.536,1.286,1.286,0,0,1,0,.393Zm.179-.286a.322.322,0,0,1,0,.214Zm0,15.794v-.179a2.287,2.287,0,0,0,0,.25Zm0,3.359h0a.322.322,0,0,1,0-.25Zm0,.536h0a1.894,1.894,0,0,1-.286-.607Zm-.75-8.111h0v0Zm0,6.146a1.286,1.286,0,0,1,0-.322A1.286,1.286,0,0,1,7.442,33.268ZM7.156,19.51a.572.572,0,0,1,0-.322v.322Zm.357-.214a1.715,1.715,0,0,1,0-.643A4.324,4.324,0,0,1,7.514,19.3Zm.25-3.573a5.136,5.136,0,0,1,.322-.75,1.93,1.93,0,0,1,.25-.465c0,.25-.25.5-.357.786s-.25.572-.214.607Zm.286-1.036Zm.322,0Zm0,16.795a.715.715,0,0,1,0-.286Zm0,1.179Zm0,.357a2,2,0,0,1,0-.429,2,2,0,0,1-.036.429Zm0-.393Zm0-.25v0Zm0-.572Zm0-.179v-.25a.75.75,0,0,1-.25.25Zm0,.214Zm0,3.18v.322l-.214-.429Zm0,1.5v.25l-.25-.393Zm0,.286a4.54,4.54,0,0,0,.25.429,4.538,4.538,0,0,1-.357-.429Zm0-1.072v0Zm0-.25h0l.322.429a1.373,1.373,0,0,1-.5-.429Zm0-2.073a.5.5,0,0,1,0-.25.893.893,0,0,1,0,.322Zm0-.286h0v0Zm0-17.867v.214a1.93,1.93,0,0,0,0-.393s.107.286.071.322Zm1.286-2.573ZM6.37,19.046v-.357c0,.071,0,.429-.179.393ZM8.514,33.875v-.25L8.8,34.2ZM9.3,38.056v.214a1.93,1.93,0,0,1-.322-.429Zm0,.5c0,.25.393.5.572.786a6.754,6.754,0,0,1-.893-1.108Zm0,0Zm0,.214.25.25Zm-.5,0a3.252,3.252,0,0,0,.393.572s-.071-.536.036-.572Zm.5.786s.286.214.286.286l-.107-.536Zm0-1.179h0s-.536-.858-.572-.858a9.541,9.541,0,0,1,.858,1.143Zm2.966,2.5h0l-.322-.322a4.252,4.252,0,0,1,.715.679Zm1.608.822.643.393h0L14.3,41.7Zm3.573,1.787a4.112,4.112,0,0,1,.893.429q-.135-.208-.25-.429Zm2.68.679h.322a1.072,1.072,0,0,1-.465,0Zm2.215.75Zm1.5.25h-.036a1.715,1.715,0,0,1,.858,0Zm.393,0h0Zm-.357,0Zm-.679,0Zm1.108.25h0Zm.607.429Zm-.214-.393Zm-.607-.429h.929s-1.394-.214-1.5-.179h.286a4.537,4.537,0,0,1-.965,0c.357,0,.679.214,1.036.25H22.093a9.424,9.424,0,0,0-1.072-.357,2.072,2.072,0,0,1,.643,0,6.181,6.181,0,0,0-.858-.357h3.931Zm-1.322-.214Zm2.394.25Zm.607,0h.357a2.573,2.573,0,0,1-1.036,0Zm-.393.214Zm.465,0h.107a3.18,3.18,0,0,1,.822,0Zm4.145,1.751h1.537a2.778,2.778,0,0,1-.893-.071Zm.965-.214a1.358,1.358,0,0,1-.536.179Zm-.643.465h.465s.286-.107.179-.071Zm0-.429Zm1-.393h-.25a2.251,2.251,0,0,1-.679,0l.822-.179h0a3.573,3.573,0,0,0,.893-.214A1.715,1.715,0,0,1,31.312,46.453Zm-1.215.607h.286a6.467,6.467,0,0,1-1.108.179Zm0-.393h0Zm2.037.536h0Zm-.286-.822h-.393l.715-.357a7.147,7.147,0,0,0,1-.214s-.5,0-.607.214Zm1.465-1.108h0Zm-.5,0h.465l-.607.179Zm0,.25a9.755,9.755,0,0,1-1.465.357,14.615,14.615,0,0,1-2.144.25,4.61,4.61,0,0,0,.679,0h1.036a2.859,2.859,0,0,1,1.894-.965Zm-1.108,0a3.038,3.038,0,0,0,.607,0s-.429-.393-.607-.357Zm-.429-1.894H30.99c.822-.322,1.715-.429,2.573-.679a16.688,16.688,0,0,1-2.287.322ZM32.348,7.9h.25l.393.179a2.5,2.5,0,0,1-.822-.715l-.75-.214h.75s0,.214.179.25Zm.572,34.84s.75,0,.893-.286-.786.25-1.143.393Zm0,1.751Zm.357,0Zm.643-1.322-.5-.286h.25a6.146,6.146,0,0,1,.75-.25Zm.929-1.358s.429,0,.536-.25l.75-.357c.465-.25.929-.5,1.358-.786a5.967,5.967,0,0,1-1.537.893,15.186,15.186,0,0,1-1.751.75ZM34.778,8.5s.465,0,.572.286-.393,0-.214,0Zm2.18.429a4.431,4.431,0,0,1,.822.607,7.9,7.9,0,0,1-1.429-1ZM38.244,8.5l.429.322c-.25-.214-.572-.393-.858-.607a4.466,4.466,0,0,1,.429.286Zm0,0Zm.679,31.838-.286.214a.893.893,0,0,1,.357-.286Zm0,.5-.286.214s.143-.393.25-.357Zm-.179-29.337h0s.071-.107-.036-.143Zm0,27.765h0a4.574,4.574,0,0,1-.75.5,7.147,7.147,0,0,1,.679-.465Zm-.536,1.5h-.25a1.868,1.868,0,0,0,.429-.25ZM37.887,8.326Zm-.179,1.465s-.214-.25-.286-.25.286.179.429.286Zm0,.572a1.858,1.858,0,0,1-.357-.393s.357.179.322.25Zm0-2.108ZM37.53,8.04Zm-.679,33.482a1.394,1.394,0,0,1-.5.286Zm-2.644.429h0Zm0,1.715Zm0-.679.286-.214Zm.286-.536Zm0,0,.429-.25a1.856,1.856,0,0,0,.893-.393,9.04,9.04,0,0,1-1.072.5Zm.893,0Zm2.823-.465-.357.214h0a20.3,20.3,0,0,1-2.787,1.394c1.036-.607,2.18-1.072,3.216-1.679Zm.393-.25Zm1.787-1.608-.357.286a4.485,4.485,0,0,1,.607-.465Zm0-.429a6.861,6.861,0,0,1-1.537,1.143,4.217,4.217,0,0,1-1.036.572c.572-.393,1.179-.75,1.751-1.179h0a10.9,10.9,0,0,0,1.072-.929Zm-.679-3.037.357-.322h0v-.25h0l.322-.393.393-.536a2.966,2.966,0,0,0-.25.465c0-.393.679-.643.822-1s0,.25,0,.322l.214-.357.465-.893h.179a1.465,1.465,0,0,0,0-.322,6.217,6.217,0,0,0,.393-.643,6.719,6.719,0,0,0,.5-.858h0a11.113,11.113,0,0,0,.536-1.108c.143-.393.286-1,.5-1.465h0a5.431,5.431,0,0,0,.429-1.286,3.323,3.323,0,0,0,.179-.75,9.148,9.148,0,0,1,0-.965s0-.893,0-.858h0a1.322,1.322,0,0,1,0-.643,1.787,1.787,0,0,0,0,.75v-.858a11.686,11.686,0,0,0,0-1.572,25.835,25.835,0,0,0,0-3.323,6.253,6.253,0,0,1,.179,1.644c0,.429,0,.822,0,1.215v.75a4.359,4.359,0,0,0,0-1.179,4.681,4.681,0,0,0,0-1V19.868h0v-.715h0c.179-.214,0-.786-.25-1.036a4.037,4.037,0,0,0,0-.643,4.575,4.575,0,0,1,0-.965,3.18,3.18,0,0,0-.179-1.143,9.183,9.183,0,0,1,.893,1.894l.214,1v.893a2.787,2.787,0,0,0,0,.786,3.359,3.359,0,0,1-.214-.536,1.822,1.822,0,0,0,0,.607q0,.482,0,.965a10.185,10.185,0,0,0,0,1.5v.179a5.037,5.037,0,0,1,0,1.036q0,.59,0,1.179a1.679,1.679,0,0,1,0,.607,3.573,3.573,0,0,0,0-.607,8.147,8.147,0,0,1,0-.929,3.573,3.573,0,0,0,0-1.751,4.788,4.788,0,0,0,0,1,8.826,8.826,0,0,1,0,1.394,5,5,0,0,1-.286,1.215c-.107.393,0,.5-.179.786a8.216,8.216,0,0,1,0,.929h0v.25h0a5.217,5.217,0,0,1-.536,1.644c0,.429-.357.858-.536,1.286h0a4.4,4.4,0,0,0-.429.929L43,32.339c-.214.357-.465.786-.715,1.143a1.787,1.787,0,0,0-.286.429,1.787,1.787,0,0,0-.286.429s-.286.322-.322.357a1.215,1.215,0,0,1-.286.322c-.25.25-.429.536-.679.786s-.5.607-.786.893-.715.536-1.036.822a12.4,12.4,0,0,0,1.465-1.036Zm-.036-24.906a2.537,2.537,0,0,1,.536.536Zm1.072,1.965v.214A.5.5,0,0,1,40.746,13.722Zm.429.822h0a2.5,2.5,0,0,0-.286-.357Zm.357,0A4.574,4.574,0,0,1,42,15.58a9.113,9.113,0,0,0-.465-.965Zm.536-2c-.214-.25-.393-.536-.572-.786s.5.5.715.822l.715,1.072a11.327,11.327,0,0,1,.929,2.073,3.743,3.743,0,0,1-.286-.393,4.074,4.074,0,0,1,.572,1.108,8.718,8.718,0,0,1,.5,1V18.4a4.644,4.644,0,0,0,0,.75,1.822,1.822,0,0,1-.25-.607,3.752,3.752,0,0,0,0,.858,8.791,8.791,0,0,0,.25,1.036v-.393a7.9,7.9,0,0,1,.286,1.322v-.286a3.359,3.359,0,0,0-.286-1.215h0v1.465a4.537,4.537,0,0,0,0,.786,5.467,5.467,0,0,1,0,1.072.5.5,0,0,0,0-.25,4.681,4.681,0,0,1,0,1.215v.429a3.824,3.824,0,0,1,0,1.108,5.467,5.467,0,0,1-.25,1.286,2.573,2.573,0,0,1,0-.75c0,.214-.322.607-.214.786v.429h0v.572a2.323,2.323,0,0,1,0,.679,6.683,6.683,0,0,0,0-1.215,10.469,10.469,0,0,1,.179-1.036,3.216,3.216,0,0,0,0-1,2.68,2.68,0,0,1,0-.536v.107a3.251,3.251,0,0,1,0-.607V23.012a2.644,2.644,0,0,0,0-.75h0V20.439h0a22.619,22.619,0,0,0-.536-3.109,6.791,6.791,0,0,0-.393-1.394,5.789,5.789,0,0,0-.536-1.179,2.037,2.037,0,0,1,.286.465,11.486,11.486,0,0,1-.286-1.215c0-.286,0-.429-.25-.607s-.322-.286-.322-.429h0a5.452,5.452,0,0,0-.393-.572Zm.357-.572a.786.786,0,0,1,.179.286,6.324,6.324,0,0,0-.5-.572l-.679-.822a9.648,9.648,0,0,1,1,1.179Zm.786,1.143.465.858-.179-.286h0a3.573,3.573,0,0,0-.607-.858,3.984,3.984,0,0,1,.322.357Zm0,0v.179S43,12.9,42.89,12.864a1.644,1.644,0,0,1,.429.25Zm0-.429a2.394,2.394,0,0,0,.214.429,2.437,2.437,0,0,1,.036-.429Zm.429,2.251a2,2,0,0,1,.25.643,3.573,3.573,0,0,0-.357-.607h0v-.393h0a2.644,2.644,0,0,1-.5-.786,4.323,4.323,0,0,0,.357.5,3.073,3.073,0,0,1,.5.643Zm0-.607v.214a.75.75,0,0,0,.214-.25Zm.607-.786s.322.357.322.5h0a2.037,2.037,0,0,1-.286-.465,1.548,1.548,0,0,1,.179-.036Zm0,0Zm.822,1.715a3.037,3.037,0,0,1-.393-.965s.179.286.214.357a4.217,4.217,0,0,1,.393.572Zm.036-.965Zm.357,1.608-.357-.607a2.465,2.465,0,0,1,.357.536Zm-.572-1.608-.179-.286.286.429Zm0-.75h0s.214.214.179.286ZM44.6,17.116h0a.715.715,0,0,0,0-.286Zm-.179-.429a2.18,2.18,0,0,0-.179-.429s.179.429.286.607Zm0,0c0-.25-.536-.715-.536-.965s.214.322.214.357Zm-.286-.75v-.465a1.929,1.929,0,0,1,.036.322Zm0-.393h0S44,15.437,44,15.4Zm.322.715-.25-.429a2.678,2.678,0,0,1,.107.286Zm0-1v-.286s.214.322.286.465Zm-.893-1.143s.322.286.357.465a2.287,2.287,0,0,0-.607-.607Zm.393.214ZM42.89,13.221l-.786-.929s-.357-.322-.357-.465h0a4.038,4.038,0,0,1-.357-.465,6.566,6.566,0,0,1,.5.5,3.573,3.573,0,0,1,.429.607Zm-1.143-1.286a5.682,5.682,0,0,1,.893,1.179,6.9,6.9,0,0,0-.607-.75h0Zm.893,1.322.214.286s.036-.286.036-.322ZM45,19.582v-.429a1.5,1.5,0,0,1,.107.429Zm0,3.18v.286a2.036,2.036,0,0,1,0-.465Zm0-.322a1.465,1.465,0,0,1,0,.572,2.787,2.787,0,0,0,.179-.572Zm0,3.573a2.036,2.036,0,0,0,0,.465V26.8h0a3.573,3.573,0,0,1,.25-.822Zm0-3.573a3.144,3.144,0,0,0,0-.572h0v.715a.5.5,0,0,0,.214-.143Zm0,.322Zm0,4.252a3.931,3.931,0,0,1-.393,1.251,6.662,6.662,0,0,1,.357-1.394c.036.107,0,.179.071.143Zm-.607,1.822a1.394,1.394,0,0,1,.179-.5l-.214.679Zm0-1.036h0a2.751,2.751,0,0,1,0-.536Zm0-.643v0Zm0-.393Zm-.5,1.572Zm.357-6h0a2.573,2.573,0,0,1,0-.893v.607h0Zm-.214.357v-.929a5.325,5.325,0,0,0,0,.643c0,.214,0,.25,0,.429a13.686,13.686,0,0,1,0,1.679,6.859,6.859,0,0,0,0-.858,4.359,4.359,0,0,0,.214-.965ZM43.5,20.368s.322.822,0,.929l-.214-1.036Zm0-.357v-.393a.822.822,0,0,1,.179.393Zm0,.536a8.359,8.359,0,0,0-.322-1.358,4.681,4.681,0,0,1,.322,1,1.394,1.394,0,0,0,0,.536ZM43.1,16.973a2,2,0,0,1-.25-.572,4.217,4.217,0,0,1,.572,1.5,5.885,5.885,0,0,1-.25-.572c-.071-.214.357-.393.286-.536Zm-.214-1.715a.893.893,0,0,0,0-.25,7.862,7.862,0,0,1,.679,1.072Zm0,16.723v0Zm0-16.151a3.9,3.9,0,0,1,.214.393Zm0,16.33Zm0-17.581v-.214l.322.429Zm.465,1.072a1.5,1.5,0,0,1,.214.5s-.322-.429-.286-.607Zm0,.357h0s-.143,0-.071.107Zm0,0a1.93,1.93,0,0,0,.179.393s-.286-.322-.357-.429Zm.607,2.144Zm-1.429-3.859h0v0Zm0,1.108a1.679,1.679,0,0,0,.179.357c-.214-.322-.393-.643-.572-.965a3.574,3.574,0,0,1,.536.572Zm2.644,3.573Zm0,.429a.189.189,0,0,1,.179.143Zm.179,4.9Zm0-4.9.214.143Zm0-3.359a1.072,1.072,0,0,1,0,.286,1.072,1.072,0,0,0,.143-.143Zm.929,2.251Zm0,2.394s-.179-.429,0-.5.179.465.179.643Zm0-2.609v-.357a1.846,1.846,0,0,1,.214.607Zm-.179-.965h0a.75.75,0,0,0,0,.25Zm0,8.362V25.3h0a.214.214,0,0,1,.071.322Zm-.179,1.036v.357a2.215,2.215,0,0,1,0-.465Zm-1.108,3.859c0,.25-.179.393-.25.607l-.286.572a4.074,4.074,0,0,1,.465-1.251,3.358,3.358,0,0,0,0,.572c0-.322.465-.822.393-1.179a1.536,1.536,0,0,1,0,.679h-.322Zm.286-.858v-.465a4.48,4.48,0,0,1-.322.893c-.071.179.357-.143.393-.286Zm.322-.858v-.25a3.288,3.288,0,0,1-.179,1,4.645,4.645,0,0,0,.25-.607ZM43.14,33.482a8.648,8.648,0,0,1,.643-1.286,2.466,2.466,0,0,1-.25.536c0,.286-.322.643-.5.965Zm0,0V33.3a.743.743,0,0,1,0,.286Zm.715-.929c.179-.357.286-.786.465-1.143l-.214.75s-.286.5-.25.536ZM42.89,34.3c-.179.25-.25.393-.179.214Zm0,2.323c.25-.286.429-.607.679-.858l.893-1.072v.429l-.429.5a9.9,9.9,0,0,1-.786,1.036.858.858,0,0,0,.179-.357s-.25.357-.322.429a3.573,3.573,0,0,1-.393.536c-.357.393-.75.75-1.143,1.108A11.265,11.265,0,0,1,42.89,36.627Zm-.25-.679a6.869,6.869,0,0,1-.465.607,6.316,6.316,0,0,1,.429-.607Zm0-.643v-.25a.643.643,0,0,1-.107.25Zm1.572,0-.179.286q.031-.091.071-.179Zm-1.179,1.572-.393.465a5.648,5.648,0,0,1,.429-.536Zm-.893,1.036-.322.357a7.146,7.146,0,0,1,.643-.822l-.322.5s-.071.071-.107.071Zm-.322.25v-.179l-.179.214Zm-.357.393-.322.286s.465-.679.643-.715-.393.5-.429.536Zm.357-2.823v0Zm-2.5,4.181s-.179.179-.214,0l.607-.572c.179,0,.572-.607.786-.607a2.823,2.823,0,0,1-.465.465Zm.679,0h0Zm-.679.322Zm1.143-.965s.393-.429.536-.429h0a2.823,2.823,0,0,1-.786.643,1.644,1.644,0,0,1,.25-.179Zm-1.215.536h0l-.25.214Zm2.787-1.465a12.471,12.471,0,0,1-1.251,1.143,4.508,4.508,0,0,0,1.251-1.108Zm0-.393s.25-.286.322-.393a2.823,2.823,0,0,1-.429.536Zm.25.429v.179l.25-.286Zm.393-.393h0v0Zm.393-.393Zm1.072-1.286v.214s.143-.286.143-.179Zm3.573-7.147a20.44,20.44,0,0,1-2.93,5.932,21.727,21.727,0,0,1-2.751,3.252c.607-.75,1.251-1.429,1.858-2.18a21.44,21.44,0,0,0,1.751-2.537A25.654,25.654,0,0,0,47,30.8a13.08,13.08,0,0,0,.536-1.537s0-.715.25-.75a3.574,3.574,0,0,0-.036.679Zm-1.679,3Zm0,0,.429-.715s0,.715-.286.715Zm.357-.536s0-.607.179-.679-.107.607-.107.679ZM47,29.8s0,.893-.25.858A7.753,7.753,0,0,1,47,29.8h0s.107.036.107,0Zm.893-1.715a2.287,2.287,0,0,1,0,.822c0-.214,0-.786,0-.929l.107.107Zm0-.465h0v-.5a1.465,1.465,0,0,1,.25.5Zm.286-4.288a1.5,1.5,0,0,1,0-.572,3.86,3.86,0,0,0,0,.643Zm0-3.859Zm0-.643a4.038,4.038,0,0,1,0,.643,5.215,5.215,0,0,1,0-.715Zm-.214-1.286a.5.5,0,0,1,0,.214,1.464,1.464,0,0,0,0-.286Zm-.465-.465h0s-.179-.286,0-.322Zm-.286-.893-.25-.607c.214,0,0,.536.322.715Zm-.179-.858a3.573,3.573,0,0,1-.25-1.036,1.913,1.913,0,0,1,.25.429q.194.295.357.607Zm-.429-1.751Zm0,.357.214.393a3.572,3.572,0,0,1-.322-.465Zm0,0s-.357-.465-.357-.643.5.25.536.465Zm-.143-.929Zm0-.357a.446.446,0,0,0-.179-.322C46.106,12.185,46.463,12.578,46.463,12.65Zm-.536-1.143a2.341,2.341,0,0,0,.286.465c.071.036-.429-.572-.572-.822Zm-.679-.786h0c.286.429.536.858.786,1.286a3.718,3.718,0,0,1,.429,1,3.738,3.738,0,0,1-.429-.679c-.036-.107-.322-.607-.5-.965a5,5,0,0,0-.357-.572,2.716,2.716,0,0,0-.465-.607S45.141,10.72,45.248,10.72Zm-.536-.893a2.216,2.216,0,0,0,.322.429s-.322-.357-.393-.465Zm-.679-.5s.393.357.429.572-.465-.465-.429-.572ZM41.71,6.575c-.179-.179-.357-.393-.572-.572l-.572-.572c.179,0,.822.572.929.679a6.181,6.181,0,0,1,.822.858l1,1c-.429-.5-1.108-.822-1.608-1.394ZM42,6.932s.25.179.322.214l.393.393a7.718,7.718,0,0,1,.965,1.179l-.465-.465a2.343,2.343,0,0,1-.322-.536h0s-.607-.572-.893-.786ZM43.033,8.5a5.217,5.217,0,0,0-.572-.679c0,.214.5.357.679.572s.536.679.822,1.036a22.517,22.517,0,0,1,1.394,2,29.229,29.229,0,0,1,1.822,4.431v-.25s.25.607.322.75l.357.893a7.718,7.718,0,0,1,.5,1.537,14.043,14.043,0,0,1,.214,1.715s0,2,0,2v-.536a2.894,2.894,0,0,1,0,.786v1.394a11.435,11.435,0,0,0,0,1.93s0-.322,0-.429a2.144,2.144,0,0,1,0,.822,5.967,5.967,0,0,1-.214,1.358,5.1,5.1,0,0,1-.393,1.394c-.143.465,0,.679-.286.75a4.716,4.716,0,0,0,.179-.822,3.745,3.745,0,0,1,.286-1.036,5.4,5.4,0,0,0,.322-2.144,9.968,9.968,0,0,0-.25,1.429,9.183,9.183,0,0,1-.572,1.93c-.286.643-.536,1.322-.822,1.965a13.994,13.994,0,0,1-.786,1.822V32.91c0-.214-.25.679-.357,1.036,0-.286.322-.607.5-.929a.782.782,0,0,1-.25.679c-.25.214-.25.75-.465.929,0,.393-.607.822-.822,1.179h0a6.718,6.718,0,0,0-.429.643,13.257,13.257,0,0,0-.965,1.036l.25-.429v.25a12.862,12.862,0,0,0,1-1.429h0l.572-.965h0a14.292,14.292,0,0,0,.75-1.787,6.292,6.292,0,0,1,.465-1.465,4.788,4.788,0,0,1,.25-.643,3.572,3.572,0,0,0,0-.429h0a1.858,1.858,0,0,1,.25-.75v.5a7.684,7.684,0,0,0,.357-.965c.214-.607.429-1.251.607-1.93a28.588,28.588,0,0,0,.607-3.966,26.943,26.943,0,0,0,0-4.145,16.866,16.866,0,0,0-.929-4.181l.286.607c-.214-.536-.357-1.072-.572-1.572s-.643-1.429-.965-2.108a4.109,4.109,0,0,0-.429-.893,4.538,4.538,0,0,1-1.215-.465,1.5,1.5,0,0,0-.25-.465s-.643-.679-.572-.822h0A6.646,6.646,0,0,1,42.89,8.5Zm3.573,21.011Zm.679-3.287v-.286a1.215,1.215,0,0,1,0,.357Zm.286-6.9a6.719,6.719,0,0,1,.179,1.179.966.966,0,0,0-.179-.572c-.179-.179,0-.5,0-.75s-.179.107-.143.143Zm-.25-1.215v-.429a3.966,3.966,0,0,1,.465,1.286,8.722,8.722,0,0,0-.607-.858Zm-.357-1.465a1.251,1.251,0,0,0,0-.393s0,.429.214.536Zm-.5-1.108v0Zm0,.357Zm-2.215-4.788c-.286-.572-.607-1.108-.929-1.644a22.155,22.155,0,0,1,1.572,2.466c.25.465.465.893.679,1.358s.393.643.322.786h0s0,.465.214.536.286.643.393.965c0-.357-.393-.786-.572-1.143a10.184,10.184,0,0,0,.607,1.644c.214.607.393,1.251.572,1.894a16.4,16.4,0,0,1,.357,1.822v.5a2.751,2.751,0,0,0,0,.536s0-.322,0-.429,0,.786.214.965-.25-.715-.25-.715v1.108a4.967,4.967,0,0,1,0,1.465v1.679a9.36,9.36,0,0,0,0-1V22.869a15.078,15.078,0,0,1,0,1.751,5.291,5.291,0,0,0,0,.75,1.751,1.751,0,0,0,0,.429s0-.357,0-.429V25.8a5.681,5.681,0,0,1-.214,1.072,8.9,8.9,0,0,1-.643,2.251V27.515l-.214.893a5.57,5.57,0,0,1-.5,1.608,8.112,8.112,0,0,1-.715,2.037,2.966,2.966,0,0,0,.286-.786c-.286,0-.357.929-.465,1.143a5.9,5.9,0,0,1-.5.929h0v.071a3.454,3.454,0,0,0-.25.429l-.322.572a5.825,5.825,0,0,0-.607.786s.286-.429.357-.5a6.719,6.719,0,0,0,.429-.643c0-.25.214-.5.357-.786s.536-.965.75-1.465c0,0,0,.286-.214.357h0a7.367,7.367,0,0,1-.465.75c-.107.107-.536.893-.822,1.322l-.786,1.036a3.573,3.573,0,0,1-.822.929,22.19,22.19,0,0,0,3.395-5.467A17.867,17.867,0,0,0,46.5,27.515l-.036-2.751a3.931,3.931,0,0,1,0,.929V24.406a2.859,2.859,0,0,1,0,.536V23.191h0a2.073,2.073,0,0,0,0-.822v-.715a8.684,8.684,0,0,0,0-.965h0V19.653c0-.322.25.465.214.465a4.574,4.574,0,0,0-.214-1.251s.179.5.25.679a1.679,1.679,0,0,1,0,.607c0,.357,0,.715,0,1.036v3.573a5.789,5.789,0,0,1,0,.786,14.293,14.293,0,0,0,.393-4.109V19.832a2.43,2.43,0,0,1,0-.536v-.465a1.179,1.179,0,0,1,0-.5,3.573,3.573,0,0,0,0-.607,8.3,8.3,0,0,0-.572-1.822c-.143-.607-.572-1.679-.822-2.5s-1.072-1.5-1.429-2.287ZM42.89,34.768a3.573,3.573,0,0,1,.679-1.108l-.322.536a5,5,0,0,1-.357.572Zm3.573-10.934v0Zm0-4.9h0s.25.071.214,0ZM44.39,12.9s.214.25.214.393a1.5,1.5,0,0,0-.214-.286l-.322-.5ZM43.14,11.327s0,.286.25.322-.25-.393-.393-.429Zm.25.5a2.537,2.537,0,0,1,.536.786s.393.929.429.929a6.322,6.322,0,0,0-.429-.679,3.252,3.252,0,0,0-.286-.607,2.966,2.966,0,0,1-.393-.536,1.572,1.572,0,0,0-.286-.393,6.219,6.219,0,0,1,.643.5Zm-.822-1.108s.357.357.322.429l-.214-.429Zm.25.536A11.542,11.542,0,0,1,44.1,13.471l-.429-.572a.223.223,0,0,1-.214-.25h0a3.573,3.573,0,0,1-.357-.607v-.179a1.394,1.394,0,0,0-.286-.357l-.25-.429h0v-.214c.179,0,.322.357.429.465a2.543,2.543,0,0,1,.429.536c0,.071-.536-.393-.536-.536l-.643-.607-.179-.25A6.289,6.289,0,0,1,41.1,9.255a1.929,1.929,0,0,0,.429.322l.393.465Zm-.322-.214Zm-.25-.822-.643-.75c0-.179-.429-.607-.643-.679a3.573,3.573,0,0,1,1.322,1.465ZM40.46,8c.715.607,1.251,1.358,1.93,2L41.1,8.826a2.9,2.9,0,0,1-.322-.357s-.572-.643-.572-.607.214.036.25.071Zm-.822,2.108L40.71,11.22h0l.286.322s-.322-.179-.357-.286a5.574,5.574,0,0,0,.822,1l.536.858s.429.607.393.75-.25-.214-.25-.286a2.573,2.573,0,0,0,.393.679,2.716,2.716,0,0,0-.607-.822,2.965,2.965,0,0,1,.322.572,4.217,4.217,0,0,1,.393.679c-.179-.322-.393-.607-.572-.893s-.214-.572-.322-.607h0s-.357-.429-.393-.5a5,5,0,0,0-.572-1.036c-.643-.75-1.286-1.537-1.965-2.287a8.933,8.933,0,0,1,.822.679Zm2.787,4.181ZM39.316,9.326c-.179,0-.572-.536-.786-.572h0a9.148,9.148,0,0,1,.929.715ZM39.138,8.4l-.858-.536s-.75-.357-.786-.5h0l-.286-.214a6.289,6.289,0,0,0,.822.5Zm-.893-.965a1.934,1.934,0,0,1,.5.393c.071.143-.536-.286-.607-.357l-.715-.322a5.289,5.289,0,0,0-.893-.5c.214-.071,1.644.5,1.608.786ZM37.1,6.575A3.124,3.124,0,0,0,37.815,7,.393.393,0,0,1,37.6,7l.607.429c-.429-.322-.893-.536-1.286-.858Zm-.572-.429.393.214Zm0,.572a.893.893,0,0,0-.322,0s.25.214.322.214a1.116,1.116,0,0,1-.607-.214c-.214-.214.357,0,.465.25l.536.322a3.573,3.573,0,0,0-.643-.322l-.536-.643-1.465-1a7.059,7.059,0,0,1,1.358.715h0l.357.179h0a7.147,7.147,0,0,0,1.036.572Zm-2,1.358h0Zm-.893-3.287h0Zm0,.286Zm0,0,.5.214Zm1.465.572a2.466,2.466,0,0,0,.536.25,1.072,1.072,0,0,1-.286-.143Zm-.465-.429h0s.322,0,.393.214h0l.322.179s.429,0,.465.214a3.573,3.573,0,0,0-.858-.357,3.859,3.859,0,0,1-1-.536s.75.286.929.393Zm-.322-.107Zm0,0a2.694,2.694,0,0,1-.465-.214l.536.214Zm0-.214h-.393l-.679-.322c.25.071.893.143,1.072.357Zm-1,1h0Zm0-1.108Zm0-.357h.429c-.214,0-.429-.179-.643-.214Zm-.536-.143Zm-.607.786Zm0-.465ZM31.634,4.4Zm.214,1.036h-.322c.143-.071.214-.036.179,0Zm-.25.929a11.041,11.041,0,0,1,1.251.786l.75.429s.536.214.607.357-.75,0-.893-.322.429,0,.572.25l.429.214-.572-.214a9.269,9.269,0,0,1,1.072.607h-.286s.465.25.536.286a3.966,3.966,0,0,1-1.108-.536h.357A1.938,1.938,0,0,0,33.921,8c-.036,0-.643-.572-1-.858A18.3,18.3,0,0,0,30.7,6.039Zm-.572-1.894ZM30.6,5.753Zm0-1.036h0Zm0-.357h-.322c.25-.071.286-.036.322,0Zm-.572-.786Zm0-.286h.5a1.215,1.215,0,0,1-.607-.036ZM30.49,5.9H30.7a2.108,2.108,0,0,0,.5.214L29.061,5.4a2.023,2.023,0,0,1,1.179.25c.393.25-.25,0-.322,0a2.751,2.751,0,0,1,.465.214Zm-1.143-.357ZM29.811,4.5a1.894,1.894,0,0,1,.429,0Zm0,1Zm-.429-1.143h0ZM29.2,5.431h0a4.467,4.467,0,0,1-.679,0ZM28.6,4.145Zm0,1.143Zm0,.357Zm-.25-.465Zm-.715,0Zm.25.465a1.215,1.215,0,0,1-.357,0A1.215,1.215,0,0,0,27.56,5.5Zm-.5,0ZM26.667,4Zm-1.644-.429h.572a1.715,1.715,0,0,1-.572,0Zm-1.358,0h0ZM22.879,5.11h0ZM22.7,3.859h-.429a.893.893,0,0,1,.429.036Zm-1.465,0a7.147,7.147,0,0,1,1.251,0,6.539,6.539,0,0,1-1.429.179Zm.715,0Zm-.25,0L21.45,4Zm-1.644-.286h0Zm0,.357h.286a2.644,2.644,0,0,0-.5,0Zm-.393,0h0l-.036.143Zm-1.787.679h.214l-.214.036Zm.393.322a16.044,16.044,0,0,1,2.894-.607,14.686,14.686,0,0,1-2.144.607h.25l-1.394.179a4.7,4.7,0,0,0-1.537.429c.572-.25,1.251-.393,1.822-.607Zm2.5,0h0Zm-.465,0Zm-.643,0h0s.107.286-.107.357Zm-.607,0h0Zm-.429,0a1.179,1.179,0,0,1-.465,0ZM17.2,5.253H16.8s.179.572.286.607Zm-.536,0Zm0,.393h0Zm-.25-.929a.32.32,0,0,0,.286-.179h.179a6.789,6.789,0,0,1-.715.643Zm.786-.75a2.966,2.966,0,0,1-.465.25s.143.322.214.214Zm-.322,0h0l-.322.179Zm-.214,0Zm-.822.322A3.573,3.573,0,0,1,16.483,4l-.393.25h-.429a4.378,4.378,0,0,0-.071.679Zm0,1.93a24.442,24.442,0,0,1,3.573-1.251,15.361,15.361,0,0,0,1.679-.322h1a6.325,6.325,0,0,0,.858,0s-.679,0-.679.214h.357a.643.643,0,0,1-.393,0c.572,0,1.179-.322,1.787-.322h.286a2.68,2.68,0,0,0,.536,0h.143a1.679,1.679,0,0,1,.607,0,3.859,3.859,0,0,1,.643,0h-.5a1.715,1.715,0,0,1,.429,0,3.573,3.573,0,0,1,.893,0H26.6a10.113,10.113,0,0,0,1.5.214H26.2a14.614,14.614,0,0,1,2.144.465H26.631a2.68,2.68,0,0,1-.536,0l-1.072.607h.393a5.4,5.4,0,0,0-1.143,0H23.093a.822.822,0,0,0,.393,0,2.072,2.072,0,0,1-.5,0H20.663l1.286-.25a6.575,6.575,0,0,0,1.429-.214h0a3.573,3.573,0,0,0-1.036,0H21.45a4.788,4.788,0,0,0-1.251,0,10.72,10.72,0,0,1-1.143.357h.25l-.929.429.607-.179a11.506,11.506,0,0,1-1.572.5l-1.036.679s-.357.25-.465.214,0-.179,0,0-.214,0-.25,0a5.968,5.968,0,0,1,1-.643s-.536.286-.679.357a7.647,7.647,0,0,1-.679.465h-.286a1.715,1.715,0,0,0-.572.286,2.68,2.68,0,0,1-.607.357l.607-.536L14.3,7.79s-.607.465-.715.429h0c-.214,0-.536.357-.75.465a7.968,7.968,0,0,0-1.072.715,15.615,15.615,0,0,1-1.608,1.322,6.074,6.074,0,0,1,.858-.786,7.147,7.147,0,0,1,1.143-.893,16.938,16.938,0,0,1,3.466-2.18ZM14.3,7.969Zm.965-2.894Zm-1,.572a4.4,4.4,0,0,1,.893-.5,3.573,3.573,0,0,1-1.072.5Zm0,1.179a2.966,2.966,0,0,1,.572-.322h.429a2.18,2.18,0,0,1-.965.179l-.322.214-.286.25h0l-1,.607h0a9,9,0,0,0-1.394.965,7.5,7.5,0,0,0-1.108.893h0a11.256,11.256,0,0,1,1.036-.786,13.221,13.221,0,0,1,1.93-1.679h0a1.027,1.027,0,0,0,.786-.322Zm-1.858,1Zm1.537-1.894Zm-.572,0Zm.357,0h0l-.643.393A2.144,2.144,0,0,1,13.41,6ZM12.8,7.147Zm-.179-.679-.25.179Zm-.465.214h0l-.357.357c-.071.071.429-.429.572-.429h-.214l-.607.536Zm-.322,1.072-.322.214ZM10.98,7.54l.322-.393-.572.715Zm-1.5,1.215a4.967,4.967,0,0,1,.75-.75h0a2.716,2.716,0,0,0,.5-.25,1.751,1.751,0,0,1-.5.536c-.25.25-.572.465-.858.715Zm1.251-.786ZM8.3,10.506Zm-.286-.25.179-.214a3.574,3.574,0,0,1-.357.5,1.251,1.251,0,0,0,0-.286Zm-.25,1.215a18.188,18.188,0,0,1,3.573-3.216l-.929.893a3.53,3.53,0,0,0,.322-.536l-.357.322A10.041,10.041,0,0,0,9.3,9.97v-.25c-.286,0-.5.679-.679.858l.643-.572s.572-.643.679-.643h0l-.929.822-.715.858c-.357.429-.786.786-1.143,1.215s-.643.929-1.036,1.322.179-.357.25-.5.322-.465.393-.607a10.313,10.313,0,0,0,.822-1Zm1.608-1.429h0s-.179.071-.179,0ZM7.692,12.828a.357.357,0,0,0,0,.179,3.145,3.145,0,0,1,.429-.536s-.25.465-.214.286Zm0-.214.357-.5Zm-.607,1a1.93,1.93,0,0,1-.25.465,2.966,2.966,0,0,1,.071-.465Zm-.715.679h0s-.25.572-.322.572a1.608,1.608,0,0,1,.322-.572Zm-.179-.572.179-.286a.45.45,0,0,1-.179.357c-.179.107,0,0,0-.036Zm.322.572Zm.179-2.144.25-.25a1.394,1.394,0,0,0-.286.357l.036-.214Zm0-.286Zm-.429,1a2.537,2.537,0,0,1,.357-.5,7.189,7.189,0,0,1-.393.607Zm-.179.75h0s-.143-.071-.143-.107Zm.214,0,1.215-1.572a9.04,9.04,0,0,0-.465.786,3.573,3.573,0,0,0-.322.465l.25-.5s-.357.607-.393.679l-.465.858a9.9,9.9,0,0,1-.786,1.322,1.572,1.572,0,0,0,.25-.679s-.286.643-.357.75,0,.465-.25.536a2.43,2.43,0,0,0,.25-.715S4.619,16.9,4.655,16.9s.465-1.358.5-1.465a9.383,9.383,0,0,0-.465.858,1.751,1.751,0,0,0,0-.393,2.859,2.859,0,0,1,.286-.572c.25-.465.536-.893.822-1.322q-.112.139-.214.286a6.248,6.248,0,0,1,.572-.965Zm-.572,1.394Zm-.322.858v-.25l-.179.357Zm0,0a1.108,1.108,0,0,1,.179-.357,1.108,1.108,0,0,1-.25.25Zm-.643,1.322-.393.679A6.36,6.36,0,0,1,4.8,16.83Zm0,0a1.965,1.965,0,0,1-.214.679c.071-.214.107-.429.179-.607Zm-.679,1.251v.036a2.966,2.966,0,0,1,0,.536,4.074,4.074,0,0,1,.143-1.143,2.823,2.823,0,0,0-.179.643Zm0-.25a.322.322,0,0,1,.107.071Zm-.143-.858a6.754,6.754,0,0,1,.214-.643v.679h0ZM4.19,16.973Zm0-1.072c-.429,1.143-1,2.18-1.394,3.359a11.256,11.256,0,0,1,1.644-3.895,3.359,3.359,0,0,0-.214.536Zm-.429,2.215a1.286,1.286,0,0,1,.179-.25,1.751,1.751,0,0,0-.143.25Zm0-.393-.179.143a4.967,4.967,0,0,1,.214-.679,4.431,4.431,0,0,1-.036.679Zm-.429,1.108h0a3,3,0,0,1,.25-.965s-.214.858-.25.965Zm0,.357q.008.161,0,.322a.858.858,0,0,1,.036-.322Zm-.715.322.214-.715a1.805,1.805,0,0,1-.25,1.108c-.25.357.071-.286.071-.393ZM4.3,16.723Zm0,0v-.214a3.573,3.573,0,0,1-.179.572,1.286,1.286,0,0,1,.25-.357Zm.5,1.143h0v0Zm.929-4.9h0v0Zm-.357.5a2.966,2.966,0,0,1,.286-.429c-.179.179-.179.465-.357.643Zm.214,0,.214-.25c.214-.25-.286.536-.393.715h0a15.537,15.537,0,0,1-.822,1.394c-.107.071,0-.357,0-.429l.465-.607h0ZM2.261,20.261a5.465,5.465,0,0,1,.25-1.036h0a15.151,15.151,0,0,1,1.072-2.716l.643-1.179c0-.25.25-.465.357-.715a2.323,2.323,0,0,0,.357-.536A4.074,4.074,0,0,1,4.4,15.115c-.322.607-.607,1.179-.858,1.787a25.621,25.621,0,0,0-1.322,3.573.607.607,0,0,0,.036-.214Zm.25,0Zm0,0a4.609,4.609,0,0,1,0,.679,1.317,1.317,0,0,1-.036-.822Zm-1.179,6.5Zm0-.322h0a1.679,1.679,0,0,0,0,.429,1.108,1.108,0,0,1,.143-.429Zm0,1.394v-.25c0-.25.179.179.214.25Zm0-2.073a1.358,1.358,0,0,1,0-.536,2.68,2.68,0,0,1,.214.536Zm0-2.215a9.192,9.192,0,0,1-.214,2.394,9.612,9.612,0,0,1,.214-2.5,26.549,26.549,0,0,1,.822-2.93,5.181,5.181,0,0,1-.25,1.251Zm.607-2.358a.786.786,0,0,0,.214.25.393.393,0,0,1,.036-.25Zm0,.965v-.322a1.894,1.894,0,0,1,0,.465Zm0,2.108v0ZM1.8,26.979V25.835a2.716,2.716,0,0,0,.071-.822s0,.429,0,.572a1.965,1.965,0,0,1,.143-.572V23.834a14.293,14.293,0,0,0,.214-1.787V21.44a7.9,7.9,0,0,1,.179-.893l.643-1.858a10.184,10.184,0,0,1-.465,1.787,5.717,5.717,0,0,0-.322,1.894,8.29,8.29,0,0,0,.25-1.358,6.075,6.075,0,0,1,.465-1.429,12.714,12.714,0,0,1-.5,2.18l.036.858a6.432,6.432,0,0,0,0,.786,5.038,5.038,0,0,0,.25-1.108,6.06,6.06,0,0,1,.357-1.322,25.906,25.906,0,0,1,.929-2.644c-.179.465-.25,1.108-.429,1.608v-.286a2.751,2.751,0,0,0-.214.822h0l-.214.572v1.108q-.408,1.412-.679,2.859H2.475a1.358,1.358,0,0,1,0,.536h0a3.359,3.359,0,0,0,0,1.036v-.572a15.794,15.794,0,0,1,0,2.251c0-.214,0,0,0,0a1.787,1.787,0,0,0,0,.322v1.179a18.3,18.3,0,0,0,.357,1.93l-.143-.572a25.906,25.906,0,0,0,1.429,4.645.59.59,0,0,0,.179.536c.179.179.536.822.465.929h0c.322.536.572,1.108.893,1.608,0-.214-.357-.393-.5-.607L4.583,37.2c-.393-.75-.75-1.465-1-2.037a18.26,18.26,0,0,1-1.143-4.145s0,.286,0,.286a5.789,5.789,0,0,0-.357-1.215,6.357,6.357,0,0,0-.357-1.358A9.612,9.612,0,0,1,1.8,26.979Zm.822,1.179v.214a3.931,3.931,0,0,1,0-.643A1.787,1.787,0,0,1,2.618,28.158Zm0-.75Zm0,1.858h0v0Zm0-3.073a7.54,7.54,0,0,1,0-.893A4.252,4.252,0,0,0,2.618,26.192Zm-.143,2.394Zm.679,2.894Zm2.537,7.826a13.9,13.9,0,0,1-1.215-1.858s.822,1,.715,1.072h0ZM4.333,36.948s-.322-.393-.286-.572.322.643.286.643ZM1.975,29.8v0Zm0,.822V31.2c0,.179,0-.5-.214-.715Zm0,.679A4.931,4.931,0,0,1,2.4,32.517s.036-.357,0-.357a5.074,5.074,0,0,1-.25-.929Zm.357.858a3.358,3.358,0,0,1,.214.536A3.353,3.353,0,0,0,2.332,32.16Zm0,.679h0s.286.536.25.643ZM2.547,33.446Zm0,.715a2.323,2.323,0,0,1-.179-.715,6.381,6.381,0,0,1,.322.679,4.538,4.538,0,0,0,.214.643,2.359,2.359,0,0,0,0,.536,2.859,2.859,0,0,0,.679.429s0,.286.179.322A2.037,2.037,0,0,1,3.3,35.3a5.753,5.753,0,0,1-.465-1.179Zm.965,2.215a1.679,1.679,0,0,0,.071-.643,1.644,1.644,0,0,1,.214.607Zm1.036,3.109a15.687,15.687,0,0,1-1.715-3.573c.286.607.465,1.251.75,1.822s.357.643.5.965a5.324,5.324,0,0,1,.75.607Zm0-.465a3.573,3.573,0,0,1-.572-.965l.5.75v.357Zm1.394,1.572C5.262,39.771,4.8,38.842,4.19,38.02c.357.5.786.965,1.143,1.465l.286.465s.607.75.572.858a2.378,2.378,0,0,0,.107-.25Zm1.822,1.143a12.9,12.9,0,0,1-.893-1.072l-.643-.822a3.931,3.931,0,0,0-.5-.75h0a3.955,3.955,0,0,1-.393-.572l.25.214s0-.286-.179-.322L4.941,37.7a8.9,8.9,0,0,1-.786-1.537c-.25-.607-.5-1.215-.715-1.822s-.071-1.143.143-1.251h0v-.5a7.754,7.754,0,0,0-.25-.858,7.683,7.683,0,0,0,.25,1.286,6.861,6.861,0,0,0-.322-1.143,12.078,12.078,0,0,1-.322-1.465,17.08,17.08,0,0,1-.286-2.68h0v-.071a2.716,2.716,0,0,0,0-.75,8.183,8.183,0,0,1,0-1.322h0a7.361,7.361,0,0,1,.25-2.323v.214a4.654,4.654,0,0,0,.679-2.287c0-.858.25-.893.393-1.322s.179-.929.357-1,0,0,0,.214a3.9,3.9,0,0,0,.322-.822,2.537,2.537,0,0,1,.322-.393c.179-.286.286-.643.429-.929s.25-.643.322-.643v.465s.179-.393.214-.5l.25-.5s.286-.679.5-.786,0,.214,0,.214a5.667,5.667,0,0,1,.393-.572c.107-.107.322-.5.5-.715a12.542,12.542,0,0,1,1.036-1.286,2.537,2.537,0,0,1-.357.5h0a6.039,6.039,0,0,0-.786,1.036l-.643.965h0a3.573,3.573,0,0,1-.357.607,13.15,13.15,0,0,0-.822,1.572.715.715,0,0,1,0-.25,2.573,2.573,0,0,1,.286-.786s-.286.679-.357.858q-.214.386-.465.75s-.179.75-.322.786v-.179a6.539,6.539,0,0,1-.286.893h0a5.968,5.968,0,0,1-.286,1.072v-.286c0-.071-.179.5,0,.572h0a5.539,5.539,0,0,1,0,.75,1.679,1.679,0,0,0,0,.607V21.69a7.54,7.54,0,0,1-.643.75h0s-.357,2.073-.393,2.251a4.788,4.788,0,0,0,0,1h0v1.787a2.037,2.037,0,0,0,0,.465s.143.643.071.643h0v.536a.786.786,0,0,1,0,.286h0a2.144,2.144,0,0,0,.322.75,1.572,1.572,0,0,1,0-.572c0,.465,0,.965,0,1.429a7.147,7.147,0,0,1,.25,1.143V31.8s.214.643,0,.679h0a4.431,4.431,0,0,0,.357,1.108s-.322-.572-.357-.679a3.573,3.573,0,0,0,.322.858,1.787,1.787,0,0,0,0,.465A3.129,3.129,0,0,0,3.9,33.8a2.108,2.108,0,0,1,0,.679c0,.214.179.429.25.679s.25.822.429,1.251a6.575,6.575,0,0,0,.679,1.429s.393.75.536.786a2.751,2.751,0,0,1-.25-.572,1.822,1.822,0,0,1-.322-.572s0,0,0-.25a1.393,1.393,0,0,1,.214.393c0,.286.393.536.5.822h0a.467.467,0,0,0,.214.393l.429.643c.357.572.75,1.143,1.143,1.679a24.442,24.442,0,0,0,2.537,2.93A25.013,25.013,0,0,1,8.121,41.7ZM5.477,20.868Zm0-3.573Zm0,4.4h0a3.18,3.18,0,0,0,0,.536,1.215,1.215,0,0,1,0-.607ZM5.227,31.767Zm0-8.755h0v.465a3.931,3.931,0,0,1,0,.643h0a2.073,2.073,0,0,1,0-.822h0a4.5,4.5,0,0,1,0-1,2.394,2.394,0,0,0,0,.715s.036-.036.036,0Zm-.214,1.644v-.25a4.86,4.86,0,0,1,0,.715c0,.357,0,.679,0,1.036a10.72,10.72,0,0,1,0-1.5Zm0,.214v-.929a8.04,8.04,0,0,0-.143,1.072Zm0-1.537v-.429a2.037,2.037,0,0,1,0,.465Zm0,.822a3.574,3.574,0,0,1,0,.393s.036-.286.036-.393Zm0,6.218Zm0,1.787a2.18,2.18,0,0,0,0-.429,1.108,1.108,0,0,1,0,.429Zm0-1.286h0a2.787,2.787,0,0,1,.179.5Zm0,.607v.179c.143-.393.107-.429.143-.357Zm0-8.9V22.8c0,.179.143-.393.143-.393Zm0-.393h0v0Zm0-1.072q-.322,1.179-.536,2.358a14.007,14.007,0,0,1,.5-2.037c0-.25,0-1.072.393-1.108a2.716,2.716,0,0,1-.107.607ZM4.476,27.55v.536a1.429,1.429,0,0,1,.25-.715Zm0,.679s.25-.214.286-.179Zm0-1.965v.822h0a13.329,13.329,0,0,1,0-2.394A7.718,7.718,0,0,1,4.8,26.085Zm-.5,1.286v1.072c.465-.429.214-1,.322-1.251ZM4.3,25.013Zm.179,2.68v-.214a1,1,0,0,0,0-.322,2.859,2.859,0,0,1,0,.429Zm0-.465a.214.214,0,0,1-.071-.107Zm0,.5v.357a3.573,3.573,0,0,1,0-.5s-.071,0-.036.036Zm0-4.074v.858a1.215,1.215,0,0,0,0-.357v-.572a1.787,1.787,0,0,1,0-.429,1.465,1.465,0,0,0,0,.393Zm0,2.144v.25a2.108,2.108,0,0,1,0-.465.464.464,0,0,0,0,.107Zm0,.25a2.787,2.787,0,0,1,0,.75v.036h0v-.429h0a1.465,1.465,0,0,0,0-.393,2.358,2.358,0,0,1,0-.5,3.931,3.931,0,0,0-.071.429Zm0,2.323a2.5,2.5,0,0,0,0,.5,3.573,3.573,0,0,1,0-.643Zm0,.822h0a.858.858,0,0,0,0-.286Zm0-4.681v.214a7.147,7.147,0,0,1,0-2.43,4.61,4.61,0,0,1,0,1.394,3.144,3.144,0,0,0,.071.715ZM3.9,26.05h0a2.43,2.43,0,0,1,0-.5Zm0-.786v.5a4.4,4.4,0,0,1,.071-.75Zm0,1.215v-.286a.893.893,0,0,1,.071.179Zm0,0a1.465,1.465,0,0,1,0,.393,5.86,5.86,0,0,1,0-.786Zm0,1.072Zm0,.286Zm0-.679a.393.393,0,0,1,.036-.071Zm0,1.644a1.787,1.787,0,0,1,0-.429Zm0,3.931a1.572,1.572,0,0,1,0,.536V32.91s0-.322.071-.25Zm0-5.539h0v0Zm-.322-4.074v-.25S3.762,23.262,3.583,23.119Zm0,7.361a.893.893,0,0,0,0-.25A.893.893,0,0,1,3.583,30.48Zm0-7.147v0Zm0,.607a2.68,2.68,0,0,1,0,.536,2.68,2.68,0,0,0,0-.429Zm0,1.072h0a1.465,1.465,0,0,1,0-.393Zm0,.929V25.3a5.717,5.717,0,0,1,0,1.108,2.466,2.466,0,0,1-.25-.607Zm0,1.822h0a2.68,2.68,0,0,1,0-.75,3.931,3.931,0,0,1,0,.643h0v.107Zm0-.786v-.572a4.538,4.538,0,0,0,0,.715.786.786,0,0,1-.25-.286Zm0-1.965Zm.893,6.539a.732.732,0,0,0,.179.465c.179.179,0-.572-.179-.715A3.573,3.573,0,0,1,4.8,32.517l.214.786s.322.679.25.822a4.61,4.61,0,0,0-.357-.786,4.753,4.753,0,0,1-.5-1.179L4.19,31.052a1.958,1.958,0,0,1,.143.429Zm0-.858v.393a1.179,1.179,0,0,1,0-.465Zm.536,2.716-.179-.393s-.107.322-.071.322Zm-.214.429a2.323,2.323,0,0,1,0-.465s-.214.429-.25.393Zm-.214-.858Zm.607,3.037ZM9.872,43.7s-.429-.465-.5-.465.286.179.357.25l.572.465a.377.377,0,0,1-.357-.286c-.071-.286.643.357.643.572s-.858-.465-.965-.607Zm1.465,1.286Zm-.607-.25-.607-.465,1.143.786Zm0-.357a.607.607,0,0,1,0-.214.348.348,0,0,1,.322.286Zm.25.214a.222.222,0,0,1-.214-.179c-.036-.179.286.107.322.179Zm.536.715h0Zm0,0Zm0,0h0s-.5-.357-.643-.5a9.291,9.291,0,0,1,1.143.929,1.787,1.787,0,0,0-.286-.465Zm.429.5h0a2.68,2.68,0,0,1,.429.25Zm.393,0Zm.357.322a1.894,1.894,0,0,1,.357.214Zm1.108.858-.393-.214.536.25Zm0-.25.286.179Zm.5.607a3,3,0,0,0,.5.214,1.5,1.5,0,0,1-.5-.179Zm1.036.607h0Zm-.214,0-.465-.179a1.787,1.787,0,0,0,.5.036Zm.858-.214Zm-.357-.214,1.036.393-1.537-.572a1.192,1.192,0,0,1-.786-.393c-.143-.214.572.25.643.286s1.072.429,1.644.643l-1.5-.572Zm-.536-.286h0Zm1.251.5Zm-.536-.322h0Zm-.75-.357.607.25Zm0,0,.536.214-1.108-.822Zm-.5,0,.5.25h0s.357.179.465.214l.75.322a9.5,9.5,0,0,1-2.287-1.072,3.322,3.322,0,0,0,.572-.107ZM14.3,46.2Zm-.607-.214h0s.5.286.536.322-2.609-1.572-2.466-1.751a7.468,7.468,0,0,1,1.215.75l-.5-.214c.25.179.572.715,1.072.893Zm-.893-.965-.429-.25-.322-.25a5.462,5.462,0,0,1,.607.5Zm0,0ZM8.014,40.736l.679.822.786.786-.286-.25.536.465a.256.256,0,0,1,.25.214h0l.679.643,1.572,1.251-.607-.393H11.23c-.107,0,.393.286.465.357s.822.536,1.251.786l-.786-.465H11.8s.322.214.393.25a8.076,8.076,0,0,0,.929.572c-.536-.286-1.036-.607-1.537-.929a7.54,7.54,0,0,1-.965-.893,12.828,12.828,0,0,1-1.358-1.429S8.085,41.093,8.05,41.093Zm-.322-.465s-.214-.25-.286-.322Zm0,0a4.074,4.074,0,0,1-.536-.75ZM6.549,38.52l.715,1.143c-.214-.322-.465-.572-.643-.893l-.357-.607a1.393,1.393,0,0,0,.214.179Zm-.322-.536V37.77a1.286,1.286,0,0,1,.25.357Zm-1.036-2.5c.322.786.679,1.608,1.036,2.394a7.146,7.146,0,0,0-.5-.893,5.86,5.86,0,0,1-.5-1.072v-.25c0-.25-.179-.322-.25-.5V34.84a3.573,3.573,0,0,0,.143.465Zm0-.429v.25a4.681,4.681,0,0,1-.536-1.322,2.723,2.723,0,0,0,.322.893Zm.214-.357a5.646,5.646,0,0,1-.5-1.286A8.469,8.469,0,0,0,5.513,34.7a.8.8,0,0,0,.179.5,2.287,2.287,0,0,0-.5-.679Zm.322.679v0Zm-.822-2.859a6.718,6.718,0,0,0,.322,1.072l.393,1.429a22.262,22.262,0,0,1-1.465-7.147c0,.214.858,3.573.786,3.573s0-.536-.286-.643,0,.786.179,1a3.722,3.722,0,0,1,.429,1.179,1.858,1.858,0,0,0-.214-.465,4.717,4.717,0,0,1,.536,1.394c0,.357.357.679.429,1.036,0-.179-.25-.393-.322-.572a2.215,2.215,0,0,1-.25-.679,8.54,8.54,0,0,0-.536-1.179Zm.786,2.108h0a1.378,1.378,0,0,0,.429.715A2.18,2.18,0,0,1,5.691,34.626Zm.465.929.179.322a6.248,6.248,0,0,0-.393-.643Zm-.214,0Zm.25.357-.25-.465a1.608,1.608,0,0,1,.393.607Zm.429-.5a1.536,1.536,0,0,0,0-.179l.25.5Zm.214,1.143v-.214l.322.572Zm.322-.214.322.465a1.429,1.429,0,0,0,.25.465A3.109,3.109,0,0,1,7.156,36.341ZM7.156,36.341Zm.5,1Zm.393.965c-.25-.393-.429-.786-.643-1.179a6.182,6.182,0,0,0,.607.75h0s.465.465.429.607h0s.643.715.572.75A7.484,7.484,0,0,1,7.907,38.2Zm1.036,1.322a4,4,0,0,0-.643-.715l.465.643A2.9,2.9,0,0,1,8.3,38.7c.214.393.643.607.858,1Zm0,1.072v-.214l.643.715Zm.465-.5Zm0,1.286Zm.929,0a2.466,2.466,0,0,1-.393-.465,2.062,2.062,0,0,0-.286-.357,8.448,8.448,0,0,0,.822.965Zm0-.429a19.9,19.9,0,0,1-3.323-5.324A26.085,26.085,0,0,1,5.834,32.16s0,.322.179.322a13.4,13.4,0,0,0-.357-1.394,1.358,1.358,0,0,0,0-.536,5.539,5.539,0,0,1,.179.822,7.9,7.9,0,0,0,0,.893l.536,1.787a20.154,20.154,0,0,0,1.394,3.109,18.653,18.653,0,0,0,1.858,2.859A11.042,11.042,0,0,0,10.8,41.415s.607.5.572.643l-.357-.25a3.931,3.931,0,0,1-.607-.822Zm.536,1.036Zm0,0Zm.607,0-.429-.429s.679.357.715.572Zm.429,1.394h0Zm.429-.5a4.145,4.145,0,0,1-.75-.572c.214,0,.5.393.715.5a2.287,2.287,0,0,0-.465-.357h.25c.214.214.5.357.715.572a.965.965,0,0,1,.286.25,3.931,3.931,0,0,0-.75-.179Zm.429,1.286h0l.5.322Zm0-.322h0l.393.25Zm.5-.715a1.787,1.787,0,0,1-.429-.286l.786.5a.751.751,0,0,1-.25,0Zm.25,1.251.286.179Zm.286.572Zm0-3.859-.286-.214.357.25Zm.214.858Zm.465,2.073-.322.036.607.322Zm.357,1.251Zm0,.357h0Zm0-2.5.536.322.357.214h.286l1.036.572h0a7.933,7.933,0,0,0,1.465.679l.607.286a3.144,3.144,0,0,1,.822.25h0c-.429,0-.822-.357-1.251-.536a22.191,22.191,0,0,1-2.108-.929h0s-.357-.25-.465-.322l-.536-.322a1.286,1.286,0,0,1-.429-.286.258.258,0,0,0-.286-.25Zm.357,1.394a4.609,4.609,0,0,1,.572.322,2.108,2.108,0,0,1-.679-.393Zm0,0Zm.214.429a1.93,1.93,0,0,1,.465.25,2.415,2.415,0,0,0-.536-.286ZM18.841,47.7a3.788,3.788,0,0,1-.679-.214h0a23.083,23.083,0,0,1-2.966-1.5,30.944,30.944,0,0,0,3.823,1.787Zm1.715-.393a7.718,7.718,0,0,1-1.822-.572l2.037.607Zm.715.322h0Zm.429-.214a3.145,3.145,0,0,1,.572,0s-.25.25-.393.143Zm1.036.572a2.465,2.465,0,0,0-.715,0,1.965,1.965,0,0,1,.786,0Zm.25,0a4.073,4.073,0,0,1,1.322,0H22.986Zm.893-.286Zm.607.5Zm-.572-1.143h.75a2.787,2.787,0,0,0-.786,0,5.181,5.181,0,0,1,1.072,0h-.536a3.573,3.573,0,0,0,.858,0,4.859,4.859,0,0,1,.965,0,10.97,10.97,0,0,0,1.894.179,14.3,14.3,0,0,1-2.144,0h.572a13.007,13.007,0,0,1-2.466.107Zm2.466.822Zm-.465,0Zm-.536,0h0Zm.214-.429Zm-.572,1.108h0a2.644,2.644,0,0,1,.75,0A3.9,3.9,0,0,0,25.023,48.562Zm.607,0Zm.357.322Zm.679,0h.679a2.215,2.215,0,0,1-.75.179Zm.822.465Zm.929-.822H25.7a1.93,1.93,0,0,1,.786,0H27.56a2.394,2.394,0,0,0,.715,0,2.358,2.358,0,0,0,.75,0,5.246,5.246,0,0,1-.679.179Zm.465,0h0Zm1.465.322h0Zm.465-.643a5.217,5.217,0,0,0,.965-.286h0s1.036-.393,1.215-.286l-.929.286Zm3.931-.893h.5c0,.322-3.109,1-3.573,1.108l1.465-.5,1.537-.465h0s-.036.036,0,.036Zm-1.429.893Zm-.679.179.536-.179Zm-.214,0L31.6,48.6l1.072-.322Zm0,.179H31.312a5.681,5.681,0,0,1,1.179-.322h0a10.9,10.9,0,0,0,1.429-.465,7.326,7.326,0,0,1-1.429.965Zm1.286-.357h0Zm1.5-.429Zm-.429.179-1.108.429a1.68,1.68,0,0,0-.5,0,2.5,2.5,0,0,1,.715-.286l1.108-.465-.965.429,1.5-.643Zm5.074-2.323-.429.286.214-.179s.322,0,.286.071Zm1.286-.965a.447.447,0,0,0-.393.25c-.107.25.429-.393.465-.357Zm0-.179a17.4,17.4,0,0,1-6.5,3.109,53.993,53.993,0,0,0,6.611-3.252Zm-2.073,0Zm3.823-2.5v0Zm.965-.715h0s.143-.036.107,0Zm0,0a2.644,2.644,0,0,1-.465.429c.179-.179.322-.393.536-.572Zm1.5-1.858c-.179.214-2.43,2.68-2.609,2.537v-.286s-.393.429-.429.465l-.536.536a5.146,5.146,0,0,1-1,.965l-.822.5a2.394,2.394,0,0,1-.822.465l.393-.357h0l.536-.357.322-.286a4.506,4.506,0,0,1-.465.322l-.429.286a11.791,11.791,0,0,1-1.394.929c-1.108.536-2.287.929-3.323,1.465a1.929,1.929,0,0,1,.607-.143,8.326,8.326,0,0,0-1.179.5l-1.429.357a19.3,19.3,0,0,0,2.394-.858,6.324,6.324,0,0,0-1.322.429,7.147,7.147,0,0,1-1.465.322l2.144-.643,1-.322.679-.322s-.858.25-1,.286l-1.322.357a18.262,18.262,0,0,1,1.715-.786,20.62,20.62,0,0,0,2.073-.786h-.214a1.465,1.465,0,0,1,.465-.286h0a3.573,3.573,0,0,0,.893-.465l-.465.357a13.114,13.114,0,0,1,1.894-1.215h0a19.26,19.26,0,0,0,3.073-2.323l-.429.465a23.906,23.906,0,0,0,3.323-3.573c0-.25.25-.25.357-.429s.429-.893.572-.893h0c.286-.536.643-1.036.965-1.608-.179.286-.25.643-.393.929s-.5.786-.715,1.179a14.972,14.972,0,0,1-1.572,2.18ZM47,37.341l-.322.5Zm-.536,1.251s.214-.393.286-.5a1.036,1.036,0,0,1-.286.5Zm2.323-2.68a17.868,17.868,0,0,1-2.18,3c.393-.5.822-1,1.215-1.537l.572-.929a6.5,6.5,0,0,1,.536-.822Z" transform="translate(0.004)" fill="#e9bc20"/>
      </g>
    </g>
    <path id="Icon_material-call" data-name="Icon material-call" d="M7.625,11.225a13.077,13.077,0,0,0,5.689,5.689l1.9-1.9a.858.858,0,0,1,.881-.207,9.847,9.847,0,0,0,3.082.492.866.866,0,0,1,.863.863v3.013a.866.866,0,0,1-.863.863A14.674,14.674,0,0,1,4.5,5.363.866.866,0,0,1,5.363,4.5H8.385a.866.866,0,0,1,.863.863A9.807,9.807,0,0,0,9.74,8.445a.866.866,0,0,1-.216.881Z" transform="translate(808.5 877.084)" fill="#242424"/>
  </g>
</svg>
